<svg width="60" height="47" xmlns="http://www.w3.org/2000/svg" fill="none">

 <g>
  <title>Layer 1</title>
  <path id="svg_1" fill="#53AAD8" d="m54.3604,13.5695c0.0266,-0.0417 0.0562,-0.0862 0.0829,-0.1279c0.1806,-0.2836 0.376,-0.5729 0.5803,-0.8648c0.2042,-0.292 1.0303,-1.1986 1.0214,-1.5379c-4.1509,-6.36537 -12.2632,-10.0389 -20.6804,-10.0389c-0.7165,0 -1.4212,0.03337 -2.1199,0.09455c-0.3434,0.03059 -0.6839,0.0723 -1.0244,0.11958c-0.1125,0.01668 -0.225,0.03337 -0.3375,0.05005c-0.225,0.03337 -0.45,0.06952 -0.6721,0.10846c-0.1332,0.02502 -0.2635,0.05005 -0.3967,0.07508c-0.2013,0.03893 -0.4027,0.08064 -0.604,0.12514c-0.1391,0.03059 -0.2753,0.06118 -0.4115,0.09455c-0.1925,0.04727 -0.3849,0.09733 -0.5774,0.14738c-0.1361,0.03616 -0.2723,0.07231 -0.4085,0.10846c-0.2073,0.0584 -0.4145,0.12514 -0.6218,0.1891c-0.2457,0.07786 -0.4885,0.15851 -0.7313,0.24471c-0.1539,0.05284 -0.3108,0.10846 -0.4618,0.16407c-0.1777,0.06675 -0.3523,0.13627 -0.527,0.20857c-0.1214,0.05006 -0.2428,0.09733 -0.3642,0.14739c-0.1836,0.07786 -0.3671,0.15851 -0.5507,0.23915c-0.1036,0.04728 -0.2043,0.09455 -0.3079,0.14182c-0.1954,0.09177 -0.3878,0.18354 -0.5803,0.27809c-0.071,0.03615 -0.1806,0.04171 -0.2161,0.11124c-2.8748,5.57842 -4.5388,10.82311 -5.9984,12.29981c-4.3137,4.3604 -1.7024,10.2975 -1.3352,11.1707c0.9503,2.2609 0.6099,4.6329 1.3856,6.0595c2.3596,4.3326 0.675,6.3849 1.2109,6.8632c1.1339,1.0122 5.5661,3.1479 6.3299,3.757c0,0 0.0148,0.0139 0.0237,0.0194c0.1332,0.1057 0.2635,0.2086 0.3819,0.3031c0.0089,0.0084 0.0178,0.0139 0.0267,0.0223c0.1273,0.1001 0.2457,0.1891 0.3494,0.2697c1.9688,0.7536 4.065,1.2625 6.2559,1.4794c0.0503,0.0056 0.0977,0.0084 0.148,0.014c0.2162,0.0194 0.4352,0.0333 0.6543,0.0472c0.4885,0.0278 0.983,0.0473 1.4774,0.0473c0.3405,0 0.678,-0.0083 1.0155,-0.0222c0.3346,-0.0139 0.6691,-0.0362 1.0007,-0.0612c2.0607,-0.1697 4.0443,-0.5923 5.9185,-1.2347c0.5951,-0.3615 1.125,-0.8009 1.202,-1.2653c0.1303,-0.7953 -0.8497,-0.8371 -0.8497,-0.8371c0.0651,-0.4727 1.7142,-3.6902 0.9356,-4.0072c-0.1451,-0.0584 -0.2102,-0.2197 -0.1481,-0.3559c0.1925,-0.4227 0.3227,-0.7648 0.6691,-0.2754c0.0474,0.0668 0.157,0.0418 0.1718,-0.0389c0.1184,-0.7369 0.4589,-2.881 0.4589,-2.881c0.5447,-0.6368 1.6876,-1.6907 1.1221,-2.6195c-0.3701,-0.5951 -0.8497,-0.5534 -1.4004,-0.2309c-0.5833,0.2642 -1.0718,-0.342 -1.6284,0.1947c-3.7068,0.5423 -2.8482,1.5017 -3.8104,4.1602c-0.0948,0.2642 -0.3079,0.4783 -0.5803,0.5756c-1.9097,0.673 -4.2782,1.0985 -6.2619,0.8093c-0.3464,-0.3504 -1.6846,-0.9511 -2.5018,-1.193c-0.2931,-0.0862 -0.5151,-0.3115 -0.6069,-0.5896c-0.2191,-0.6674 -0.6928,-1.3626 -1.054,-2.0662c-0.0207,-0.0361 -0.0385,-0.075 -0.0563,-0.1112c-0.0473,-0.0973 -0.0947,-0.1919 -0.1361,-0.2892c-0.3849,-0.9511 -0.4649,-2.1468 -1.0985,-3.3815c-0.521,-2.0356 0.4086,-4.9667 1.436,-6.5045c0.1273,-0.1919 0.1539,-0.431 0.0562,-0.6396c-2.031,-4.4077 4.6394,-6.6379 8.2307,-6.6379c3.6565,0.6257 -0.524,2.2302 5.6194,1.4071c-0.1243,-1.5462 -1.0185,-1.7269 -2.4218,-1.6546c0.4026,-1.3821 2.6468,-0.0445 3.7571,-0.3115c4.0739,-1.2208 4.3404,2.3638 6.5994,0.2976c0,0 0.2309,0.7703 0.3789,1.2708c0.0563,0.1891 0.2399,0.2976 0.4441,0.3059c0.2635,0.0111 0.6751,0.2281 1.1814,1.1736c-0.4826,-0.9038 0.5951,3.045 1.0184,3.9071c1.5751,1.5545 0.9504,2.9922 2.6587,1.9132c1.6107,-3.1146 -3.4699,-7.8504 -2.33,-11.243l0.0089,0.0055z"/>
  <path id="svg_2" fill="#53AAD8" d="m58.2678,31c0.2492,-0.6148 0.3538,-1.6186 0.7322,-2.1996c-1.2091,-0.428 -3.3903,-1.1932 -4.2487,-0.5577c-0.5538,-0.1142 -1.5752,-0.511 -1.8767,0.1712c-1.2337,-0.0882 -3.9964,0.9831 -2.3812,2.1659c0.3353,-0.2205 0.9968,-0.7108 1.4552,-0.5577c0.3261,-0.9494 1.3752,-1.1828 2.3843,-1.0531c0.4184,0.5343 -0.5384,0.2127 -0.7814,0.2983c-0.2369,1.2917 1.7874,-0.013 2.3812,0.8534c0.6276,-0.4228 1.8828,0.6796 2.3382,0.8741l-0.0031,0.0052z"/>
  <path id="svg_3" fill="#3975B7" d="m43.5679,10.9865c-0.613,-0.5755 -1.1187,-0.5755 -1.1187,-0.5755l-6.8191,0c-0.0858,0 -0.1685,-0.0083 -0.2482,-0.0194c-0.0552,-0.0083 -0.1073,-0.0166 -0.1624,-0.0277c-0.6957,-0.1411 -1.2443,-0.63088 -1.4068,-1.25625c0,0 0,-0.00276 0,-0.00553c0,0 -0.003,0 -0.0061,0c0,0 0.0031,0 0.0061,0c-0.0306,-0.12452 -0.0521,-0.24904 -0.0521,-0.38186c0,-0.93529 0.8398,-1.69071 1.8726,-1.69071l2.9391,0c0.7417,-1.35589 1.5232,-2.72008 1.4864,-2.91931c-1.6703,0.0083 -4.3121,0.47041 -4.2355,-1.23967c0.0552,-1.24243 1.8695,-1.414 5.8782,-1.21753c-1.9063,-0.42614 -3.9014,-0.65304 -5.9548,-0.65304c-0.7539,0 -1.5017,0.03321 -2.2373,0.09408c-5.2254,0.45934 -10.0371,2.15559 -13.8037,5.08043c-0.0919,0.03597 0.5149,0.43444 0.5272,0.4372l0.8305,0.12729c0.8244,0.18817 0.7723,3.8629 -0.2605,3.8629l-3.7022,1.4555c0,0 0.0521,2.1805 0.0521,3.113c0,0.3072 1.2535,2.7782 -1.2014,5.2741c-2.4549,2.496 0.567,11.9817 0.993,12.2445c3.7022,2.3078 1.4619,7.1115 3.4417,8.1326c-0.1073,0 1.2167,0.844 1.7653,1.1732c-0.0337,0.072 3.9413,1.9398 3.9413,1.9398c0.2145,0.083 0.4168,0.0913 0.2942,0l7.7569,0c1.0359,0 1.8726,-0.7084 1.8726,-1.58c0,-0.8717 -0.8398,-1.5801 -1.8726,-1.5801l-2.0503,0c0,0 -3.2579,0.0111 -6.4207,0.0194c-0.6742,0 -1.3424,0 -1.9768,0.0028c-0.7232,-0.2629 -1.2381,-0.8966 -1.2381,-1.652c0,-0.8191 0.6037,-1.5053 1.4251,-1.7184l-0.2207,0c-0.1655,-0.8273 -0.334,-1.7543 -0.8183,-2.6647c-0.1593,-0.2989 -0.2972,-0.5396 -0.4229,-0.7444l1.3301,-0.0055c-1.0267,-0.0083 -1.8542,-0.7609 -1.8542,-1.6852c0,-0.9242 0.8398,-1.6879 1.8726,-1.6879l0.095,0l-0.0919,-0.0055c0,0 0,-0.0028 0,-0.0056c1.0052,-0.0304 1.8082,-0.7692 1.8082,-1.6824c0,-0.9131 -0.8398,-1.6879 -1.8726,-1.6879l-0.6344,0c-0.1441,-0.4621 -0.2544,-0.7776 -0.2513,-0.7831c0,-0.2906 -0.0705,-0.3514 -0.0644,-0.6337c-0.0919,-0.5008 -0.6037,-0.1743 -0.5087,-0.7001c0.0398,-0.1798 -0.8275,-0.3984 -0.4597,-0.7222c0.0398,-0.0332 0.0183,-0.1051 0.0551,-0.1383c0.0215,-0.0166 1.18,-0.1467 2.3139,-0.2685c-0.4658,-0.0747 -0.852,-0.3071 -1.1125,-0.6364c-0.2329,-0.2905 -0.3708,-0.6558 -0.3708,-1.057c0,-0.4428 0.1869,-0.8412 0.4842,-1.1456c0.2421,-0.2491 0.5609,-0.4289 0.9194,-0.5147l2.5131,0c0.1717,0 0.3372,-0.0249 0.4965,-0.0636c0.8612,-0.1993 1.4987,-0.8883 1.4987,-1.7157c0,-0.8273 -0.6957,-1.5855 -1.6151,-1.7432c0,0 0,0 0,-0.0028l-0.0429,0c-0.1104,-0.0166 -0.2238,-0.0304 -0.3402,-0.0304l-0.0521,0c-0.8857,-0.0139 -1.5385,-0.8302 -1.5385,-1.6603c0,-0.9353 0.7815,-1.5883 1.8174,-1.5883l2.0503,-0.0166l10.5918,-0.0886l2.6694,0c1.0359,0 1.8726,-0.7582 1.8726,-1.6907c0,-0.4068 -0.141,-0.7969 -0.4321,-1.0681l0,-0.0028z"/>
  <path id="svg_4" fill="#2E3E90" d="m34.844,0c-4.6052,0 -9.1353,1.19584 -13.0466,3.41068l-4.6713,0c-1.0153,0 -1.8355,0.76916 -1.8355,1.71516c0,0.94601 0.8232,1.71517 1.8355,1.71517l1.1205,0c0,0 0,0 -0.003,0.00281c0.0301,0.00561 0.0601,0.01684 0.0902,0.02245c0.012,0 0.027,0 0.039,0.00281c0,0 -0.003,0.00281 -0.006,0.00561c0.8081,0.19089 1.5261,0.87022 1.5261,1.65903c0,0.93477 -0.8232,1.69268 -1.8355,1.69268l-6.672,0c-1.0154,0 -1.83551,0.7692 -1.83551,1.7152c0,0.946 0.82311,1.7152 1.83551,1.7152l2.253,0c1.0154,0 1.8355,0.7691 1.8355,1.7151c0,0.946 -0.8231,1.7152 -1.8355,1.7152l-7.07754,0c-0.01803,0 -0.03605,0.0056 -0.05408,0.0056c-0.98833,0.0281 -1.7814,0.7804 -1.7814,1.7095c0,0.9292 0.82311,1.7152 1.83548,1.7152l4.09454,0l0.6939,0.0112c1.0154,0 1.8355,0.7692 1.8355,1.7152c0,0.946 -0.8231,1.7152 -1.8355,1.7152l-0.8892,0c0,0 0,0.0028 0,0.0056l-8.61861,0c-1.01838,0 -1.84149,0.7691 -1.84149,1.7208c0,0.814 0.60682,1.4906 1.41791,1.6702l10.64339,0c0.0991,0 0.1952,0.014 0.2914,0.0281c0,0 0.003,0 0.006,0c0.042,0.0056 0.0841,0.014 0.1262,0.0224c0.8111,0.1797 1.4149,0.8534 1.4149,1.6647c0,0.9488 -0.8231,1.7151 -1.8355,1.7151l-7.00247,0c-1.1115,0 -2.01271,0.7692 -2.01271,1.7152c0,0.946 0.90121,1.7152 2.01271,1.7152l7.93067,0l3.0762,0c1.0154,0 1.8355,0.7691 1.8355,1.7151l0,0.073c0,0.9488 -0.8231,1.7152 -1.8355,1.7152l-5.0468,0c-0.736,0.2217 -1.27374,0.8618 -1.27374,1.6253c0,0.9488 0.82314,1.7152 1.83544,1.7152l6.5609,0c4.6082,3.8317 10.5172,5.9399 16.7055,5.9399c13.8698,0 25.15,-10.5436 25.15,-23.5014c0,-12.9578 -11.2862,-23.4986 -25.156,-23.4986zm0,45.7031c-5.2811,0 -10.3429,-1.631 -14.4825,-4.6149c-0.718,-0.5053 -1.3308,-0.8618 -1.3308,-1.645c0,-0.9488 0.8231,-1.718 1.8355,-1.7208l0.1892,0l0.1442,0l3.9654,0c1.0153,0 1.8355,-0.7832 1.8355,-1.7489c0,-0.9656 -0.8232,-1.7488 -1.8355,-1.7488l-6.3025,0c0,0 0,-0.0056 -0.003,-0.0084l0.3604,0c-0.1291,0 -0.2553,-0.0113 -0.3755,-0.0337c-0.057,-0.0084 -0.1111,-0.0281 -0.1652,-0.0421c-0.0601,-0.0169 -0.1231,-0.0281 -0.1832,-0.0505c-0.0541,-0.0197 -0.1052,-0.045 -0.1562,-0.0674c-0.0541,-0.0253 -0.1082,-0.0477 -0.1623,-0.0758c-0.048,-0.0281 -0.0931,-0.0562 -0.1381,-0.087c-0.0481,-0.0337 -0.0992,-0.0674 -0.1442,-0.1039c-0.0391,-0.0337 -0.0781,-0.0674 -0.1142,-0.1039c-0.0451,-0.0421 -0.0841,-0.087 -0.1232,-0.1319c-0.03,-0.0365 -0.063,-0.073 -0.0901,-0.1123c-0.036,-0.0505 -0.0691,-0.1067 -0.0991,-0.1628c-0.021,-0.0393 -0.0451,-0.0758 -0.0631,-0.1151c-0.03,-0.0646 -0.0511,-0.1319 -0.0721,-0.2021c-0.009,-0.0337 -0.024,-0.0674 -0.033,-0.1039c-0.0241,-0.1066 -0.0391,-0.2161 -0.0391,-0.3284c0,-0.1235 0.015,-0.2414 0.0451,-0.3565c0.006,-0.0225 0.018,-0.0449 0.024,-0.0674c0.027,-0.0926 0.0601,-0.1853 0.1021,-0.2695c0.009,-0.0168 0.0211,-0.0309 0.0271,-0.0449c0.051,-0.0898 0.1051,-0.1768 0.1712,-0.2582c0.009,-0.0113 0.018,-0.0197 0.027,-0.0309c0.0691,-0.0814 0.1472,-0.1572 0.2314,-0.2246c0.3394,-0.2751 0.787,-0.4519 1.2857,-0.4604l-0.0901,0c0.8802,-0.1291 1.5591,-0.8337 1.5591,-1.6927c0,-0.859 -0.6399,-1.5327 -1.49,-1.6871l3.4336,0c1.0184,0 1.8415,-0.7691 1.8415,-1.7207c0,-0.9517 -0.8231,-1.7208 -1.8415,-1.7208l-5.149,0c-1.0153,0 -1.8354,-0.772 -1.8354,-1.7236c0,-0.9516 0.8231,-1.7236 1.8354,-1.7236l2.0638,0l2.908,0c1.0153,0 1.8354,-0.7692 1.8354,-1.7152c0,-0.946 -0.8231,-1.7151 -1.8354,-1.7151l-2.7007,0c-1.0154,0 -1.8355,-0.7692 -1.8355,-1.7152c0,-0.946 0.8231,-1.7152 1.8355,-1.7152l7.5252,0c1.0153,0 1.8354,-0.7691 1.8354,-1.7151c0,-0.946 -0.8231,-1.7152 -1.8354,-1.7152l-2.2891,0c0,0 0,-0.0056 0,-0.0084c-0.9703,-0.0449 -1.7454,-0.78881 -1.7454,-1.70675c0,-0.55862 0.2914,-1.04987 0.733,-1.36427c0.3064,-0.21896 0.6879,-0.35089 1.1025,-0.35089l13.6444,0.04772c1.0154,0 1.8355,-0.76916 1.8355,-1.71517c0,-0.946 -0.8231,-1.71516 -1.8355,-1.71516l-13.9718,0c3.1332,-1.38673 6.5578,-2.10817 10.1266,-2.10817c13.1007,0 23.7591,9.95979 23.7591,22.20169c0,12.242 -10.6584,22.2017 -23.7591,22.2017l0.009,-0.0028z"/>
  <path id="svg_5" fill="#2E3E90" d="m15,4.96333c0,-0.94333 -0.6427,-1.73 -1.5075,-1.96333l-2.985,0c-0.86476,0.23 -1.5075,1.01667 -1.5075,1.96333c0,0.01334 0.00331,0.02334 0.00331,0.03667c0,0.01333 -0.00331,0.02333 -0.00331,0.03667c0,0.94333 0.64274,1.73 1.5075,1.96333l2.985,0c0.8648,-0.23 1.5075,-1.01667 1.5075,-1.96333c0,-0.01334 -0.0033,-0.02334 -0.0033,-0.03667c0,-0.01333 0.0033,-0.02333 0.0033,-0.03667z"/>
  <path id="svg_6" fill="#2E3E90" d="m3,12c0,1.1064 0.82036,2 1.82934,2l3.34132,0c1.01197,0 1.82934,-0.8969 1.82934,-2c0,-1.1031 -0.82036,-2 -1.82934,-2l-3.34132,0c-1.00898,0 -1.82934,0.8969 -1.82934,2z"/>
  <path id="svg_7" fill="#2E3E90" d="m93,27.708c-2.3885,3.0644 -7.0976,5.292 -13.5795,5.292c-9.5868,0 -15.4205,-4.4524 -15.4205,-12c0,-7.5476 5.8337,-12 15.4205,-12c5.8693,0 10.0307,2.0961 12.4193,4.2901l-4.2651,2.9356c-2.0807,-1.9365 -4.5048,-2.8376 -8.1216,-2.8376c-6.2452,0 -9.8946,2.5802 -9.8946,7.6147c0,5.0345 3.753,7.6119 10.0988,7.6119c3.5813,0 6.5174,-0.7416 8.2223,-2.6781l0,-2.1941l-9.0067,0l0,-4.1949l14.1241,0l0,8.1604l0.003,0z"/>
  <path id="svg_8" fill="#2E3E90" d="m119.347,32l-7,-7.8215l-8.809,0l0,7.8215l-5.538,0l0,-23l16.822,0c5.954,0 10.447,2.5967 10.447,7.5907c0,3.9107 -2.752,6.3421 -6.792,7.2286l7.523,8.1807l-6.653,0zm-4.839,-12.157c2.924,0 5.084,-0.6585 5.084,-3.221c0,-2.5625 -2.16,-3.221 -5.084,-3.221l-11.006,0l0,6.4391l11.006,0l0,0.0029z"/>
  <path id="svg_9" fill="#2E3E90" d="m130,32l0,-23l5,0l0,23l-5,0z"/>
  <path id="svg_10" fill="#2E3E90" d="m142,32l0,-23l5,0l0,23l-5,0z"/>
  <path id="svg_11" fill="#2E3E90" d="m181,20.4986c0,7.1631 -5.668,11.5014 -14.524,11.5014l-12.476,0l0,-23l12.476,0c8.853,0 14.524,4.3383 14.524,11.5014l0,-0.0028zm-5.467,0c0,-4.7317 -3.823,-7.032 -9.459,-7.032l-6.709,0l0,14.064l6.709,0c5.636,0 9.459,-2.3003 9.459,-7.032z"/>
  <path id="svg_12" fill="#2E3E90" d="m208.003,24.8703l4.997,2.3564c-2.26,3.1931 -6.88,5.7733 -13.145,5.7733c-9.003,0 -14.855,-4.4832 -14.855,-12c0,-7.5168 5.852,-12 15.096,-12c6.024,0 10.644,2.6138 12.836,5.7425l-5.033,2.3564c-1.71,-2.5159 -4.312,-3.6465 -7.872,-3.6465c-5.683,0 -9.448,2.5802 -9.448,7.5476c0,4.9674 3.765,7.5476 9.448,7.5476c3.56,0 6.197,-1.097 7.976,-3.6773z"/>
  <path id="svg_13" fill="#3975B7" d="m69.4713,41.4477c-0.1913,0.1099 -0.3989,0.2082 -0.6227,0.2892c-0.2237,0.0838 -0.4637,0.1474 -0.72,0.1937c-0.2562,0.0463 -0.5254,0.0694 -0.8043,0.0694c-0.5027,0 -0.9567,-0.0752 -1.3654,-0.2284c-0.4086,-0.1504 -0.7589,-0.3615 -1.0475,-0.6304c-0.2887,-0.2689 -0.5157,-0.5841 -0.6746,-0.9484c-0.159,-0.3644 -0.2368,-0.7605 -0.2368,-1.1856c0,-0.425 0.0811,-0.7952 0.2432,-1.1595c0.1622,-0.3643 0.3892,-0.6853 0.6811,-0.9571c0.2919,-0.2747 0.6422,-0.4916 1.0476,-0.6506c0.4054,-0.159 0.8497,-0.24 1.333,-0.24c0.2821,0 0.5351,0.0173 0.7654,0.0549c0.2302,0.0347 0.441,0.0868 0.6356,0.1533c0.1946,0.0665 0.3795,0.1475 0.5546,0.2458c0.1752,0.0983 0.3438,0.2082 0.5092,0.3354l-0.7135,0.772c-0.1232,-0.0925 -0.2465,-0.1792 -0.3762,-0.2573c-0.1297,-0.0781 -0.2627,-0.1417 -0.4022,-0.1937c-0.1394,-0.0521 -0.2951,-0.0955 -0.4637,-0.1244c-0.1687,-0.0289 -0.3536,-0.0462 -0.5546,-0.0462c-0.2919,0 -0.5676,0.0549 -0.8206,0.1619c-0.253,0.107 -0.4735,0.2573 -0.6584,0.4453c-0.1848,0.1879 -0.334,0.4077 -0.4378,0.6564c-0.107,0.2486 -0.1589,0.5147 -0.1589,0.798c0,0.2979 0.0519,0.5755 0.1557,0.8299c0.1037,0.2545 0.2529,0.4742 0.4443,0.6593c0.1913,0.1851 0.4216,0.3296 0.6875,0.4366c0.266,0.1041 0.5644,0.1591 0.8919,0.1591c0.3049,0 0.5903,-0.0405 0.8563,-0.1215c0.2659,-0.0809 0.4962,-0.1879 0.6908,-0.3209l0,-1.0931l-1.6411,0l0,-0.8877l2.7308,0l0,2.4376c-0.1589,0.1215 -0.3341,0.2371 -0.5254,0.3499l-0.0033,-0.0029z"/>
  <path id="svg_14" fill="#3975B7" d="m76,39.3529c0,0.4383 -0.0591,0.8236 -0.1802,1.1559c-0.121,0.3324 -0.2864,0.6088 -0.505,0.8294c-0.2156,0.2236 -0.4784,0.3883 -0.7885,0.4971c-0.3101,0.1088 -0.6557,0.1647 -1.0396,0.1647c-0.3839,0 -0.7206,-0.0559 -1.0248,-0.1647c-0.3071,-0.1088 -0.567,-0.2735 -0.7856,-0.4941c-0.2185,-0.2206 -0.3839,-0.4912 -0.5021,-0.8147c-0.1151,-0.3236 -0.1742,-0.7 -0.1742,-1.1265l0,-3.3971l1.0159,0l0,3.3559c0,0.55 0.1329,0.9706 0.3928,1.2559c0.2629,0.2853 0.6261,0.4294 1.0898,0.4294c0.4637,0 0.8181,-0.1382 1.0809,-0.4147c0.2629,-0.2765 0.3928,-0.6853 0.3928,-1.2323l0,-3.3971l1.0189,0l0,3.3471l0.0089,0.0058z"/>
  <path id="svg_15" fill="#3975B7" d="m78,36l0.9971,0l0,5.0493l3.0029,0l0,0.9507l-4,0l0,-6z"/>
  <path id="svg_16" fill="#3975B7" d="m87,36.9537l-3.0606,0l0,1.6532l2.7148,0l0,0.9506l-2.7148,0l0,2.4425l-0.9394,0l0,-6l4,0l0,0.9507l0,0.003z"/>
  <path id="svg_17" fill="#3975B7" d="m91.4431,37.9099c0.0425,0.0843 0.121,0.1599 0.2356,0.2325c0.1145,0.0727 0.2716,0.1396 0.4712,0.2006c0.1996,0.0611 0.4548,0.125 0.7657,0.1919c0.3403,0.0785 0.6413,0.1628 0.9031,0.2587c0.2618,0.0959 0.481,0.2093 0.6545,0.3459c0.1734,0.1367 0.3043,0.2936 0.3926,0.4739c0.0884,0.1802 0.1342,0.3924 0.1342,0.6366c0,0.2791 -0.0556,0.5262 -0.1702,0.7413c-0.1145,0.218 -0.2716,0.4011 -0.4712,0.5494c-0.2028,0.1512 -0.445,0.2645 -0.7264,0.343c-0.2814,0.0785 -0.5956,0.1163 -0.9326,0.1163c-0.5006,0 -0.9751,-0.0756 -1.4332,-0.2296c-0.4549,-0.1541 -0.877,-0.3867 -1.2664,-0.7035l0.6839,-0.7326c0.3141,0.2442 0.6315,0.4331 0.9522,0.561c0.3207,0.1309 0.6839,0.1948 1.0897,0.1948c0.3501,0 0.6315,-0.0668 0.8377,-0.2006c0.2061,-0.1337 0.3108,-0.3139 0.3108,-0.5407c0,-0.1046 -0.0196,-0.2005 -0.0589,-0.2819c-0.0392,-0.0843 -0.1145,-0.1599 -0.2225,-0.2297c-0.1079,-0.0698 -0.2552,-0.1337 -0.445,-0.1948c-0.1898,-0.061 -0.4352,-0.125 -0.7363,-0.1918c-0.3468,-0.0727 -0.6544,-0.1541 -0.9227,-0.2413c-0.2684,-0.0901 -0.4941,-0.2006 -0.6774,-0.3343c-0.1832,-0.1337 -0.3207,-0.2936 -0.4156,-0.4826c-0.0949,-0.1889 -0.1439,-0.4186 -0.1439,-0.6918c0,-0.2558 0.0556,-0.4884 0.1636,-0.6948c0.1112,-0.2093 0.2618,-0.3866 0.4548,-0.5378c0.1931,-0.1511 0.4254,-0.2645 0.6937,-0.3459c0.2716,-0.0814 0.5661,-0.1221 0.8868,-0.1221c0.4745,0 0.8999,0.061 1.2795,0.186c0.3795,0.125 0.7362,0.3082 1.0667,0.5466l-0.6086,0.7761c-0.2945,-0.1947 -0.589,-0.343 -0.877,-0.4447c-0.2912,-0.1018 -0.5824,-0.1541 -0.8769,-0.1541c-0.3338,0 -0.5923,0.0668 -0.7756,0.2035c-0.1865,0.1366 -0.2781,0.3023 -0.2781,0.4971c0,0.1162 0.0229,0.218 0.0654,0.2994l-0.0032,0z"/>
  <path id="svg_18" fill="#3975B7" d="m100.555,41.3986c-0.155,0.1243 -0.318,0.2313 -0.495,0.3238c-0.1773,0.0925 -0.3708,0.159 -0.581,0.2082c-0.2102,0.0463 -0.4453,0.0694 -0.6997,0.0694c-0.401,0 -0.7716,-0.0781 -1.1089,-0.2313c-0.3374,-0.1562 -0.6306,-0.3673 -0.8795,-0.6333c-0.2461,-0.2689 -0.4424,-0.5841 -0.5807,-0.9484c-0.1411,-0.3643 -0.2102,-0.7576 -0.2102,-1.1769c0,-0.4193 0.0691,-0.8038 0.2074,-1.1682c0.1383,-0.3643 0.3319,-0.6853 0.5808,-0.9571c0.2489,-0.2747 0.5475,-0.4887 0.8905,-0.6477c0.3429,-0.1561 0.7245,-0.2371 1.1393,-0.2371c0.2489,0 0.4785,0.0231 0.6831,0.0665c0.2046,0.0434 0.3955,0.107 0.5669,0.188c0.171,0.0809 0.332,0.1763 0.476,0.2862c0.146,0.1099 0.285,0.2313 0.415,0.3644l-0.617,0.7547c-0.219,-0.2169 -0.451,-0.3904 -0.6943,-0.5234c-0.2462,-0.133 -0.5227,-0.1995 -0.8352,-0.1995c-0.26,0 -0.5006,0.0549 -0.7218,0.1619c-0.2212,0.107 -0.412,0.2545 -0.5752,0.4395c-0.1604,0.1851 -0.2876,0.4019 -0.3761,0.6506c-0.0885,0.2487 -0.1328,0.5176 -0.1328,0.8039c0,0.2862 0.0443,0.558 0.1328,0.8096c0.0885,0.2516 0.2129,0.4713 0.3761,0.6593c0.1604,0.1879 0.354,0.3354 0.5752,0.4424c0.2212,0.107 0.4618,0.1619 0.7218,0.1619c0.3346,0 0.6195,-0.0665 0.8601,-0.2024c0.2406,-0.1359 0.4754,-0.3181 0.7104,-0.5523l0.617,0.6622c-0.141,0.159 -0.288,0.3036 -0.442,0.4279l-0.003,-0.0028z"/>
  <path id="svg_19" fill="#3975B7" d="m103,36l0,6l-1,0l0,-6l1,0z"/>
  <path id="svg_20" fill="#3975B7" d="m108.962,36.9537l-3.028,0l0,1.5426l2.684,0l0,0.9506l-2.684,0l0,1.6024l3.066,0l0,0.9507l-4,0l0,-6l3.962,0l0,0.9507l0,0.003z"/>
  <path id="svg_21" fill="#3975B7" d="m114.799,36l1.201,0l0,6l-1.01,0l-3.789,-4.2691l0,4.2691l-1.201,0l0,-6l1.118,0l3.681,4.1495l0,-4.1495z"/>
  <path id="svg_22" fill="#3975B7" d="m121.555,41.3986c-0.155,0.1243 -0.318,0.2313 -0.495,0.3238c-0.177,0.0925 -0.371,0.159 -0.581,0.2082c-0.21,0.0463 -0.445,0.0694 -0.7,0.0694c-0.401,0 -0.771,-0.0781 -1.109,-0.2313c-0.337,-0.1562 -0.63,-0.3673 -0.879,-0.6333c-0.246,-0.2689 -0.443,-0.5841 -0.581,-0.9484c-0.141,-0.3643 -0.21,-0.7576 -0.21,-1.1769c0,-0.4193 0.069,-0.8038 0.207,-1.1682c0.139,-0.3643 0.332,-0.6853 0.581,-0.9571c0.249,-0.2718 0.548,-0.4887 0.891,-0.6477c0.343,-0.1561 0.724,-0.2371 1.139,-0.2371c0.249,0 0.478,0.0231 0.683,0.0665c0.205,0.0434 0.396,0.107 0.567,0.188c0.171,0.0809 0.332,0.1763 0.476,0.2862c0.146,0.1099 0.285,0.2313 0.415,0.3644l-0.617,0.7547c-0.219,-0.2169 -0.451,-0.3904 -0.694,-0.5234c-0.246,-0.133 -0.523,-0.1995 -0.835,-0.1995c-0.26,0 -0.501,0.0549 -0.722,0.1619c-0.222,0.107 -0.412,0.2545 -0.576,0.4395c-0.16,0.1851 -0.287,0.4019 -0.376,0.6506c-0.088,0.2487 -0.132,0.5176 -0.132,0.8039c0,0.2862 0.044,0.558 0.132,0.8096c0.089,0.2516 0.213,0.4713 0.376,0.6593c0.161,0.1879 0.354,0.3354 0.576,0.4424c0.221,0.107 0.462,0.1619 0.722,0.1619c0.334,0 0.619,-0.0665 0.86,-0.2024c0.24,-0.1359 0.475,-0.3181 0.71,-0.5523l0.617,0.6622c-0.141,0.159 -0.288,0.3036 -0.442,0.4279l-0.003,-0.0028z"/>
  <path id="svg_23" fill="#3975B7" d="m127.953,36.9537l-3.785,0l0,1.5426l3.355,0l0,0.9506l-3.355,0l0,1.6024l3.832,0l0,0.9507l-5,0l0,-6l4.953,0l0,0.9507l0,0.003z"/>
  <path id="svg_24" fill="#3975B7" d="m136.745,40.1794c-0.171,0.3677 -0.413,0.6876 -0.725,0.9566c-0.313,0.2691 -0.685,0.4813 -1.118,0.6338c-0.434,0.1555 -0.91,0.2302 -1.427,0.2302l-2.475,0l0,-6l2.475,0c0.517,0 0.993,0.0747 1.427,0.2272c0.433,0.1525 0.805,0.3617 1.118,0.6308c0.312,0.2691 0.554,0.5859 0.725,0.9507c0.171,0.3647 0.255,0.7593 0.255,1.1838c0,0.4245 -0.084,0.8192 -0.255,1.1869zm-1.135,-1.9911c-0.111,-0.2511 -0.265,-0.4663 -0.467,-0.6487c-0.201,-0.1824 -0.443,-0.3258 -0.728,-0.4305c-0.286,-0.1046 -0.601,-0.1554 -0.951,-0.1554l-1.312,0l0,4.0956l1.312,0c0.35,0 0.665,-0.0508 0.951,-0.1495c0.285,-0.1016 0.527,-0.2421 0.728,-0.4215c0.198,-0.1823 0.356,-0.3976 0.467,-0.6457c0.111,-0.2511 0.168,-0.5232 0.168,-0.8221c0,-0.299 -0.054,-0.571 -0.168,-0.8222z"/>
  <path id="svg_25" fill="#3975B7" d="m143,42l-1.068,0l-0.585,-1.4399l-2.72,0l-0.591,1.4399l-1.036,0l2.532,-6l0.936,0l2.532,6zm-3.017,-4.7501l-0.987,2.3839l1.982,0l-0.995,-2.3839z"/>
  <path id="svg_26" fill="#3975B7" d="m146.046,42l-1.092,0l0,-5.0224l-1.954,0l0,-0.9776l5,0l0,0.9776l-1.954,0l0,5.0224z"/>
  <path id="svg_27" fill="#3975B7" d="m153,42l-1.068,0l-0.585,-1.4399l-2.72,0l-0.591,1.4399l-1.036,0l2.532,-6l0.936,0l2.532,6zm-3.017,-4.7501l-0.987,2.3839l1.982,0l-0.995,-2.3839z"/>
  <path id="svg_28" fill="#3975B7" d="m160.778,42l-1.451,-2.0927l-1.299,0l0,2.0927l-1.028,0l0,-6l2.625,0c0.337,0 0.641,0.0448 0.912,0.1315c0.271,0.0897 0.504,0.2153 0.691,0.3767c0.188,0.1615 0.334,0.3618 0.432,0.6009c0.102,0.2362 0.152,0.5023 0.152,0.7922c0,0.2512 -0.035,0.4754 -0.104,0.6727c-0.072,0.1973 -0.167,0.3707 -0.289,0.5232c-0.122,0.1524 -0.271,0.281 -0.441,0.3856c-0.17,0.1046 -0.361,0.1883 -0.569,0.2452l1.591,2.272l-1.222,0zm-0.336,-4.7952c-0.215,-0.1704 -0.516,-0.2541 -0.903,-0.2541l-1.511,0l0,2.0239l1.52,0c0.372,0 0.667,-0.0927 0.888,-0.275c0.22,-0.1824 0.327,-0.4305 0.327,-0.7415c0,-0.3318 -0.107,-0.5829 -0.321,-0.7533z"/>
  <path id="svg_29" fill="#3975B7" d="m166.962,36.9537l-3.028,0l0,1.5426l2.684,0l0,0.9506l-2.684,0l0,1.6024l3.066,0l0,0.9507l-4,0l0,-6l3.962,0l0,0.9507l0,0.003z"/>
  <path id="svg_30" fill="#3975B7" d="m172.841,38.9088c-0.11,0.2571 -0.256,0.4724 -0.445,0.6428c-0.188,0.1704 -0.407,0.3019 -0.658,0.3886c-0.251,0.0897 -0.52,0.1315 -0.807,0.1315l-1.03,0l0,1.9283l-0.901,0l0,-6l2.038,0c0.3,0 0.572,0.0478 0.815,0.1405c0.243,0.0957 0.449,0.2302 0.619,0.4066c0.17,0.1764 0.301,0.3886 0.392,0.6338c0.092,0.2451 0.136,0.5231 0.136,0.8311c0,0.3378 -0.055,0.6337 -0.162,0.8908l0.003,0.006zm-1.064,-1.6831c-0.201,-0.1794 -0.473,-0.272 -0.815,-0.272l-1.058,0l0,2.1674l1.058,0c0.345,0 0.619,-0.0987 0.818,-0.296c0.198,-0.1973 0.3,-0.4604 0.3,-0.7862c0,-0.3618 -0.102,-0.6338 -0.303,-0.8132z"/>
  <path id="svg_31" fill="#3975B7" d="m179.78,40.1523c-0.148,0.3643 -0.354,0.6853 -0.624,0.9571c-0.267,0.2747 -0.586,0.4916 -0.952,0.6506c-0.366,0.159 -0.772,0.24 -1.213,0.24c-0.441,0 -0.847,-0.0781 -1.212,-0.2371c-0.366,-0.1562 -0.679,-0.373 -0.943,-0.6419c-0.262,-0.2718 -0.468,-0.5899 -0.615,-0.9543c-0.148,-0.3643 -0.221,-0.7518 -0.221,-1.1595c0,-0.4077 0.073,-0.7952 0.221,-1.1595c0.147,-0.3643 0.353,-0.6853 0.623,-0.9571c0.267,-0.2747 0.586,-0.4916 0.952,-0.6506c0.366,-0.159 0.769,-0.24 1.213,-0.24c0.444,0 0.847,0.0781 1.212,0.2371c0.366,0.1562 0.679,0.373 0.943,0.6419c0.262,0.2718 0.468,0.5899 0.616,0.9543c0.147,0.3643 0.22,0.7518 0.22,1.1595c0,0.4077 -0.073,0.7952 -0.22,1.1595zm-0.981,-1.9431c-0.096,-0.2516 -0.229,-0.4714 -0.401,-0.6593c-0.171,-0.188 -0.377,-0.3383 -0.618,-0.4482c-0.24,-0.1099 -0.501,-0.1648 -0.786,-0.1648c-0.284,0 -0.545,0.0549 -0.783,0.1619c-0.238,0.107 -0.441,0.2545 -0.609,0.4395c-0.169,0.1851 -0.302,0.4048 -0.398,0.6535c-0.096,0.2516 -0.142,0.5176 -0.142,0.801c0,0.2833 0.046,0.5494 0.142,0.8009c0.096,0.2516 0.229,0.4714 0.4,0.6593c0.172,0.188 0.378,0.3383 0.618,0.4482c0.241,0.1099 0.502,0.1648 0.787,0.1648c0.284,0 0.545,-0.0549 0.783,-0.1619c0.238,-0.107 0.441,-0.2545 0.609,-0.4395c0.169,-0.1851 0.302,-0.4048 0.398,-0.6535c0.096,-0.2516 0.142,-0.5176 0.142,-0.801c0,-0.2834 -0.046,-0.5494 -0.142,-0.8009z"/>
  <path id="svg_32" fill="#3975B7" d="m182.154,37.9099c0.034,0.0843 0.097,0.1599 0.189,0.2325c0.092,0.0727 0.217,0.1396 0.377,0.2006c0.16,0.0611 0.364,0.125 0.612,0.1919c0.273,0.0785 0.514,0.1628 0.723,0.2587c0.209,0.0959 0.385,0.2093 0.524,0.3459c0.138,0.1367 0.243,0.2936 0.314,0.4739c0.07,0.1802 0.107,0.3924 0.107,0.6366c0,0.2791 -0.045,0.5262 -0.136,0.7413c-0.092,0.218 -0.217,0.4011 -0.377,0.5494c-0.162,0.1512 -0.356,0.2645 -0.581,0.343c-0.225,0.0785 -0.477,0.1163 -0.746,0.1163c-0.401,0 -0.78,-0.0756 -1.147,-0.2296c-0.364,-0.1541 -0.701,-0.3867 -1.013,-0.7035l0.547,-0.7326c0.251,0.2442 0.505,0.4331 0.762,0.561c0.256,0.1309 0.547,0.1948 0.872,0.1948c0.28,0 0.505,-0.0668 0.67,-0.2006c0.165,-0.1337 0.248,-0.3139 0.248,-0.5407c0,-0.1046 -0.015,-0.2005 -0.047,-0.2819c-0.031,-0.0843 -0.091,-0.1599 -0.178,-0.2297c-0.086,-0.0698 -0.204,-0.1337 -0.356,-0.1948c-0.152,-0.061 -0.348,-0.125 -0.589,-0.1918c-0.277,-0.0727 -0.523,-0.1541 -0.738,-0.2413c-0.215,-0.0901 -0.395,-0.2006 -0.542,-0.3343c-0.146,-0.1337 -0.256,-0.2936 -0.332,-0.4826c-0.076,-0.1889 -0.115,-0.4186 -0.115,-0.6918c0,-0.2558 0.044,-0.4884 0.13,-0.6948c0.089,-0.2093 0.21,-0.3866 0.364,-0.5378c0.155,-0.1511 0.341,-0.2645 0.555,-0.3459c0.218,-0.0814 0.453,-0.1221 0.71,-0.1221c0.379,0 0.72,0.061 1.023,0.186c0.304,0.125 0.589,0.3082 0.854,0.5466l-0.487,0.7761c-0.236,-0.1947 -0.471,-0.343 -0.702,-0.4447c-0.233,-0.1018 -0.466,-0.1541 -0.701,-0.1541c-0.267,0 -0.474,0.0668 -0.621,0.2035c-0.149,0.1366 -0.222,0.3023 -0.222,0.4971c0,0.1162 0.018,0.218 0.052,0.2994l-0.003,0z"/>
  <path id="svg_33" fill="#3975B7" d="m188,36l0,6l-1,0l0,-6l1,0z"/>
  <path id="svg_34" fill="#3975B7" d="m191.436,42l-0.872,0l0,-5.0224l-1.564,0l0,-0.9776l4,0l0,0.9776l-1.564,0l0,5.0224z"/>
  <path id="svg_35" fill="#3975B7" d="m199.78,40.1523c-0.148,0.3643 -0.354,0.6853 -0.624,0.9571c-0.267,0.2747 -0.586,0.4916 -0.952,0.6506c-0.365,0.159 -0.772,0.24 -1.213,0.24c-0.441,0 -0.847,-0.0781 -1.212,-0.2371c-0.366,-0.1562 -0.679,-0.373 -0.943,-0.6419c-0.262,-0.2718 -0.468,-0.5899 -0.615,-0.9543c-0.148,-0.3643 -0.221,-0.7518 -0.221,-1.1595c0,-0.4077 0.073,-0.7952 0.221,-1.1595c0.147,-0.3643 0.353,-0.6853 0.623,-0.9571c0.267,-0.2747 0.586,-0.4916 0.952,-0.6506c0.366,-0.159 0.769,-0.24 1.213,-0.24c0.444,0 0.847,0.0781 1.212,0.2371c0.366,0.1562 0.679,0.373 0.943,0.6419c0.262,0.2718 0.468,0.5899 0.616,0.9543c0.147,0.3643 0.22,0.7518 0.22,1.1595c0,0.4077 -0.073,0.7952 -0.22,1.1595zm-0.981,-1.9431c-0.096,-0.2516 -0.229,-0.4714 -0.401,-0.6593c-0.171,-0.188 -0.377,-0.3383 -0.618,-0.4482c-0.24,-0.1099 -0.501,-0.1648 -0.786,-0.1648c-0.284,0 -0.545,0.0549 -0.783,0.1619c-0.238,0.107 -0.441,0.2545 -0.609,0.4395c-0.169,0.1851 -0.302,0.4048 -0.398,0.6535c-0.096,0.2516 -0.142,0.5176 -0.142,0.801c0,0.2833 0.046,0.5494 0.142,0.8009c0.096,0.2516 0.229,0.4714 0.4,0.6593c0.172,0.188 0.378,0.3383 0.618,0.4482c0.241,0.1099 0.502,0.1648 0.787,0.1648c0.284,0 0.545,-0.0549 0.783,-0.1619c0.238,-0.107 0.441,-0.2545 0.609,-0.4395c0.169,-0.1851 0.302,-0.4048 0.398,-0.6535c0.096,-0.2516 0.142,-0.5176 0.142,-0.801c0,-0.2834 -0.046,-0.5494 -0.142,-0.8009z"/>
  <path id="svg_36" fill="#3975B7" d="m204.778,42l-1.451,-2.0927l-1.299,0l0,2.0927l-1.028,0l0,-6l2.625,0c0.337,0 0.641,0.0448 0.912,0.1315c0.271,0.0897 0.504,0.2153 0.691,0.3767c0.188,0.1615 0.334,0.3618 0.432,0.6009c0.102,0.2362 0.152,0.5023 0.152,0.7922c0,0.2512 -0.035,0.4754 -0.104,0.6727c-0.072,0.1973 -0.167,0.3707 -0.289,0.5232c-0.122,0.1524 -0.271,0.281 -0.441,0.3856c-0.17,0.1046 -0.361,0.1883 -0.569,0.2452l1.591,2.272l-1.222,0zm-0.336,-4.7952c-0.215,-0.1704 -0.516,-0.2541 -0.903,-0.2541l-1.511,0l0,2.0239l1.52,0c0.372,0 0.667,-0.0927 0.888,-0.275c0.22,-0.1824 0.327,-0.4305 0.327,-0.7415c0,-0.3318 -0.107,-0.5829 -0.321,-0.7533z"/>
  <path id="svg_37" fill="#3975B7" d="m209.954,42l-0.911,0l0,-2.3647l-2.043,-3.6353l1.067,0l1.442,2.6577l1.455,-2.6577l1.036,0l-2.043,3.6084l0,2.3916l-0.003,0z"/>
 </g>
</svg>
