<svg xmlns="http://www.w3.org/2000/svg" viewBox="0 0 3084.44 1050.24"><defs><style>.cls-2{fill:#231f20}.cls-4{fill:#0079c1}</style></defs><g style="isolation:isolate"><g id="Layer_1" data-name="Layer 1"><path class="cls-2" d="M1502.14 619.34c0-9.64-.69-9.93-5.88-11.18l-1.68-.43c-1-.67-.83-3.05.32-3.5 3.75.3 8.1.45 12.56.45h19.45a129.17 129.17 0 0 0 13.42-.45c.13 1.69.3 8.27.7 14.28a2.16 2.16 0 0 1-3.63.28 20.23 20.23 0 0 0-2.5-6.72c-2.39-3.51-8.56-3.33-11.92-3.33h-5.44c-4.35 0-4.77 0-4.77 4.87v16.24c0 2.5 0 2.78 2.67 2.78h7.56c7.42 0 8.13-1.11 9.25-5.31l.7-2.66c.69-1 2.79-.84 3.48.29-.27 4-.27 6.57-.27 9.78 0 3.5 0 6 .27 10-.69 1.15-2.79 1.29-3.48.29l-.7-2.63c-1.12-4.21-1.83-5.33-9.25-5.33h-7.54c-2.67 0-2.67.41-2.67 3.21v10.35c0 9.66.57 10.64 6.58 11.18l4.33.42c1 .72.86 3.1-.26 3.52-7-.28-11.61-.42-16-.42s-8.81.14-14.25.42c-1.12-.42-1.27-2.8-.29-3.52l2.67-.42c6-1 6.55-1.52 6.55-11.18ZM1615.19 634.73c0 18.88-14.27 32.59-34 32.59-21.69 0-34.54-14.11-34.54-31.75 0-18.6 14.25-32.87 34.54-32.87 22.52 0 34 14.96 34 32.03Zm-56.11-1.41c0 14.43 6.6 30 22.82 30 10.62 0 20.84-7.3 20.84-26.46 0-14.94-7.15-30.06-22.52-30.06-10.09-.04-21.14 6.81-21.14 26.52ZM1631.72 621c0-9.1-.13-11.46-3.34-11.89l-3.94-.58c-1.12-.12-1.38-3.06 0-3.47 7.68-.56 15.55-.86 23.21-.86 13 0 27.15 2.11 27.15 16.8 0 8.94-7 13-12.46 15a1.71 1.71 0 0 0 0 2.08c7 11.76 13.16 18.6 17.77 22.38a12.68 12.68 0 0 0 7.41 2.95 1.69 1.69 0 0 1 0 2.23 19.79 19.79 0 0 1-5.88.7c-8.37 0-13.42-2.64-19.58-10.49-3.47-4.48-7.25-10.62-10.21-15.12-1.11-1.68-3.34-2.24-5.6-2.24-3.63 0-3.9.3-3.9 2.24v9.94c0 9.66.56 10.35 6.57 11.18l3.23.42c1 .72.85 3.1-.3 3.52-5.85-.28-10.48-.42-14.82-.42s-8.8.14-13.71.42c-1.41-.42-1.53-2.95-.26-3.52l2.07-.42c6-1.24 6.59-1.52 6.59-11.18Zm10.63 10.19c0 3.51.15 3.51 7 3.51 9.09 0 13.87-3.63 13.87-13.29 0-7-4.91-13.14-14.69-13.14-5.19 0-6.16.26-6.16 3.91ZM1766.73 652.76c0-6.43-.13-7.26-6.43-8.4l-4.48-.82a2.37 2.37 0 0 1 .13-3.48c5.59.26 11.76.41 15.8.41s8.55-.15 11.92-.41a2.47 2.47 0 0 1 .42 3.48l-2.54.56c-3.64.84-4.19 1.69-4.19 7.71v3.91c0 3.35.3 5.44 2.24 6.42a1.27 1.27 0 0 1-.16 2c-1.53 0-4.45.84-8.36 1.53a75.25 75.25 0 0 1-14 1.68c-12.47 0-22.68-2.94-30.1-10.33a30.54 30.54 0 0 1-8.64-21.27 31.18 31.18 0 0 1 8.78-22c6.45-6.56 15.95-11 30.91-11 7.7 0 14.56 2 18.76 2.8.13 2.8.42 8.39 1.26 15.81a2.23 2.23 0 0 1-3.64.13c-3.64-11-9.65-14.68-19.86-14.68-14.69 0-23.77 11.34-23.77 27.7 0 17.21 10.61 28.82 27.54 28.82 7.41 0 8.39-1.43 8.39-7ZM1797 619.34c0-9.64-.67-9.93-6.54-11.18l-2-.43c-1-.67-.85-3.05.25-3.5 4.78.3 9.1.45 13.59.45s8.78-.15 14.28-.45c1.1.45 1.23 2.83.25 3.5l-2.66.43c-6 1-6.56 1.54-6.56 11.18v19.71c0 14 4.61 23.49 18.18 23.49 12.56 0 18-9.49 18-23.34v-13c0-14-.81-17.22-6.82-18.05l-3-.43a2.36 2.36 0 0 1 .29-3.5c4.48.3 7.69.45 11.74.45s7.15-.15 11.6-.45a2.37 2.37 0 0 1 .15 3.5l-4.19.43c-3.65.4-4.74 4.21-4.74 18.05v13.85c0 17.89-8.27 27.26-26 27.26-8.94 0-15.66-1.81-19.89-5.87-4.16-4.21-6-10.63-6-19.73ZM1871.71 619.34c0-9.64-.56-10.2-6.58-11.18l-2.67-.43c-1-.67-.83-3.05.28-3.5 5.45.3 9.8.45 14.28.45s8.81-.15 13.42-.45c1.11.45 1.25 2.83.29 3.5l-1.84.43c-5.87 1.41-6.54 1.54-6.54 11.18v30.08c0 4.33.27 8.24 1.52 9.65 1.27 1.26 3.49 2.24 10.77 2.24 8.53 0 13.7-.45 17.75-11.61 1-1 3.24-.71 3.66.55-.72 5.89-2.67 12.88-4.2 15.54-8.83-.28-16.21-.42-23.37-.42H1877c-4.48 0-8.83.14-14.28.42-1.11-.42-1.24-2.8-.28-3.52l2.67-.42c6-1 6.58-1.52 6.58-11.18ZM1927.26 619.34c0-9.64-.7-9.93-5.88-11.18l-1.69-.43c-1-.67-.81-3.05.29-3.5 3.78.3 8.1.45 12.59.45H1952a128.67 128.67 0 0 0 13.41-.45c.16 1.69.3 8.27.72 14.28a2.18 2.18 0 0 1-3.65.28 19.16 19.16 0 0 0-2.5-6.72c-2.39-3.51-8.53-3.33-11.89-3.33h-5.45c-4.36 0-4.77 0-4.77 4.87v16.24c0 2.5 0 2.78 2.67 2.78h7.55c7.41 0 8.09-1.11 9.21-5.31l.73-2.66a2.31 2.31 0 0 1 3.47.29c-.25 4-.25 6.57-.25 9.78 0 3.5 0 6 .25 10a2.29 2.29 0 0 1-3.47.29l-.73-2.63c-1.12-4.21-1.8-5.33-9.21-5.33h-7.55c-2.67 0-2.67.41-2.67 3.21v10.35c0 9.66.56 10.64 6.58 11.18l4.32.42c1 .72.85 3.1-.25 3.52-7-.28-11.61-.42-16-.42s-8.81.14-14.26.42c-1.14-.42-1.25-2.8-.3-3.52l2.67-.42c6-1 6.58-1.52 6.58-11.18ZM2071.78 634.73c0 18.88-14.28 32.59-34 32.59-21.68 0-34.53-14.11-34.53-31.75 0-18.6 14.24-32.87 34.53-32.87 22.52 0 34 14.96 34 32.03Zm-56.09-1.41c0 14.43 6.58 30 22.79 30 10.63 0 20.84-7.3 20.84-26.46 0-14.94-7.13-30.06-22.52-30.06-10.08-.04-21.11 6.81-21.11 26.52ZM2088.31 619.34c0-9.64-.71-9.93-5.87-11.18l-1.67-.43c-1-.67-.85-3.05.29-3.5 3.74.3 8.1.45 12.55.45h19.45a130 130 0 0 0 13.45-.45c.11 1.69.25 8.27.67 14.28a2.13 2.13 0 0 1-3.6.28c-.87-3.65-1.68-5.44-2.55-6.72-2.38-3.51-8.53-3.33-11.89-3.33h-5.45c-4.33 0-4.73 0-4.73 4.87v16.24c0 2.5 0 2.78 2.64 2.78h7.54c7.41 0 8.1-1.11 9.24-5.31l.71-2.66a2.31 2.31 0 0 1 3.47.29c-.26 4-.26 6.57-.26 9.78 0 3.5 0 6 .26 10a2.29 2.29 0 0 1-3.47.29l-.71-2.63c-1.14-4.21-1.83-5.33-9.24-5.33h-7.54c-2.64 0-2.64.41-2.64 3.21v10.35c0 9.66.55 10.64 6.55 11.18l4.36.42c1 .72.82 3.1-.3 3.52-7-.28-11.61-.42-16-.42s-8.81.14-14.24.42c-1.11-.42-1.26-2.8-.29-3.52l2.64-.42c6-1 6.59-1.52 6.59-11.18ZM2201.37 640.73c1 1.84 4.45 8.12 5 8.56.54-.3 3.09-4.76 5.71-9.8l7-13.44c6.73-12.84 7.41-15.23 9.65-21.82 3.08.3 5.88.45 8.11.45 3.38 0 7.44-.15 11.47-.45 1.27.45 1.4 2.83.45 3.5l-3.08.43c-6.46.83-6.72 3.5-6.72 11.75 0 14.82 0 26.72.71 35.1.26 3.06.26 6.44 4.61 6.84l4 .42c1 .57 1 3-.13 3.52-5.05-.28-10.48-.42-14-.42-4.05 0-8.39.14-12.31.42-1-.69-1.11-2.95-.13-3.52l3.06-.42c4.47-.54 4.47-1.69 4.47-7.25v-32.32c0-1.67 0-3.77-.41-4-.4 0-4.06 7-6 10.61l-8.53 16.1c-1.15 2.09-8.42 16.66-10 21.11a2.2 2.2 0 0 1-2.63 0c-1.57-5-5.89-14-8.27-18.59l-9.1-17.61c-1.54-3.09-4.48-10.51-5.59-10.92-.56.69-.72 10.06-.83 14-.14 5.58-.29 11.45-.29 18.32 0 7.14.15 10.22 4.08 10.62l4.6.42c.95.57.83 3-.15 3.52-3.63-.28-7.68-.42-11.49-.42-3 0-7.25.14-11.57.42a2.34 2.34 0 0 1 0-3.52l2.93-.42c4.6-.69 5-2.1 5.71-7 1.16-7.54 2-30.06 2-39.56 0-4.48-1.53-6.56-6.29-7.14l-3.33-.43c-.87-.67-1-2.93.25-3.5 3.78.3 7 .45 10.77.45a91.15 91.15 0 0 0 10.21-.45c0 6.17 2.52 10.66 7.28 19.88ZM2264.62 619.34c0-9.64-.55-10.08-5.88-11.18l-1.95-.43c-1-.54-.83-2.93.25-3.5 4.08.3 8.41.45 13 .45h19.86c6.15 0 11.76-.15 13-.45.13 1.69.84 8.27 1.56 14.28-.58 1.11-2.8 1.26-3.65.28a19.44 19.44 0 0 0-2.53-6.72c-2.23-3.33-8.54-3.33-11.89-3.33h-6.14c-4.88 0-5 .12-5 4.47v15.51c0 2.5 0 2.8 2.66 2.8h6.56c7.43 0 8.1-1.12 9.23-5.31l.71-2.68a2.33 2.33 0 0 1 3.47.29c-.25 4.06-.25 6.58-.25 9.8 0 3.49 0 6 .25 10.07-.66 1.09-2.78 1.25-3.47.26l-.71-2.64c-1.13-4.2-1.8-5.31-9.23-5.31h-6.56c-2.66 0-2.66.41-2.66 3.2v10.09c0 4.19.28 8.53 1.53 10.05s3.77 2 11.76 2c8.94 0 14.12-.45 18.18-11.61 1-1 3.21-.71 3.63.55-.71 5.89-2.67 12.88-4.19 15.54-8.81-.28-16.22-.42-23.77-.42h-12.31c-4.48 0-8.81.14-15.54.42-1.1-.42-1.24-2.8-.27-3.52l3.76-.42c6-.69 6.59-1.52 6.59-11.18Z" transform="translate(93.56 93.44)"/><path class="cls-2" d="M2335.84 638.93c2-2.65 2-3.06.13-5.44l-14.41-19.18c-3.06-4.06-4.06-4.9-8.68-5.87l-3.35-.71c-1-.54-1-2.93.3-3.5 5.16.3 8.81.45 12.72.45 5.19 0 9.51-.15 12.3-.45 1.28.45 1.54 2.83.3 3.5l-2.11.43c-2.66.58-2.93 1.82-.82 4.61l6.42 8.67c2.37 3.22 3.62 5 5.19 6.85 1.41-1.83 2.76-3.63 5-6.85l6.87-9.65c1.38-2 1.1-3-1.85-3.63l-2.23-.43a2 2 0 0 1 0-3.5c4.91.3 8.25.45 11.46.45s6-.15 10.49-.45a2.13 2.13 0 0 1 .12 3.5l-4.29.71c-4.07.7-6.57 3.22-9.12 6.45L2348.85 629c-2.1 2.65-2.26 3-.41 5.47l15.1 20.4c3.22 4.48 6.56 6.3 9.1 6.74l5 .67c1 .57 1 3-.12 3.52-5.07-.28-10.37-.42-14.14-.42-4.19 0-9.37.14-13.55.42-1.28-.42-1.57-2.95-.45-3.52l2.38-.42c3.79-.69 4.07-1 1.54-4.46l-6.85-9.51a77 77 0 0 0-5.59-7.41 83.81 83.81 0 0 0-5.45 7.41l-7 10.07c-1.68 2.38-.69 3.36 2.36 3.9l2.1.42c1.14.72 1 3.1-.27 3.52-4.34-.28-9.1-.42-12.45-.42-3.63 0-7.29.14-11.45.42a2.17 2.17 0 0 1-.29-3.52l4.34-.42c5-.4 8.1-3.63 10.75-7Z" transform="translate(93.56 93.44)"/><path class="cls-2" d="M2387.48 619.34c0-9.64-.55-10.2-6.58-11.18l-2.68-.43c-.95-.67-.81-3.05.3-3.5 5.46.3 9.79.45 14.26.45s8.82-.15 14.29-.45c1.12.45 1.27 2.83.25 3.5l-2.65.43c-6 1-6.57 1.54-6.57 11.18v31.33c0 9.66.57 10.19 6.57 11.18l2.65.42c1 .72.87 3.1-.25 3.52-5.35-.28-9.93-.42-14.29-.42s-8.8.14-14.26.42c-1.11-.42-1.25-2.8-.3-3.52l2.68-.42c6-1 6.58-1.52 6.58-11.18ZM2472.79 605.37a126.67 126.67 0 0 0 1.28 15.37 2.35 2.35 0 0 1-3.62.29c-2.11-7.68-6.88-14.27-19.47-14.27-12 0-23.9 8.13-23.9 27.14 0 18.73 12 29.38 25.17 29.38s18.61-10.52 20.14-14.14a2.16 2.16 0 0 1 3.64.15c-.69 6.15-3 12.56-4.6 15.09-4.07.72-9.25 2.94-18.89 2.94-8.84 0-17.49-1.53-24.65-6.46a29.64 29.64 0 0 1-13.26-24.86c0-11.34 4.75-19.73 11.74-25.18s16.5-8.12 27.28-8.12c9.1 0 18.05 2.67 19.14 2.67ZM2548.91 634.73c0 18.88-14.26 32.59-34 32.59-21.67 0-34.55-14.11-34.55-31.75 0-18.6 14.28-32.87 34.55-32.87 22.55 0 34 14.96 34 32.03Zm-56.06-1.41c0 14.43 6.58 30 22.8 30 10.62 0 20.83-7.3 20.83-26.46 0-14.94-7.11-30.06-22.52-30.06-10.07-.04-21.11 6.81-21.11 26.52ZM2603.38 636.82c-6.7-3.5-12.43-8.94-12.43-16.78 0-10.21 7.81-17.34 21.94-17.34 4.89 0 8.26 1.24 13 2.1 1.08 2.39 2.09 7.7 1.94 13.71-.41 1.11-2.92 1.26-3.62.28-1.14-4.9-4.77-12-13-12s-11.33 4.75-11.33 9.51c0 5 3.78 8.1 9.39 11.05l8.68 4.48c5 2.52 11.31 8.39 11.31 17.78 0 10.88-8.93 17.74-22.8 17.74-8.51 0-14.12-2.94-16.06-4.33-1.26-2-3-7-3-14.42a2.13 2.13 0 0 1 3.62-.26c1.12 5 7.29 15 16.67 15 7.11 0 11.73-3.66 11.73-10.07 0-4.5-1.82-9.11-9.79-13.15ZM2658.76 612.37c0-3.63-.12-3.63-2.92-3.63h-4.34c-8.51 0-12.15.83-15.5 10.47a2.44 2.44 0 0 1-3.51-.7c1.54-6 3.09-13 3.79-16.51a2.11 2.11 0 0 1 2.53 0c.12 2.8 2.08 2.68 7.68 2.68h38.89c5.15 0 6.14-.15 7.26-2.68a1.83 1.83 0 0 1 2.5.42c-1.1 3.64-1.65 11.05-1.4 16.37-.54 1.12-2.93 1.25-3.48.14-1-9.1-4.61-10.19-13-10.19h-4.74c-2.67 0-3.07 0-3.07 3.63v38.3c0 9.66.55 10.49 6.56 11.18l3.76.42c1 .72.85 3.1-.29 3.52-5.72-.28-11-.42-15.36-.42-4.48 0-9.52.14-15.39.42-1.13-.42-1.28-2.8-.29-3.52l3.78-.42c6-.69 6.55-1.52 6.55-11.18ZM2706.52 619.34c0-9.64-.7-9.93-6.58-11.18l-1.94-.43c-1-.67-.86-3.05.26-3.5 4.78.3 9.09.45 13.57.45s8.82-.15 14.26-.45c1.14.45 1.25 2.83.27 3.5l-2.65.43c-6 1-6.57 1.54-6.57 11.18v19.71c0 14 4.61 23.49 18.2 23.49 12.59 0 18-9.49 18-23.34v-13c0-14-.82-17.22-6.84-18.05l-2.95-.43a2.38 2.38 0 0 1 .28-3.5c4.5.3 7.7.45 11.75.45s7.14-.15 11.63-.45a2.41 2.41 0 0 1 .13 3.5l-4.19.43c-3.65.4-4.76 4.21-4.76 18.05v13.85c0 17.89-8.25 27.26-26 27.26-9 0-15.68-1.81-19.88-5.87-4.21-4.21-6-10.63-6-19.73ZM2781.22 621c0-9.1-.14-11.46-3.34-11.89l-4.2-.58c-1.28-.4-1.13-3.06.15-3.47 7.83-.56 15.66-.86 27-.86a64.64 64.64 0 0 1 21.24 3.09c12.73 4.34 19.32 14.56 19.32 27.41 0 11.06-5.76 21.25-16.93 27-6.3 3.23-14.15 4.33-21.13 4.33-6.31 0-12.57-.68-16.8-.68-4.45 0-8.78.14-14.25.42-1.12-.42-1.25-2.8-.28-3.52l2.67-.42c6-1 6.55-1.52 6.55-11.18Zm10.65 27.54c0 9 1.39 13.45 12 13.45 16.77 0 25-10.5 25-27.56 0-17.23-12-26.16-27.82-26.16-4.61 0-7.29.56-8.41 1.53-.82.57-.82 2.38-.82 5.47ZM2857.92 619.34c0-9.64-.59-10.2-6.6-11.18l-2.63-.43c-1-.67-.84-3.05.28-3.5 5.43.3 9.78.45 14.24.45s8.81-.15 14.28-.45c1.12.45 1.27 2.83.28 3.5l-2.67.43c-6 1-6.55 1.54-6.55 11.18v31.33c0 9.66.54 10.19 6.55 11.18l2.67.42c1 .72.84 3.1-.28 3.52-5.31-.28-9.92-.42-14.28-.42s-8.81.14-14.24.42c-1.12-.42-1.27-2.8-.28-3.52l2.63-.42c6-1 6.6-1.52 6.6-11.18ZM2894.46 619.34c0-9.64-.58-10.08-5.89-11.18l-2-.43c-1-.54-.84-2.93.27-3.5q6.09.45 13 .45h19.87c6.16 0 11.76-.15 13-.45.12 1.69.84 8.27 1.52 14.28-.55 1.11-2.78 1.26-3.63.28a19.19 19.19 0 0 0-2.54-6.72c-2.21-3.33-8.52-3.33-11.85-3.33h-6.16c-4.92 0-5 .12-5 4.47v15.51c0 2.5 0 2.8 2.66 2.8h6.54c7.45 0 8.12-1.12 9.28-5.31l.68-2.68a2.33 2.33 0 0 1 3.47.29c-.26 4.06-.26 6.58-.26 9.8 0 3.49 0 6 .26 10.07-.67 1.09-2.79 1.25-3.47.26l-.68-2.64c-1.16-4.2-1.83-5.31-9.28-5.31h-6.54c-2.66 0-2.66.41-2.66 3.2v10.09c0 4.19.27 8.53 1.52 10.05s3.78 2 11.77 2c8.93 0 14.12-.45 18.18-11.61 1-1 3.23-.71 3.63.55-.7 5.89-2.67 12.88-4.2 15.54-8.82-.28-16.22-.42-23.79-.42h-12.3c-4.5 0-8.81.14-15.51.42-1.13-.42-1.28-2.8-.26-3.52l3.74-.42c6-.69 6.61-1.52 6.61-11.18ZM2960.08 636.82c-6.76-3.5-12.48-8.94-12.48-16.78 0-10.21 7.83-17.34 22-17.34 4.92 0 8.29 1.24 13 2.1 1.11 2.39 2.09 7.7 1.94 13.71-.42 1.11-2.93 1.26-3.63.28-1.12-4.9-4.74-12-13-12s-11.32 4.75-11.32 9.51c0 5 3.79 8.1 9.36 11.05l8.66 4.48c5 2.52 11.36 8.39 11.36 17.78 0 10.88-9 17.74-22.82 17.74-8.53 0-14.13-2.94-16.06-4.33-1.27-2-3-7-3-14.42a2.13 2.13 0 0 1 3.62-.26c1.15 5 7.28 15 16.66 15 7.13 0 11.77-3.66 11.77-10.07 0-4.5-1.84-9.11-9.8-13.15ZM1579.79 293.14c-18.8 0-19.58.8-19.58 12.55v55.19c0 41.14 2 46.6 23.89 49l11.34 1.17c2.36 1.57 1.58 8.63-.76 9.79-21.16-.79-34.47-1.16-49.75-1.16-16.82 0-30.14.77-45.43 1.16-2.33-1.16-3.1-7.44-.77-9.79l6.65-1.17c21.94-3.92 22.73-7.82 22.73-49v-141c0-41.12-2.75-47.78-23.12-49.34l-10.18-.78c-2.35-1.56-1.58-8.63.78-9.8 19.2.39 32.52 1.17 49.34 1.17 15.28 0 28.59-.37 45.44-1.17 2.35 1.17 3.14 8.24.76 9.8l-7.43.78c-22.71 2.35-23.49 8.22-23.49 49.34v45c0 12.14.78 12.51 19.58 12.51h112c18.8 0 19.59-.37 19.59-12.51v-45c0-41.12-.79-47-23.91-49.34l-7.44-.78c-2.35-1.56-1.55-8.63.8-9.8 18 .8 31.3 1.17 47.37 1.17 15.26 0 28.58-.37 46.2-1.17 2.36 1.17 3.16 8.24.8 9.8l-8.24.78c-22.7 2.35-23.5 8.22-23.5 49.34v141c0 41.14.8 46.23 23.5 49l9.4 1.17c2.37 1.57 1.58 8.63-.78 9.79-18.8-.79-32.12-1.16-47.38-1.16-16.07 0-30.16.37-47.37 1.16-2.35-1.16-3.15-7.44-.8-9.79l7.44-1.17c23.91-3.92 23.91-7.82 23.91-49v-55.19c0-11.75-.79-12.55-19.59-12.55ZM2011.76 328.79c-2.72-8.63-4.29-9.78-16-9.78h-59.12c-9.77 0-12.13 1.15-14.87 9.37L1908 369.51c-5.88 17.6-8.63 28.21-8.63 32.51 0 4.69 2 7 11.39 7.82l12.9 1.17c2.75 2 2.75 8.24-.77 9.79-10.19-.79-22.32-.79-40.74-1.16-12.92 0-27 .77-37.59 1.16-2.34-1.55-3.1-7.82-.79-9.79l12.93-1.17c9.39-.78 18-5.09 23.5-19.18 7-18 18-43.48 34.48-87.34l39.91-105.72c5.5-14.11 7.85-21.54 6.67-27.8 9.39-2.75 16.07-9.8 20.36-14.88 2.35 0 5.1.78 5.88 3.53 5.1 17.23 11.35 35.23 17.23 52.47l53.65 157.4c11.35 33.7 16.43 39.56 33.29 41.52l10.55 1.17c2.74 2 2 8.24 0 9.79-16-.79-29.74-1.16-47.36-1.16-18.81 0-33.67.77-45.05 1.16-3.1-1.55-3.5-7.82-.77-9.79l11.36-1.17c8.22-.78 13.68-3.13 13.68-7 0-4.31-1.94-11.37-5.08-20.78Zm-77.54-34.85c-3.1 9-2.73 9.38 8.26 9.38h48.15c11.35 0 12.13-1.55 8.61-12.14l-21.15-63.82c-3.14-9.4-6.62-20-9-24.67h-.8c-1.16 2-5.08 11.35-9.41 23.1ZM2205.27 220.32c0-37.21-1.18-43.86-17.23-45.83l-12.55-1.56c-2.72-2-2.72-8.22.43-9.8 21.92-2 48.93-3.13 87.3-3.13 24.28 0 47.38 2 65.38 11.76 18.8 9.79 32.51 27.42 32.51 54.81 0 37.21-29.36 57.58-49 65.4-1.94 2.35 0 6.27 2 9.4 31.34 50.51 52.09 81.85 78.7 104.16a47 47 0 0 0 27.06 11c1.93.77 2.31 3.91.38 5.48-3.53 1.17-9.82 2-17.24 2-33.28 0-53.26-9.8-81.06-49.36-10.17-14.5-26.24-41.51-38.37-59.14-5.89-8.61-12.16-12.52-27.8-12.52-17.63 0-18.43.38-18.43 8.61v49.33c0 41.14.8 45.83 23.5 49l8.24 1.17c2.33 2 1.55 8.63-.78 9.79-17.64-.79-31-1.16-46.62-1.16-16.43 0-30.54.37-48.93 1.16-2.35-1.16-3.13-7-.8-9.79l9.8-1.17c22.71-2.73 23.5-7.82 23.5-49Zm32.09 56c0 7.05 0 11.36 1.19 12.93 1.17 1.18 7.06 1.95 27 1.95 14.1 0 29-1.55 40.35-10.18 10.53-8.2 19.55-21.92 19.55-48.56 0-30.92-19.17-60.3-62.65-60.3-24.28 0-25.47 1.58-25.47 12.52ZM2593 360.88c0 41.14.79 47 23.47 49L2629 411c2.34 1.57 1.54 8.63-.78 9.79-22.34-.79-35.64-1.16-51.32-1.16s-29.37.37-54.42 1.16c-2.33-1.16-3.13-7.82 0-9.79l14.1-1.17c22.33-2 24.27-7.82 24.27-49v-175c0-12.12 0-12.53-11.75-12.53h-21.52c-16.84 0-38.4.79-48.19 9.8-9.38 8.61-13.29 17.23-17.62 27-3.11 2.36-8.59.39-10.15-2.74 6.25-17.62 12.13-42.68 14.87-58.35 1.17-.78 6.28-1.19 7.45 0 2.3 12.54 15.24 12.13 33.28 12.13h158.58c21.15 0 24.67-.78 30.52-10.94 2-.8 6.31-.41 7.08 1.17-4.29 16-7.08 47.78-5.88 59.52-1.58 3.12-8.22 3.12-10.18.78-1.16-9.8-3.92-24.28-9.8-28.59-9-6.65-23.88-9.8-45.41-9.8h-27.8c-11.75 0-11.36.41-11.36 13.33ZM2816.22 219.92c0-40.72-.79-46.61-23.89-49.34l-6.24-.78c-2.36-1.56-1.58-8.63.77-9.8 16.82.8 30.18 1.17 46.21 1.17h73.63c25.05 0 48.15 0 52.84-1.17 2.37 6.67 4.7 34.86 6.27 52.08-1.57 2.36-7.83 3.13-9.78.79-5.89-18.41-9.38-32.11-29.78-37.19-8.2-2-20.76-2.37-38-2.37h-28.19c-11.74 0-11.74.79-11.74 15.68v78.3c0 11 1.19 11 12.94 11H2884c16.45 0 28.58-.8 33.26-2.35s7.47-3.91 9.42-13.71l3.15-16.06c1.95-2.33 8.61-2.33 10.19.41 0 9.39-1.58 24.66-1.58 39.54 0 14.09 1.58 29 1.58 37.59-1.58 2.75-8.24 2.75-10.19.39l-3.55-15.27c-1.55-7-4.3-12.92-12.13-14.87-5.48-1.58-14.87-2-30.15-2h-22.69c-11.75 0-12.94.39-12.94 10.58v55.21c0 20.75 1.19 34.08 7.43 40.73 4.7 4.68 12.93 9 47.38 9 30.14 0 41.52-1.56 50.12-5.88 7.09-3.88 17.62-17.61 27.81-38 2.75-2 8.25-.78 9.8 2.75-2.75 13.68-12.55 43.84-17.61 54.41-35.26-.79-70.12-1.16-105-1.16h-35.23c-16.85 0-30.14.37-53.26 1.16-2.35-1.16-3.14-7.44-.76-9.79l12.89-1.17c22.34-2 24.28-7.82 24.28-49ZM1508.34 497.64c0-12.93-.21-16.3-4.77-16.9l-5.57-.8c-1.58-.2-2-4.37 0-5 10.94-.81 22.07-1.19 33-1.19 18.52 0 38.59 3 38.59 23.85 0 12.73-9.95 18.51-17.7 21.3-.8.8-.6 2 0 3 9.95 16.7 18.7 26.43 25.27 31.8a17.8 17.8 0 0 0 10.51 4.19 2.36 2.36 0 0 1 0 3.15 27.15 27.15 0 0 1-8.35 1c-11.91 0-19.06-3.77-27.82-14.92-5-6.36-10.36-15.09-14.51-21.46-1.6-2.38-4.79-3.18-7.94-3.18-5.2 0-5.58.39-5.58 3.18v14.14c0 13.73.78 14.71 9.32 15.91l4.59.59c1.38 1 1.19 4.37-.39 5-8.37-.39-14.92-.61-21.08-.61-6.37 0-12.51.22-19.49.61-2-.61-2.2-4.17-.41-5l3-.59c8.54-1.79 9.32-2.18 9.32-15.91Zm15.13 14.52c0 5 .18 5 10 5 12.9 0 19.65-5.15 19.65-18.88 0-9.93-7-18.67-20.87-18.67-7.36 0-8.73.37-8.73 5.55Z" transform="translate(93.56 93.44)"/><path class="cls-2" d="M1598 495.26c0-13.74-.77-14.32-8.35-15.91l-2.79-.59c-1.36-.8-1.19-4.18.43-5 5.76.38 11.91.59 18.48.59h28.25c8.73 0 16.69-.21 18.49-.59.19 2.38 1.19 11.73 2.19 20.28-.82 1.59-4 1.78-5.2.4-1.17-5.17-2.36-7.75-3.55-9.55-3.2-4.78-12.14-4.78-16.91-4.78h-8.76c-7 0-7.16.23-7.16 6.38v22.07c0 3.57 0 4 3.8 4h9.32c10.54 0 11.53-1.58 13.14-7.54l1-3.79c1-1.4 4-1.2 5 .42-.39 5.75-.39 9.33-.39 13.91 0 5 0 8.55.39 14.34-1 1.55-3.95 1.74-5 .36l-1-3.77c-1.61-6-2.6-7.54-13.14-7.54H1617c-3.8 0-3.8.56-3.8 4.56v14.31c0 6 .41 12.14 2.2 14.32 1.78 2 5.36 2.79 16.7 2.79 12.73 0 20.08-.59 25.85-16.53 1.39-1.39 4.56-1 5.17.81-1 8.37-3.78 18.29-6 22.08-12.54-.39-23.06-.61-33.82-.61h-17.5c-6.37 0-12.52.22-22.1.61-1.55-.61-1.75-4-.35-5l5.35-.59c8.56-1 9.33-2.18 9.33-15.91ZM1691.34 520.12c-9.55-5-17.7-12.73-17.7-23.87 0-14.5 11.15-24.64 31.21-24.64 7 0 11.74 1.77 18.51 3 1.58 3.38 3 10.94 2.78 19.49-.61 1.59-4.18 1.78-5.17.4-1.6-7-6.76-17.11-18.5-17.11s-16.11 6.78-16.11 13.53c0 7.14 5.38 11.52 13.34 15.71L1712 513c7.19 3.59 16.12 11.93 16.12 25.26 0 15.5-12.73 25.23-32.4 25.23-12.13 0-20.09-4.16-22.89-6.15-1.79-2.79-4.18-9.94-4.18-20.47.82-2 3.8-2.21 5.2-.39 1.57 7.14 10.34 21.26 23.65 21.26 10.13 0 16.71-5.16 16.71-14.31 0-6.39-2.59-12.94-13.94-18.7ZM1751.59 495.26c0-13.74-.8-14.32-8.36-15.91l-2.75-.59c-1.4-.8-1.21-4.18.4-5 5.75.38 11.91.59 18.5.59h28.21c8.76 0 16.7-.21 18.5-.59.2 2.38 1.18 11.73 2.18 20.28-.79 1.59-4 1.78-5.16.4-1.2-5.17-2.38-7.75-3.58-9.55-3.18-4.78-12.12-4.78-16.92-4.78h-8.76c-6.94 0-7.15.23-7.15 6.38v22.07c0 3.57 0 4 3.78 4h9.36c10.55 0 11.53-1.58 13.14-7.54l1-3.79c1-1.4 4-1.2 5 .42-.39 5.75-.39 9.33-.39 13.91 0 5 0 8.55.39 14.34-1 1.55-4 1.74-5 .36l-1-3.77c-1.61-6-2.59-7.54-13.14-7.54h-9.36c-3.78 0-3.78.56-3.78 4.56v14.31c0 6 .42 12.14 2.21 14.32 1.78 2 5.37 2.79 16.69 2.79 12.74 0 20.09-.59 25.84-16.53 1.4-1.39 4.59-1 5.2.81-1 8.37-3.8 18.29-6 22.08-12.51-.39-23.05-.61-33.81-.61h-17.45c-6.39 0-12.54.22-22.1.61-1.59-.61-1.78-4-.4-5l5.37-.59c8.54-1 9.34-2.18 9.34-15.91Z" transform="translate(93.56 93.44)"/><path class="cls-2" d="M1847.29 529.89c-4.6 0-5.17.17-6.77 4.73l-4.59 12.74c-2.18 6.36-1.58 7.15 2.2 8l5.37 1c1.6 1 1.4 4.59-.59 5-5-.39-10.16-.61-15.71-.61s-10.34.39-13.91.61c-1.82-.79-1.82-4-.42-5l4.58-1c6.17-1.4 8.35-3.57 12.33-13.13l19.11-45.74c3.37-8.14 4.76-12.93 5.14-16.71 3.59-1.4 7.36-5.16 8.35-7.54 1.58-.59 2.78-.2 3.19 1 .81 2 4 12.33 8.56 24.45l17.87 47.5c2.38 6.56 4.17 9.14 11.33 10.52l3.17.59c1.81 1 1.41 4.59-.57 5-5.21-.39-9.76-.61-16.53-.61-7.12 0-12.9.22-17.9.61-2-.61-2.16-4.17-.37-5l4-.59c5.17-.79 5-2 2.61-8.14l-4.79-13c-1.58-4.56-2.2-4.73-6.77-4.73Zm15.71-6.39c5.18 0 5.78-.39 3.58-6.16l-6.14-16.93a37.45 37.45 0 0 0-3-7.13h-.4a48.18 48.18 0 0 0-3.17 6.74l-7.15 17.72c-2.17 5.37-1.78 5.76 2.59 5.76Z" transform="translate(93.56 93.44)"/><path class="cls-2" d="M1921.67 497.64c0-12.93-.21-16.3-4.79-16.9l-5.56-.8c-1.58-.2-2-4.37 0-5 10.94-.81 22.09-1.19 33-1.19 18.52 0 38.6 3 38.6 23.85 0 12.73-10 18.51-17.7 21.3-.81.8-.61 2 0 3 9.94 16.7 18.67 26.43 25.26 31.8a17.82 17.82 0 0 0 10.51 4.19 2.34 2.34 0 0 1 0 3.15 27.12 27.12 0 0 1-8.34 1c-12 0-19.07-3.77-27.83-14.92-5-6.36-10.33-15.09-14.53-21.46-1.57-2.38-4.77-3.18-7.91-3.18-5.21 0-5.59.39-5.59 3.18v14.14c0 13.73.78 14.71 9.32 15.91l4.6.59c1.37 1 1.18 4.37-.42 5-8.35-.39-14.9-.61-21-.61-6.38 0-12.56.22-19.5.61-2-.61-2.2-4.17-.42-5l3-.59c8.58-1.79 9.37-2.18 9.37-15.91Zm15.12 14.52c0 5 .18 5 10 5 12.89 0 19.64-5.15 19.64-18.88 0-9.93-7-18.67-20.87-18.67-7.35 0-8.73.37-8.73 5.55ZM2080.38 475.37a179.82 179.82 0 0 0 1.79 21.89c-.81 1.57-3.78 2-5.18.38-3-10.92-9.75-20.28-27.65-20.28-17.1 0-34 11.55-34 38.59 0 26.63 17.1 41.75 35.8 41.75s26.43-14.92 28.64-20.08a3.06 3.06 0 0 1 5.15.19c-1 8.75-4.17 17.9-6.55 21.48-5.78 1-13.12 4.16-26.85 4.16-12.54 0-24.87-2.17-35-9.12-10.73-7.37-18.87-19.51-18.87-35.39 0-16.14 6.74-28.05 16.69-35.8 9.76-7.57 23.45-11.53 38.76-11.53 12.94 0 25.66 3.76 27.27 3.76ZM2162.94 512.55c6.34 0 7.15 0 7.15-5.16v-12.13c0-13.74-.81-14.52-9.34-15.91l-3.78-.59c-1.4-1-1.19-4.38.38-5 7.75.38 13.92.59 20.3.59s12.5-.21 20.29-.59c1.58.59 1.78 4 .38 5l-3.78.59c-8.56 1.39-9.33 2.17-9.33 15.91v44.54c0 13.73.77 14.71 9.33 15.91l4.58.59c1.37 1 1.2 4.37-.42 5-8.33-.39-14.89-.61-21-.61-6.38 0-12.55.22-20.3.61-1.57-.61-1.78-4-.38-5l3.78-.59c8.53-1.38 9.34-2.18 9.34-15.91v-15.7c0-5-.4-5.16-7.15-5.16h-35c-6.77 0-7.15.19-7.15 5.16v15.7c0 13.73.81 14.92 9.35 15.91l5.37.59c1.38 1 1.2 4.37-.39 5-9.14-.39-15.73-.61-21.88-.61-6.36 0-12.53.22-18.69.61-1.61-.61-1.78-4-.41-5l2.2-.59c8.34-2.18 9.32-2.18 9.32-15.91v-44.54c0-13.74-.78-14.72-9.32-15.91l-4.6-.59c-1.37-1-1.19-4.38.42-5 8.55.38 14.72.59 21.08.59s12.52-.21 19.47-.59c1.6.59 1.78 4 .42 5l-3 .59c-8.37 1.59-9.35 2.17-9.35 15.91v12.13c0 5.16.81 5.16 7.15 5.16ZM2266.77 495.26c0-13.74-.82-14.52-9.32-15.91l-3.79-.59c-1.4-1-1.22-4.38.39-5 7.74.38 13.92.59 20.28.59s12.52-.21 20.28-.59c1.58.59 1.77 4 .39 5l-3.76.59c-8.56 1.39-9.34 2.17-9.34 15.91v44.54c0 13.73.78 14.53 9.34 15.91l3.76.59c1.38 1 1.19 4.37-.39 5-7.55-.39-14.11-.61-20.28-.61-6.36 0-12.54.22-20.28.61-1.61-.61-1.79-4-.39-5l3.79-.59c8.5-1.38 9.32-2.18 9.32-15.91ZM2387.08 505c0-19.89-1.19-25.07-8.54-25.66l-6.37-.59a3.32 3.32 0 0 1 .4-5c7.37.38 11.95.59 17.71.59s10.13-.21 16.51-.59c1.57 1 1.57 4 .2 5l-6 .59c-5.17.59-6.77 6-6.77 25.66v33.38c0 4 0 20.11.6 23.09a3.89 3.89 0 0 1-4.18 1.79c-2.18-2.78-6.14-7-18.49-20.28L2342 510.77c-7.57-8-12.71-13.13-15.31-15.32-.82 0-.82 2.19-.82 8.36v26.25c0 19.89 1.19 25.05 8.56 25.65l6.38.59c1.59 1.19 1.19 4-.42 5-7.34-.39-11.92-.61-17.7-.61s-9.52.22-16.49.61c-1.58-.79-1.58-4-.21-5l6-.59c5.14-.6 6.75-6 6.75-25.65v-35.59c0-6.57-.21-9.35-4.2-12.33-1.57-1.2-5.36-2.4-7.32-2.79l-3-.59c-1.4-1.2-1.4-4.18.4-5 7.56.59 12.92.59 17.09.59a52 52 0 0 0 7.95-.59c4 7.55 11.33 16.11 19.48 24.45l18.71 19.3c4.36 4.38 15.89 16.9 18.08 18.47 1.19-.37 1.19-3.18 1.19-7.94ZM2438 520.12c-9.53-5-17.7-12.73-17.7-23.87 0-14.5 11.12-24.64 31.22-24.64 6.94 0 11.75 1.77 18.47 3 1.61 3.38 3 10.94 2.81 19.49-.6 1.59-4.18 1.78-5.19.4-1.58-7-6.73-17.11-18.47-17.11s-16.11 6.78-16.11 13.53c0 7.14 5.36 11.52 13.31 15.71l12.32 6.36c7.15 3.59 16.13 11.93 16.13 25.26 0 15.5-12.72 25.23-32.42 25.23-12.14 0-20.09-4.16-22.87-6.15-1.8-2.79-4.16-9.94-4.16-20.47.79-2 3.76-2.21 5.16-.39 1.58 7.14 10.35 21.26 23.66 21.26 10.13 0 16.72-5.16 16.72-14.31 0-6.39-2.6-12.94-13.95-18.7ZM2516.79 485.33c0-5.19-.21-5.19-4.17-5.19h-6.18c-12.14 0-17.3 1.2-22.06 14.91-2 1.2-4.17.61-5-1 2.18-8.55 4.39-18.5 5.36-23.47a3 3 0 0 1 3.59 0c.21 4 3 3.78 10.94 3.78h55.28c7.36 0 8.75-.21 10.33-3.78a2.68 2.68 0 0 1 3.6.59c-1.6 5.18-2.4 15.73-2 23.28-.81 1.59-4.21 1.78-5 .19-1.39-12.91-6.59-14.52-18.51-14.52h-6.76c-3.77 0-4.37 0-4.37 5.19v54.49c0 13.73.8 14.92 9.35 15.91l5.36.59c1.41 1 1.18 4.37-.39 5-8.15-.39-15.73-.61-21.89-.61-6.34 0-13.53.22-21.87.61-1.58-.61-1.78-4-.39-5l5.37-.59c8.54-1 9.35-2.18 9.35-15.91ZM2586.41 495.26c0-13.74-.78-14.52-9.35-15.91l-3.76-.59c-1.4-1-1.21-4.38.39-5 7.74.38 13.91.59 20.26.59s12.54-.21 20.31-.59c1.57.59 1.78 4 .38 5l-3.78.59c-8.53 1.39-9.35 2.17-9.35 15.91v44.54c0 13.73.82 14.53 9.35 15.91l3.78.59c1.4 1 1.19 4.37-.38 5-7.56-.39-14.12-.61-20.31-.61-6.35 0-12.52.22-20.26.61-1.6-.61-1.79-4-.39-5l3.76-.59c8.57-1.38 9.35-2.18 9.35-15.91ZM2656.82 485.33c0-5.19-.2-5.19-4.19-5.19h-6.17c-12.12 0-17.29 1.2-22 14.91-2 1.2-4.2.61-5-1 2.18-8.55 4.38-18.5 5.36-23.47a2.94 2.94 0 0 1 3.58 0c.22 4 3 3.78 10.93 3.78h55.27c7.35 0 8.76-.21 10.37-3.78a2.65 2.65 0 0 1 3.57.59c-1.59 5.18-2.38 15.73-2 23.28-.78 1.59-4.17 1.78-4.94.19-1.4-12.91-6.6-14.52-18.5-14.52h-6.8c-3.75 0-4.39 0-4.39 5.19v54.49c0 13.73.82 14.92 9.4 15.91l5.36.59c1.4 1 1.18 4.37-.41 5-8.15-.39-15.71-.61-21.88-.61-6.33 0-13.51.22-21.86.61-1.61-.61-1.78-4-.39-5l5.37-.59c8.54-1 9.34-2.18 9.34-15.91ZM2724.63 495.26c0-13.74-1-14.12-9.33-15.91l-2.79-.59c-1.38-1-1.21-4.38.41-5 6.76.38 12.9.59 19.28.59s12.54-.21 20.29-.59c1.57.59 1.79 4 .42 5l-3.82.59c-8.56 1.39-9.32 2.17-9.32 15.91v28c0 19.88 6.54 33.4 25.84 33.4 17.92 0 25.63-13.52 25.63-33.21V505c0-19.89-1.17-24.47-9.71-25.66l-4.21-.59a3.35 3.35 0 0 1 .43-5c6.34.38 10.89.59 16.67.59s10.16-.21 16.52-.59c1.61 1 1.61 4 .21 5l-6 .59c-5.18.59-6.76 6-6.76 25.66v19.68c0 25.46-11.73 38.76-37 38.76-12.73 0-22.26-2.56-28.24-8.34-6-6-8.56-15.11-8.56-28ZM2849.36 485.33c0-5.19-.2-5.19-4.17-5.19H2839c-12.12 0-17.31 1.2-22.07 14.91-2 1.2-4.17.61-5-1 2.19-8.55 4.38-18.5 5.38-23.47a2.91 2.91 0 0 1 3.56 0c.22 4 3 3.78 11 3.78h55.27c7.35 0 8.76-.21 10.34-3.78a2.67 2.67 0 0 1 3.59.59c-1.61 5.18-2.39 15.73-2 23.28-.81 1.59-4.17 1.78-5 .19-1.41-12.91-6.56-14.52-18.51-14.52h-6.76c-3.76 0-4.39 0-4.39 5.19v54.49c0 13.73.82 14.92 9.36 15.91l5.36.59c1.41 1 1.19 4.37-.38 5-8.16-.39-15.71-.61-21.87-.61-6.37 0-13.54.22-21.87.61-1.6-.61-1.8-4-.39-5l5.35-.59c8.53-1 9.35-2.18 9.35-15.91ZM2919 495.26c0-13.74-.8-14.32-8.33-15.91l-2.81-.59c-1.37-.8-1.18-4.18.41-5 5.76.38 11.91.59 18.51.59H2955c8.77 0 16.73-.21 18.52-.59.2 2.38 1.19 11.73 2.16 20.28-.76 1.59-4 1.78-5.14.4-1.19-5.17-2.4-7.75-3.62-9.55-3.15-4.78-12.08-4.78-16.88-4.78h-8.75c-6.95 0-7.16.23-7.16 6.38v22.07c0 3.57 0 4 3.78 4h9.36c10.54 0 11.53-1.58 13.14-7.54l1-3.79c1-1.4 4-1.2 5 .42-.38 5.75-.38 9.33-.38 13.91 0 5 0 8.55.38 14.34-1 1.55-4 1.74-5 .36l-1-3.77c-1.61-6-2.6-7.54-13.14-7.54h-9.36c-3.78 0-3.78.56-3.78 4.56v14.31c0 6 .41 12.14 2.19 14.32 1.79 2 5.38 2.79 16.7 2.79 12.74 0 20.1-.59 25.86-16.53 1.39-1.39 4.59-1 5.18.81-1 8.37-3.79 18.29-6 22.08-12.52-.39-23.08-.61-33.79-.61h-17.49c-6.37 0-12.55.22-22.07.61-1.62-.61-1.83-4-.42-5l5.37-.59c8.54-1 9.34-2.18 9.34-15.91ZM623.73 294.7c0-13.22-1.17-13.47-7-14.45l-2.15-.39c-.85-.89-.75-3 .26-3.49 5 .25 10.6.38 16.09.38s11.2-.13 16.69-.38c1 .5 1.14 2.6.29 3.49l-2.78.39c-5.85.75-7 1.23-7 14.45v28.5c0 17.22 5.26 31.67 22.56 31.67 16.32 0 23.06-12.33 23.06-31.29V308c0-9.36-.13-20.94-2.36-24.55-1.17-1.86-3.13-2.74-6.24-3.22l-2.51-.39c-1.09-.89-1-3.11.26-3.49 4.25.25 9 .38 13.83.38 5.23 0 8.61-.13 13.21-.38a2.42 2.42 0 0 1 .26 3.49l-2.74.63c-2.38.51-4.61 1-5.5 3-1.7 3.74-1.7 14.71-1.7 24.55v14.84c0 11.32-1.79 21.8-8.27 28.76s-15.77 9.38-24.4 9.38c-11.71 0-19.92-2.48-25.67-8-5.6-5.34-8.19-14.06-8.19-26.65ZM785.79 337.78c0 3.76 0 19.09.36 22a4.82 4.82 0 0 1-4.24 1.75c-2-2.63-5.63-6.85-14.59-17.08l-29.12-33.33c-8-9.21-12.13-13.8-14.25-15.69-.34 0-.34 1.36-.34 8v24.31c0 9.33.13 20.8 2.25 24.53 1.09 1.89 3.21 2.75 6.33 3.14l2.74.34c1.14.88 1 3.26-.26 3.62-4.58-.23-9.43-.36-14.2-.36-5.23 0-8.57.13-12.93.36a2.55 2.55 0 0 1-.28-3.62l2.75-.6c2.38-.48 4.58-.87 5.49-2.88 1.63-3.84 1.63-14.69 1.63-24.53v-29.56c0-9.72.14-11.71-4.12-15.32-1.37-1.13-4.86-2.13-6.6-2.51l-1.87-.38c-.88-.74-.75-3.22.49-3.6 4.77.5 11.58.38 14.69.38 2.63 0 5.6-.13 8.61-.38 2.1 5.36 15.69 21.05 20.07 25.8l12.44 13.44c5.26 5.75 16.84 18.95 18.06 19.68.38-.35.38-1 .38-3V308c0-9.36-.1-20.81-2.35-24.55-1.11-1.86-3.11-2.74-6.25-3.12l-2.85-.38c-1.14-.87-1-3.22.22-3.6 4.89.25 9.5.38 14.35.38 5.36 0 8.6-.13 13.11-.38a2.6 2.6 0 0 1 .23 3.6l-2.87.63c-2.39.5-4.49.88-5.37 2.87-1.71 3.86-1.71 14.71-1.71 24.55ZM829 341.05c0 13.2 1.12 13.59 7 14.33l2.71.34c.86.88.76 3.14-.22 3.62-5.53-.23-11.09-.36-16.59-.36s-11.35.13-16.81.36c-1-.48-1.14-2.74-.27-3.62l2.76-.34c5.85-.74 7-1.13 7-14.33V294.7c0-13.22-1.11-13.6-7-14.35l-2.78-.35c-.87-.87-.74-3.1.27-3.6q8.19.38 16.81.38c5.5 0 11.06-.13 16.59-.38 1 .5 1.08 2.73.22 3.6l-2.71.38c-5.88.75-7 1.13-7 14.35ZM899.8 328.08c-5.14 11.34-10.86 25.91-13 32.26-.24.39-1.24.63-2.1.63a4.55 4.55 0 0 1-2.36-.63 164 164 0 0 0-5.73-16.28l-21.81-52.5c-3.49-8.31-4.63-10.08-9.58-11.07l-3-.63c-.88-.89-.88-3.11.36-3.49 4.87.25 10.26.38 15.08.38 5.59 0 9.85-.13 16.45-.38a2.34 2.34 0 0 1 .14 3.6l-3.11.76c-2.78.63-3.76 1.25-3.76 2.26s1 3.86 6.12 16.56l9 22.17c2.23 5.62 5.6 13 6.84 15.83 6.71-15.7 14.2-32.89 20.81-49.86 2-5 1.6-6-2.13-6.85l-3.62-.87c-.86-1-.73-3 .25-3.6 5.14.25 9.36.38 13.35.38 4.48 0 8.57-.13 12.07-.38 1 .63.88 2.6.26 3.6l-3.11.63c-2.87.63-5.62 1.5-7.75 5.1-3.47 6-7 14.34-12.69 26.94Z" transform="translate(93.56 93.44)"/><path class="cls-2" d="M939.74 294.7c0-13.22-1.09-13.7-7-14.45l-2-.28c-.85-.87-.73-3.1.26-3.6 4.74.25 10.6.38 16.06.38h23.84c8 0 15.18-.13 16.79-.38.52 2.12 1.27 12 2 17.3-.49 1-3 1.27-4 .53-2-7.25-3.86-10.24-7.85-11.34a41.73 41.73 0 0 0-10-1.13h-8.34c-5.36 0-5.36.25-5.36 7.35v21.06c0 3.24.13 3.36 3 3.36h6c10.85 0 12.71-.12 13.83-5.48l.88-4.23c1-.87 3.34-.87 4 .11-.13 3.36-.39 7.86-.39 12.46s.26 9.1.39 13.11c-.65.85-3 .85-4 .1l-.88-5c-.88-5.22-3-5.47-13.83-5.47h-6c-2.85 0-3 .25-3 3.37v15.81c0 6.37.23 10.84 2.12 13 1.48 1.73 3.63 2.62 14.07 2.73 15.83.14 18.58-3.36 22.93-13.44a3 3 0 0 1 4 .73c-.76 5.24-3.5 14.71-5.24 18.06-5.5-.23-16.2-.36-30.76-.36h-14.19c-5.46 0-13.05.13-18.65.36-1-.48-1.14-2.74-.26-3.62l4.62-.46c5.87-.62 7-1 7-14.21ZM1012.08 295.43c0-12-.13-13.45-6-14.07l-3.29-.36c-.86-.88-.86-2.87.13-3.52 7.85-.73 18.47-1.11 28.68-1.11 9.72 0 18.19 1.24 23.65 4.23 6.38 3.36 11 9.21 11 18.19 0 11.47-8.86 17.2-15 19.7-.73.37-.5 1.35 0 2.12 10 16.81 16.21 27.4 22 32.25a16.18 16.18 0 0 0 8.6 3.89 2.31 2.31 0 0 1 .29 2.49 35.77 35.77 0 0 1-8.26.74c-12 0-18.43-4.86-26-16.45-3.37-5.24-6.84-12.06-9.83-17-2.25-3.71-3.62-4.24-7.74-4.24-3.76 0-3.83.15-3.83 2.76v16c0 13.2 1.11 13.59 7 14.33l2.75.34c.86.88.72 3.14-.23 3.62-5.55-.23-11.12-.36-16.61-.36s-11.09.13-16.79.36a2.39 2.39 0 0 1-.26-3.62l2.73-.34c5.85-.74 7-1.13 7-14.33Zm14.46 17.95c0 4 0 4.25 6 4.25 12.22 0 17.82-6 17.82-17.83 0-9.84-6.35-18.44-17.2-18.44-6.51 0-6.58.37-6.58 6.1ZM1087.42 355.72c-2.25-2.59-3.88-11.2-3.76-18.91a2.79 2.79 0 0 1 3.89-.5c2.26 6.36 9 19.68 21.17 19.68 9.46 0 14.84-5.72 14.84-13.32 0-7.11-3.36-12.85-12.74-18.09l-5.33-3c-9.36-5.26-17.6-12.85-17.6-24.05 0-12.35 9.25-22.83 27.44-22.83 6.47 0 11.24 1.51 17.07 2.63 1.37 2.75 2.62 11 2.62 16.83-.6 1.12-2.86 1.23-4 .37-1.87-6.49-6.25-14.83-16.82-14.83-9.94 0-14.07 6.46-14.07 13.07 0 5.24 3.61 10.84 11.82 15.21l7.72 4.11c8.11 4.23 17.08 12 17.08 24.56 0 14.19-10.87 24.28-28.92 24.28-11.44.07-17.92-3.72-20.41-5.21ZM1171.24 341.05c0 13.2 1.06 13.59 6.94 14.33l2.72.34c.88.88.75 3.14-.2 3.62-5.5-.23-11.09-.36-16.62-.36s-11.32.13-16.78.36c-1-.48-1.14-2.74-.26-3.62l2.77-.34c5.81-.74 7-1.13 7-14.33V294.7c0-13.22-1.16-13.6-7-14.35L1147 280c-.88-.87-.73-3.1.26-3.6q8.19.38 16.78.38c5.53 0 11.12-.13 16.62-.38 1 .5 1.08 2.73.2 3.6l-2.72.38c-5.88.75-6.94 1.13-6.94 14.35ZM1221.71 287.21c0-5.23-.11-5.48-3.34-5.48h-7c-11.46 0-14.81 1.39-19.44 11.46-.88.76-3.47.37-4-.88a191 191 0 0 0 4.87-18.81 1.63 1.63 0 0 1 1.35-.48 1.54 1.54 0 0 1 1.29.48c.63 3.12 2.37 3.25 10.83 3.25h50.84c6.11 0 8-.38 9.48-3.25a3.35 3.35 0 0 1 1.48-.48 2 2 0 0 1 1.61.61c-1.25 5.12-2.24 15.83-1.84 19.81-.65 1-2.75 1.26-3.86.38-1.63-9.72-4-12.09-17.37-12.09h-7.07c-3.24 0-3.34.25-3.34 5.48v53.84c0 13.2 1.09 13.59 7 14.21l4.47.46c.89.88.78 3.14-.25 3.62-7.2-.23-12.83-.36-18.3-.36s-11.32.13-19.29.36c-1-.48-1.15-3-.29-3.62l5.23-.6c5.91-.77 7-.87 7-14.07ZM1302.65 333.7c0-7-.6-8.87-4-15.48l-14.93-29.51c-2.76-5.37-3.75-6.73-9.35-8l-3.24-.76c-.77-.87-.52-3.22.49-3.6 5.35.25 10.6.38 15.71.38 5.48 0 13.11-.13 16-.38 1 .5 1.21 2.73.25 3.6l-3.75.63c-2 .4-2.62.63-2.62 1.62s.36 2.39 2.23 6.49c4.9 10.7 9.48 20.81 14.46 29.91 5.13-9.47 9.71-18.21 14.56-27.54 2.12-4.23 3.39-7 3.39-8.35s-1.14-1.63-2.87-1.89l-3.74-.87c-.85-.87-.85-3 .39-3.6 5.47.25 9.33.38 13.09.38s7.85-.13 11.81-.38c1.12.63 1.12 2.6.26 3.6l-3.63.76c-5.6 1.12-7.1 3.37-13.57 14.31-4.23 7.13-8 14-11.85 20.95-3.73 6.49-4.58 9.1-4.58 17.57v7.49c0 13.2 1.11 13.59 7.23 14.21l4.71.46c.89.88.73 3.14-.25 3.62-7.73-.23-13.32-.36-18.81-.36-5.7 0-11.35.13-18.06.36-1-.48-1.11-2.74-.26-3.62l4-.46c5.88-.77 7-1 7-14.21ZM639.3 555.66c13.79-10.75 31.33-16 51-16a145.6 145.6 0 0 1 33.39 4.53c2.25.57 3.58 1 5.29.77.18 4.33 1.11 16.2 2.62 27.71-.94 1.35-3.77 1.53-5.06.4-2.85-12.83-11.34-27.55-38.71-27.55-28.86 0-53.4 18.29-53.4 57.34 0 39.66 25.08 61.55 56 61.55 24.33 0 35.11-15.87 39.44-27 1.32-1 4.15-.57 4.9.76-1.3 9.78-6.22 22.26-9 25.85a41.15 41.15 0 0 0-6.6 1.86c-4.15 1.51-17.73 4.36-29.83 4.36-17 0-33.19-3.41-47-12.64-15.11-10.4-26.79-27.55-26.79-51.91-.01-20.98 9.45-38.92 23.75-50.03ZM787.63 606.22c-9.07 0-9.44.39-9.44 6v26.61c0 19.79.94 22.43 11.51 23.56l5.49.59c1.12.74.76 4.16-.38 4.74-10.21-.42-16.62-.58-24-.58-8.08 0-14.5.38-21.87.58-1.14-.58-1.5-3.61-.36-4.74l3.19-.59c10.57-1.85 11-3.77 11-23.56v-67.89c0-19.82-1.32-23-11.13-23.79l-4.93-.34c-1.11-.77-.73-4.18.39-4.74 9.25.2 15.67.56 23.75.56 7.38 0 13.79-.19 21.92-.56 1.14.56 1.51 4 .39 4.74l-3.6.34c-11 1.15-11.33 4-11.33 23.79v21.72c0 5.83.37 6 9.44 6h54c9 0 9.4-.2 9.4-6v-21.72c0-19.82-.36-22.64-11.51-23.79l-3.59-.34c-1.12-.77-.76-4.18.38-4.74 8.68.37 15.11.56 22.85.56 7.36 0 13.76-.19 22.28-.56 1.12.56 1.48 4 .37 4.74l-4 .34c-11 1.15-11.32 4-11.32 23.79v67.94c0 19.79.36 22.25 11.32 23.56l4.51.59c1.14.74.76 4.16-.36 4.74-9.07-.42-15.47-.58-22.83-.58-7.74 0-14.53.16-22.85.58-1.14-.58-1.5-3.61-.38-4.74l3.59-.59C851 660.59 851 658.67 851 638.88v-26.61c0-5.66-.36-6-9.4-6ZM914.84 571.12c0-17.92-.57-21.13-8.31-22.08l-6-.74c-1.32-.94-1.32-3.94.17-4.75 10.58-.92 23.61-1.48 42.08-1.48 11.69 0 22.83.93 31.54 5.66 9 4.71 15.61 13.19 15.61 26.42 0 17.94-14.11 27.73-23.57 31.5-.94 1.16 0 3.05 1 4.55 15.1 24.32 25.08 39.43 37.93 50.19a22.63 22.63 0 0 0 13 5.3 1.56 1.56 0 0 1 .21 2.62 29.45 29.45 0 0 1-8.32.93c-16 0-25.65-4.7-39.07-23.76-4.9-7-12.62-20-18.48-28.5-2.85-4.16-5.85-6-13.42-6-8.5 0-8.86.19-8.86 4.16v23.78c0 19.79.36 22.07 11.32 23.56l4 .59c1.14 1 .75 4.16-.36 4.74-8.5-.42-14.93-.58-22.5-.58-7.9 0-14.71.16-23.54.58-1.17-.58-1.51-3.41-.39-4.74l4.71-.59c11-1.31 11.32-3.77 11.32-23.56Zm15.47 27c0 3.41 0 5.49.6 6.24.51.56 3.36.95 13 .95 6.78 0 14-.76 19.46-4.93 5.1-4 9.42-10.55 9.42-23.37 0-14.92-9.24-29.09-30.2-29.09-11.66 0-12.26.77-12.26 6.05ZM1036.56 571.32c0-20-.38-23.2-11.49-24.17l-4.72-.34c-1.14-.77-.76-4.18.38-4.74 9.44.37 15.83.56 23.76.56 7.57 0 14-.19 23.4-.56 1.14.56 1.5 4 .38 4.74l-4.74.34c-11.11 1-11.47 4.16-11.47 24.17v67.16c0 20 .36 22.65 11.47 24l4.74.59c1.12.74.76 4.16-.38 4.74-9.43-.42-15.83-.58-23.4-.58-7.93 0-14.32.16-23.76.58-1.14-.58-1.52-3.61-.38-4.74l4.72-.59c11.11-1.31 11.49-3.93 11.49-24ZM1118.49 670.2c-15.86 0-25.86-4.9-29.46-7-2.25-4.16-4.69-17.59-5.08-26.43.93-1.32 3.78-1.71 4.53-.57 2.83 9.65 10.57 28.13 32.44 28.13 15.89 0 23.61-10.4 23.61-21.72 0-8.28-1.72-17.55-15.47-26.41l-17.94-11.7c-9.42-6.23-20.38-17-20.38-32.47 0-17.91 14-32.45 38.52-32.45a72.9 72.9 0 0 1 17.52 2.46 26.12 26.12 0 0 0 6.63 1.12c1.66 4.54 3.37 15.11 3.37 23-.73 1.14-3.76 1.73-4.72.55-2.43-9-7.53-21.3-25.67-21.3-18.47 0-22.44 12.28-22.44 20.95 0 10.94 9.07 18.84 16 23.2l15.08 9.43c11.92 7.37 23.6 18.32 23.6 36.23.04 20.78-15.58 34.98-40.14 34.98ZM1237.93 638.88c0 19.79.39 22.64 11.32 23.56l6.06.59c1.11.74.73 4.16-.39 4.74-10.77-.42-17.15-.58-24.71-.58s-14.17.16-26.22.58c-1.14-.58-1.53-3.79 0-4.74l6.76-.59c10.75-.92 11.71-3.77 11.71-23.56v-84.37c0-5.84 0-6-5.65-6h-10.37c-8.13 0-18.52.39-23.23 4.72-4.51 4.15-6.4 8.31-8.5 13-1.51 1.14-4.15.2-4.9-1.31a196.48 196.48 0 0 0 7.18-28.12c.57-.39 3-.59 3.57 0 1.14 6 7.36 5.84 16.07 5.84H1273c10.19 0 11.89-.36 14.69-5.29 1-.4 3.06-.15 3.45.58-2.1 7.75-3.45 23-2.85 28.67-.75 1.52-4 1.52-4.9.38-.59-4.72-1.89-11.69-4.71-13.77-4.36-3.21-11.53-4.72-21.9-4.72h-13.38c-5.63 0-5.47.19-5.47 6.4ZM1317.21 571.32c0-20-.39-23.2-11.51-24.17l-4.71-.34c-1.17-.77-.78-4.18.36-4.74 9.46.37 15.86.56 23.79.56 7.53 0 14-.19 23.39-.56 1.14.56 1.51 4 .39 4.74l-4.71.34c-11.15 1-11.54 4.16-11.54 24.17v67.16c0 20 .39 22.65 11.54 24l4.71.59c1.12.74.75 4.16-.39 4.74-9.42-.42-15.86-.58-23.39-.58-7.93 0-14.33.16-23.79.58-1.14-.58-1.53-3.61-.36-4.74l4.71-.59c11.12-1.31 11.51-3.93 11.51-24ZM651.14 169.61c0-5.75-.13-6-3.68-6h-7.64c-12.57 0-16.22 1.49-21.27 12.54-1 .82-3.83.43-4.38-1 2.34-7.36 4.38-15.8 5.34-20.57.26-.43.8-.57 1.5-.57a1.56 1.56 0 0 1 1.35.57c.67 3.38 2.59 3.56 11.86 3.56h55.69c6.67 0 8.73-.44 10.35-3.56a3.59 3.59 0 0 1 1.67-.57 2.07 2.07 0 0 1 1.75.69c-1.34 5.59-2.46 17.34-2 21.69-.67 1.08-3 1.36-4.22.44-1.79-10.67-4.39-13.26-19-13.26h-7.8c-3.53 0-3.68.25-3.68 6v58.94c0 14.46 1.24 14.87 7.65 15.56l4.91.55c1 1 .81 3.42-.28 4-7.9-.27-14-.42-20-.42s-12.44.15-21.17.42c-1-.54-1.22-3.28-.23-4l5.7-.68c6.42-.81 7.64-1 7.64-15.43ZM721.51 177.79c0-14.44-1.22-15-7.64-15.82l-2.18-.27c-1-1-.83-3.39.28-4 5.16.26 11.59.44 17.57.44h26.1c8.73 0 16.63-.18 18.39-.44.57 2.32 1.4 13.11 2.2 19-.54 1.08-3.29 1.38-4.38.55-2.15-7.92-4.22-11.2-8.6-12.42a45.66 45.66 0 0 0-10.91-1.23h-9.14c-5.86 0-5.86.25-5.86 8v23.06c0 3.54.13 3.68 3.27 3.68h6.55c11.87 0 14-.14 15.15-6l.94-4.66c1.12-1 3.68-1 4.38.13-.13 3.68-.39 8.6-.39 13.63 0 5.18.26 10 .39 14.33-.7 1-3.26 1-4.38.16l-.94-5.48c-.95-5.74-3.28-6-15.15-6h-6.55c-3.14 0-3.27.25-3.27 3.69v17.32c0 6.95.26 11.86 2.33 14.18 1.63 1.93 3.94 2.86 15.42 3 17.31.14 20.34-3.7 25.1-14.74a3.22 3.22 0 0 1 4.36.82c-.83 5.72-3.82 16.1-5.73 19.79-6-.27-17.71-.42-33.68-.42h-15.6c-6 0-14.3.15-20.44.42-1.09-.54-1.22-3-.29-4l5.06-.55c6.42-.69 7.64-1.1 7.64-15.56Z" transform="translate(93.56 93.44)"/><path class="cls-2" d="M784.08 161.7c-1.08-1.09-.8-3.39.42-4 6.14.26 11.45.44 17.74.44 7.23 0 13.24-.18 17-.44 1.24.57 1.24 3 .29 4l-2.53.3c-2.7.28-4.48.83-4.48 1.78s.67 2.6 3.4 6.83c3.41 5.18 12.53 19.08 15.56 22.91 3.27-3.83 14.87-21.16 18-25.79a11 11 0 0 0 1.79-3.54c-.29-.95-2-1.22-4.13-1.78l-3-.68a2.43 2.43 0 0 1 .26-4c5.33.26 9.69.44 14.3.44s8.3-.17 13.3-.43c1.22.68 1.35 2.73.39 4l-3.93.82c-5.47 1.09-7.65 3.14-13.66 10.51-5.31 6.55-11.61 14.59-16.65 22.23-1.52 2.18-2.06 3.42-2.06 4s.44 1.91 2.21 4.63c8.16 11.87 16.63 24.41 22.9 32.63 3.84 5.18 6.84 6.78 12.15 7.62l3.42.55c1 .81 1 3.28-.26 4-6.58-.27-12.41-.42-19.25-.42-6.68 0-12.57.15-19.38.42-1.08-.54-1.5-3.15-.29-4l4.93-.95c1.78-.44 2.87-.82 2.87-1.79s-1-3-4-7.5l-2.33-3.49c-3.37-4.89-7.49-11.45-13.24-19.5-5.57 7.37-13.34 18.67-18.53 27-1.24 1.91-1.78 3-1.78 3.95s1.63 1.37 3.55 1.64l3.55.55c1.09 1 .93 3.54-.29 4-4.61-.27-10.21-.42-15.8-.42-4.64 0-9.14.15-13.52.42a3.1 3.1 0 0 1-.55-4l3.7-.68c5.86-1.09 9-2.86 14.3-9.56 3-3.94 11.75-15.68 18.84-24.83a9.44 9.44 0 0 0 2.05-4c0-.68-.26-1.63-1.5-3.4-6.41-9.15-15.16-22.91-20.34-30.29-4.09-5.88-6.82-8.33-11-9.3Z" transform="translate(93.56 93.44)"/><path class="cls-2" d="M901.37 214.78c-3.55 0-3.42 0-4.64 3.68l-5.59 16.37c-2.72 8.06-2.18 8.34 2.88 9.15l3.93.68c1 1 .86 3.42-.26 4-4.38-.27-8.85-.27-14.48-.42-4.48 0-8.73.15-13.5.42-1-.68-1.11-2.73-.18-4l4.12-.68c4-.71 5.49-1.76 7.54-6.29 1.63-3.54 3.81-9.27 6.66-16.62l18.7-48.59c1.66-4.36 3-7.64 2.59-10 4.77-1 9.31-6.56 9.56-6.56a2.69 2.69 0 0 1 2.31 1.11c2.21 6.14 4 12.54 6.14 18.69l19.64 57.17c3.16 9.12 3.83 10 10.78 11.3l2.07.43c1.06 1 1.06 3.28.13 4-5.6-.27-10.65-.42-17.75-.42-5.86 0-11.87.28-16.63.42-1.15-.68-1.23-3.15-.42-4l3-.43c4.9-.65 5.59-1.48 3.54-7.23l-6.42-18.54c-1.21-3.68-1.73-3.68-5.59-3.68Zm16.4-6.13c3.78 0 4.33-.28 3.24-3.57l-5.73-16.36c-2.46-7.21-3.13-9.83-3.8-10.79h-.29c-.52 1-1.76 4.38-4.06 10.79l-5.76 16c-1.37 4-1.09 4 2.18 4ZM967.75 244.66c-2.44-2.87-4.22-12.28-4.07-20.74a3 3 0 0 1 4.22-.53c2.44 6.93 9.79 21.54 23.2 21.54 10.38 0 16.24-6.28 16.24-14.61 0-7.75-3.71-14.06-13.94-19.78l-5.85-3.28c-10.24-5.73-19.23-14-19.23-26.32 0-13.51 10.08-25 30-25 7.1 0 12.28 1.63 18.69 2.87 1.52 3 2.86 12 2.86 18.43-.66 1.22-3.12 1.36-4.37.4-2-7.08-6.81-16.24-18.4-16.24-10.91 0-15.41 7.1-15.41 14.34 0 5.75 3.94 11.86 12.95 16.67l8.45 4.47c8.89 4.63 18.71 13.1 18.71 26.89 0 15.55-11.9 26.59-31.67 26.59-12.54.02-19.63-4.06-22.38-5.7ZM1089.29 214.78c-3.55 0-3.4 0-4.64 3.68l-5.59 16.37c-2.72 8.06-2.15 8.34 2.89 9.15l3.94.68c1 1 .84 3.42-.28 4-4.38-.27-8.86-.27-14.46-.42-4.48 0-8.73.15-13.5.42-1-.68-1.11-2.73-.18-4l4.13-.68c4-.71 5.43-1.76 7.51-6.29 1.63-3.54 3.81-9.27 6.68-16.62l18.71-48.59c1.63-4.36 3-7.64 2.56-10 4.77-1 9.27-6.56 9.56-6.56a2.62 2.62 0 0 1 2.3 1.11c2.2 6.14 4 12.54 6.17 18.69l19.64 57.17c3.14 9.12 3.81 10 10.78 11.3l2 .43c1.09 1 1.09 3.28.13 4-5.56-.27-10.65-.42-17.74-.42-5.86 0-11.84.28-16.64.42-1.09-.68-1.21-3.15-.38-4l3-.43c4.93-.65 5.61-1.48 3.55-7.23l-6.43-18.5c-1.19-3.68-1.76-3.68-5.57-3.68Zm16.37-6.13c3.84 0 4.38-.28 3.26-3.57l-5.69-16.36c-2.49-7.21-3.14-9.83-3.84-10.79h-.29c-.51 1-1.72 4.38-4.09 10.79l-5.72 16c-1.35 4-1.09 4 2.17 4ZM1194.71 200.84c0 6.7-5 9.44-10 11.62 4.67 2.57 11.06 8.18 15 13.24a49.21 49.21 0 0 0 3.81-6c2.87-5.45 4.39-9.29 4.39-10.65 0-1.08-1-1.78-3.27-2.33l-1.79-.38c-1.23-.84-1-3.55.39-4h8.76c5.72 0 12.27-.13 15.12-.41a2.54 2.54 0 0 1 .14 4l-2.57.42c-4.38.66-6.16 1.63-7.93 3.67-2.43 2.72-7.93 11.58-12.93 18.42-1.27 1.76-1.39 2.31-.31 3.69 3.81 5 7.1 10.64 15.32 10.64a16.65 16.65 0 0 0 9.08-3.15c1.4.29 2.34 1.24 1.8 2.74-2.46 2.72-7.9 7.78-18.69 7.78-7.06 0-12-2.18-13.11-4-.93-1.35-3-4.9-3.83-5.45-4.22 4-10.73 9.42-20.31 9.42-12.39 0-21.4-7-21.4-17.34 0-12.41 11.29-16.92 15.26-18.95-3.14-2.19-6.15-6.29-6.15-10.92 0-10.23 9-15.84 17.34-15.84 10.41.01 15.88 7.11 15.88 13.78Zm-19.48 19c-1.4-.83-2.78-1.94-3.32-1.94-.8 0-6.27 3.54-6.27 11.06 0 7 5.47 13.26 13.94 13.26a17.57 17.57 0 0 0 11.16-4.39c1.12-1.22 1.12-1.65.17-3a53.92 53.92 0 0 0-15.68-14.99Zm4.74-10.53c1.11 0 4.53-3.52 4.53-9.14 0-5.18-2.48-8.45-6.3-8.45-3.41 0-5.88 3.41-5.88 7.38 0 6.12 6.85 10.21 7.68 10.21ZM1350.19 244.66c1.38.54 1.25 3.42-.26 4-5.86-.27-11.19-.42-16.63-.42-6.43 0-12.31.15-18.32.42-1.06-.54-1.61-3.15-.26-4l3.68-.68c5.49-1 5.88-1.93 5.88-11.2V177h-.28c-3.67 7.53-5.59 11.6-8.16 17.07l-11.73 24c-4.67 9.53-11.48 24.68-13.94 31.09-.52.54-2.57.54-3.53 0-2.35-7.37-8.18-20.74-11.32-27.58l-12.15-26.17c-2.61-5.75-6.29-14.35-7.92-18.44h-.25c-.25 6.72-.54 17.35-.82 23.07-.29 8.33-.55 20.47-.55 31.65 0 9 .16 11.06 6 12.15l4.51.82c1 .81 1 3.42-.15 4-5.06-.27-9.25-.42-14.33-.42-4.38 0-9.28.15-14.59.42-1.22-.68-1.22-3.28-.41-4l2.3-.27c6.58-.81 7.52-2.88 8.47-11.19 1-8.59 1.38-17.47 2-31.67.55-9.28 1.37-20.59 1.37-28.92 0-6.41-2-9.14-7.36-10.09l-4.63-.82c-.85-1-.7-3.52.54-4 4.09.26 7.77.44 12.8.44 4.79 0 9.53 0 14.61-.44.55 8.19 4 15.29 7.52 22.65l15 31.53c1.06 2.32 4.61 9.15 6.4 12.27 2.2-4 3.93-7.79 7.09-14.19l12.81-26.2c4.34-9 8.72-17.07 11-26.06 3.69.26 8.19.44 11.17.44 5.76 0 10.52-.18 14.33-.44a2.37 2.37 0 0 1 .44 4l-4.51.68c-6 1-7.38 3.14-7.38 10.37 0 20.18.29 40.39 1.22 60.59.43 9.13 1.94 9.93 6.29 10.64ZM639.15 400.44c14-10.94 31.89-16.31 51.87-16.31a149 149 0 0 1 34.07 4.59c2.28.57 3.63 1 5.36.78.18 4.42 1.14 16.53 2.72 28.26-1 1.33-3.86 1.54-5.23.37-2.85-13.05-11.53-28.06-39.41-28.06-29.41 0-54.38 18.66-54.38 58.45 0 40.34 25.57 62.65 57.1 62.65 24.76 0 35.72-16.13 40.13-27.5 1.35-.95 4.25-.56 5 .78-1.32 10-6.32 22.71-9.19 26.32a40.38 40.38 0 0 0-6.74 1.94c-4.25 1.56-18.06 4.44-30.39 4.44-17.28 0-33.82-3.47-47.85-12.89-15.4-10.58-27.29-28.08-27.29-52.86 0-21.34 9.62-39.6 24.23-50.96ZM749.11 452c0-38.46 28.8-67.84 68.42-67.84 44.41 0 66.72 32.08 66.72 65.92 0 38.81-29.62 67.1-66.72 67.1-42.67-.03-68.42-30.6-68.42-65.18ZM865 456c0-31.69-14-65.92-50.76-65.92-20 0-45.94 13.63-45.94 55.76 0 28.46 13.84 65.34 51.7 65.34 23.1-.01 45-17.32 45-55.18ZM917.72 416.21c0-18.26-.57-21.52-8.45-22.5l-6.19-.76c-1.32-1-1.32-4 .23-4.8 10.76-1 24.05-1.54 42.83-1.54 11.94 0 23.29 1 32.12 5.76 9.24 4.82 15.94 13.48 15.94 26.93 0 18.26-14.38 28.26-24 32.1-.92 1.16 0 3.07 1 4.59 15.36 24.82 25.57 40.2 38.63 51.17a22.94 22.94 0 0 0 13.26 5.35 1.65 1.65 0 0 1 .21 2.71 30.09 30.09 0 0 1-8.47.95c-16.35 0-26.14-4.81-39.79-24.21-5-7.11-12.91-20.37-18.86-29-2.86-4.22-5.94-6.15-13.63-6.15-8.66 0-9 .2-9 4.22v24.24c0 20.17.36 22.48 11.5 24l4.07.61c1.14.92.76 4.22-.41 4.79-8.66-.37-15.16-.57-22.86-.57-8.08 0-15 .2-24 .57-1.17-.57-1.55-3.47-.36-4.79l4.77-.61c11.16-1.31 11.55-3.83 11.55-24Zm15.78 27.49c0 3.44 0 5.57.57 6.35.57.56 3.44 1 13.27 1 6.88 0 14.19-.76 19.79-5 5.18-4 9.61-10.78 9.61-23.84 0-15.2-9.4-29.62-30.76-29.62-11.91 0-12.48.78-12.48 6.15ZM1057.47 485.24c0 20.17.39 22.69 12.7 24l5.18.61c1.17.92.81 4.22-.39 4.79-10.94-.37-17.31-.57-25-.57-8.08 0-15 .2-23.44.57-1.17-.57-1.56-3.65-.36-4.79l4-.61c11.14-1.52 11.53-3.83 11.53-24v-70.95c0-16.34-.39-19.6-9-20.58l-6.92-.76c-1.32-1.14-1.14-4 .42-4.8 10.15-1.35 22.06-1.54 38-1.54s27.9 2.11 36.92 7.68c8.85 5.58 15.39 15.58 15.39 28.83 0 17.71-11 26.54-19.25 30.58a64.82 64.82 0 0 1-26.53 5.78c-1.35-.6-1.35-3.49-.19-3.86 20.76-3.84 28.27-15.57 28.27-32.29 0-18.68-11-30.77-30.93-30.77-10.24 0-10.42.78-10.42 6.94ZM1239 435.43c0-11.91-.39-34-3.65-39.77-1.35-2.32-4.82-3.67-9.61-4.06l-4.8-.36a3.47 3.47 0 0 1 .37-4.63c7.31.38 14.41.58 21.92.58 8 0 13.28-.2 20.18-.58 1.53 1 1.34 3.46.36 4.63l-4.58.36c-4.82.39-8.47 2.11-9.64 4.62-2.67 6.34-2.67 28.46-2.67 39.21v21.72c0 16.75-2.69 34.42-13.45 46-8.26 9-22.48 14-36.7 14-13.28 0-26.54-2.51-36-10.58-10.21-8.46-15-22.49-15-45.36v-45.37c0-20-.39-23.28-11.55-24.24l-4.8-.36c-1.16-.77-.78-4.05.39-4.63 9.59.38 16.15.58 23.81.58 7.88 0 14.23-.2 23.65-.58 1.18.58 1.54 3.86.4 4.63l-4.61.36c-11.14 1-11.56 4.25-11.56 24.24v41.51c0 31 9.64 51.31 39 51.31 27.86 0 38.45-21.89 38.45-51.11ZM1309.13 517.15c-16.12 0-26.33-5-30-7.12-2.28-4.23-4.77-17.87-5.16-26.92 1-1.35 3.84-1.74 4.59-.56 2.9 9.79 10.77 28.62 33.09 28.62 16.14 0 24-10.56 24-22.1 0-8.45-1.73-17.88-15.78-26.89l-18.26-11.93c-9.61-6.35-20.76-17.3-20.76-33.07 0-18.25 14.2-33.05 39.23-33.05a74.13 74.13 0 0 1 17.88 2.48 25.59 25.59 0 0 0 6.71 1.16c1.74 4.6 3.47 15.38 3.47 23.46-.78 1.13-3.86 1.71-4.82.57-2.48-9.24-7.67-21.73-26.14-21.73-18.84 0-22.88 12.49-22.88 21.32 0 11.17 9.22 19.25 16.35 23.67l15.39 9.6c12.1 7.51 24 18.63 24 36.92.07 21.15-15.92 35.57-40.91 35.57Z" transform="translate(93.56 93.44)"/><path class="cls-4" d="m426.44 513.9-26.06-114.45c8.45-13 16.27-21.46 23.28-27l2.78 141.41m-29.79-130.73-29.92-131.41c19-13.67 37.5-20.05 54.08-22.26l2.62 131.2c-7.95 3.28-17 9.97-26.78 22.47Zm-33.11-145.4L338.1 126.09l78.9-93.2L420.68 222a113.73 113.73 0 0 0-57.14 15.73Zm73 339.25-61.92-122.49a188.38 188.38 0 0 1 11-28.46c2.26-4.61 4.45-8.89 6.61-12.86ZM366.7 438.84l-59.46-117.52.61-1.08c14.39-24.52 29.27-42.86 44-56.45L387.66 396c-3.24 5.14-6.56 11-9.9 17.48a219.94 219.94 0 0 0-11.06 25.36Zm-67.48-133.41L257 222l54-109.47 36.77 135.88c-16.41 12.84-32.89 31.21-48.55 57.02Zm162.51 337.62-94.87-109.79a228.3 228.3 0 0 1 2.44-56.11ZM354.26 518.67l-80-92.52a248.55 248.55 0 0 1 21.07-81.64l64.78 116.24a221.2 221.2 0 0 0-5.85 57.92Zm-93.52-108.25L201.64 342l25.88-119.28 59 105.82a272.75 272.75 0 0 0-25.78 81.88Zm244.87 293.21-119.26-84a356.41 356.41 0 0 1-16.3-60.63ZM372.73 610l-82-57.71c-9.86-30.64-16.46-63.18-17.25-96.43l82.8 88.4A306.52 306.52 0 0 0 372.73 610Zm-101.11-71.18-91.2-64.26-3.77-122 81.45 86.95c-1.26 34.6 4.12 68.02 13.52 99.31Zm291.21 213L423 697.77a532.8 532.8 0 0 1-27-53.62ZM415 694.64l-69.49-26.9a559.79 559.79 0 0 1-43.37-84.29l81.06 52.36a466.08 466.08 0 0 0 31.8 58.83Zm-82.45-31.9-140.69-54.5-33.15-117.47L282.94 571c13.76 34.34 31.65 65.38 49.61 91.74ZM539.33 0l-54.75 239.6a131.89 131.89 0 0 0-47.4-16.41l3.11-151.85Zm-54.79 239.91-28.77 125.76a29.62 29.62 0 0 0-21.31-7.56l2.64-129.58a111.49 111.49 0 0 1 47.44 11.38Zm-50.3 126.14c11.88-5.08 19.76-1.3 21.53-.29L432.17 469Zm307.67 417.56c-32.93 43-97.36 37.09-117 36-80.43-4.51-163.4-38.2-256.7-41.91C213.68 771.51 0 825.91 0 825.91s123.07-47 249.6-64.39l-74.86-132.27 176.68 59.55c31 40.41 57.74 64.53 57.74 64.53s-21.67-23.14-47.71-61.15l66.93 22.56c21.29 30.45 38.89 48.86 38.89 48.86s-14.67-17.8-32.85-46.84L627.88 782s44.7 16.21 114.03 1.61Z" transform="translate(93.56 93.44)"/><path class="cls-4" d="M1509.59 239.71h19.43v520.18h-19.43z"/></g></g></svg>