<?xml version="1.0" encoding="UTF-8"?>
<svg id="Layer_1" data-name="Layer 1" xmlns="http://www.w3.org/2000/svg" xmlns:xlink="http://www.w3.org/1999/xlink" viewBox="0 0 411.23 111.39">
  <defs>
    <style>
      .cls-1 {
        filter: url(#drop-shadow-2);
      }

      .cls-2 {
        fill: #fff;
      }

      .cls-3 {
        fill: #0079c1;
      }

      .cls-4 {
        filter: url(#drop-shadow-3);
      }
    </style>
    <filter id="drop-shadow-2" x="-1.13" y="-3.33" width="112.08" height="121.68" filterUnits="userSpaceOnUse">
      <feOffset dx="2.16" dy="2.16"/>
      <feGaussianBlur result="blur" stdDeviation="4.32"/>
      <feFlood flood-color="#231f20" flood-opacity="0"/>
      <feComposite in2="blur" operator="in"/>
      <feComposite in="SourceGraphic"/>
    </filter>
    <filter id="drop-shadow-3" x="-.97" y="-3.33" width="111.84" height="121.68" filterUnits="userSpaceOnUse">
      <feOffset dx="2.16" dy="2.16"/>
      <feGaussianBlur result="blur-2" stdDeviation="4.32"/>
      <feFlood flood-color="#231f20" flood-opacity="0"/>
      <feComposite in2="blur-2" operator="in"/>
      <feComposite in="SourceGraphic"/>
    </filter>
  </defs>
  <g>
    <g>
      <g>
        <g>
          <path class="cls-2" d="M82,41.61c0-1.53-.13-1.56-.81-1.67l-.25-.04c-.1-.1-.09-.35.03-.4.58.03,1.23.04,1.86.04s1.3-.01,1.93-.04c.12.06.13.3.03.4l-.32.04c-.68.09-.81.14-.81,1.67v3.3c0,1.99.61,3.66,2.61,3.66,1.89,0,2.67-1.43,2.67-3.62v-1.8c0-1.08-.02-2.42-.27-2.84-.14-.21-.36-.32-.72-.37l-.29-.04c-.13-.1-.11-.36.03-.4.49.03,1.04.04,1.6.04.61,0,1-.01,1.53-.04.11.07.14.3.03.4l-.32.07c-.28.06-.53.12-.64.34-.2.43-.2,1.7-.2,2.84v1.72c0,1.31-.21,2.52-.96,3.33-.75.81-1.82,1.08-2.82,1.08-1.35,0-2.3-.29-2.97-.92-.65-.62-.95-1.63-.95-3.08v-3.66Z"/>
          <path class="cls-2" d="M100.75,46.59c0,.44,0,2.21.04,2.54-.11.16-.32.21-.49.2-.23-.3-.65-.79-1.69-1.98l-3.37-3.85c-.92-1.07-1.4-1.6-1.65-1.82-.04,0-.04.16-.04.92v2.81c0,1.08.01,2.41.26,2.84.13.22.37.32.73.36l.32.04c.13.1.11.38-.03.42-.53-.03-1.09-.04-1.64-.04-.61,0-.99.01-1.5.04-.12-.07-.15-.32-.03-.42l.32-.07c.27-.06.53-.1.63-.33.19-.44.19-1.7.19-2.84v-3.42c0-1.12.02-1.35-.48-1.77-.16-.13-.56-.25-.76-.29l-.22-.04c-.1-.09-.09-.37.06-.42.55.06,1.34.04,1.7.04.3,0,.65-.01,1-.04.24.62,1.82,2.44,2.32,2.98l1.44,1.55c.61.67,1.95,2.19,2.09,2.28.04-.04.04-.11.04-.34v-2.81c0-1.08-.01-2.41-.27-2.84-.13-.21-.36-.32-.72-.36l-.33-.04c-.13-.1-.11-.37.02-.42.57.03,1.1.04,1.66.04.62,0,1-.01,1.52-.04.11.07.14.32.03.42l-.33.07c-.28.06-.52.1-.62.33-.2.45-.2,1.7-.2,2.84v3.44Z"/>
          <path class="cls-2" d="M105.75,46.97c0,1.53.13,1.57.81,1.66l.31.04c.1.1.09.36-.03.42-.64-.03-1.28-.04-1.92-.04s-1.31.01-1.94.04c-.12-.06-.13-.32-.03-.42l.32-.04c.68-.09.81-.13.81-1.66v-5.36c0-1.53-.13-1.57-.81-1.66l-.32-.04c-.1-.1-.09-.36.03-.42.63.03,1.28.04,1.94.04s1.28-.01,1.92-.04c.11.06.13.32.03.42l-.31.04c-.68.09-.81.13-.81,1.66v5.36Z"/>
          <path class="cls-2" d="M113.94,45.47c-.59,1.31-1.26,3-1.5,3.73-.03.04-.14.07-.24.07s-.2-.03-.27-.07c-.17-.57-.4-1.28-.66-1.88l-2.52-6.07c-.4-.96-.54-1.17-1.11-1.28l-.35-.07c-.1-.1-.1-.36.04-.4.56.03,1.19.04,1.74.04.65,0,1.14-.01,1.9-.04.13.09.14.32.02.42l-.36.09c-.32.07-.43.14-.43.26,0,.13.11.45.71,1.92l1.04,2.56c.26.65.65,1.5.79,1.83.78-1.82,1.64-3.8,2.41-5.77.23-.57.19-.69-.25-.79l-.42-.1c-.1-.12-.08-.34.03-.42.59.03,1.08.04,1.54.04.52,0,.99-.01,1.4-.04.12.07.1.3.03.42l-.36.07c-.33.07-.65.17-.9.59-.4.69-.81,1.66-1.47,3.12l-.81,1.79Z"/>
          <path class="cls-2" d="M118.56,41.61c0-1.53-.13-1.58-.81-1.67l-.23-.03c-.1-.1-.08-.36.03-.42.55.03,1.23.04,1.86.04h2.76c.92,0,1.76-.01,1.94-.04.06.25.15,1.38.23,2-.06.12-.34.15-.46.06-.23-.84-.45-1.18-.91-1.31-.33-.09-.77-.13-1.15-.13h-.96c-.62,0-.62.03-.62.85v2.44c0,.37.01.39.35.39h.69c1.26,0,1.47-.01,1.6-.63l.1-.49c.12-.1.39-.1.46.01-.01.39-.04.91-.04,1.44s.03,1.05.04,1.52c-.07.1-.35.1-.46.01l-.1-.58c-.1-.6-.34-.63-1.6-.63h-.69c-.33,0-.35.03-.35.39v1.83c0,.74.03,1.25.25,1.5.17.2.42.3,1.63.32,1.83.02,2.15-.39,2.65-1.56.13-.1.37-.06.46.08-.09.61-.4,1.7-.61,2.09-.64-.03-1.87-.04-3.56-.04h-1.65c-.63,0-1.51.01-2.16.04-.12-.06-.13-.32-.03-.42l.53-.05c.68-.07.81-.12.81-1.64v-5.36Z"/>
          <path class="cls-2" d="M126.93,41.69c0-1.38-.01-1.56-.69-1.63l-.38-.04c-.1-.1-.1-.33.01-.41.91-.09,2.14-.13,3.32-.13s2.1.14,2.74.49c.74.39,1.27,1.07,1.27,2.1,0,1.33-1.03,1.99-1.73,2.28-.08.04-.06.16,0,.25,1.15,1.94,1.88,3.17,2.55,3.73.4.35.82.43.99.45.07.05.07.22.03.29-.18.04-.45.09-.96.09-1.38,0-2.13-.56-3.01-1.9-.39-.61-.79-1.4-1.14-1.96-.26-.43-.42-.49-.9-.49-.43,0-.44.02-.44.32v1.85c0,1.53.13,1.57.81,1.66l.32.04c.1.1.08.36-.03.42-.64-.03-1.29-.04-1.92-.04s-1.28.01-1.94.04c-.12-.06-.16-.32-.03-.42l.31-.04c.68-.09.81-.13.81-1.66v-5.28ZM128.6,43.77c0,.46,0,.49.69.49,1.41,0,2.06-.69,2.06-2.06,0-1.14-.73-2.13-1.99-2.13-.75,0-.76.04-.76.71v3Z"/>
          <path class="cls-2" d="M135.64,48.67c-.26-.3-.45-1.29-.43-2.19.09-.14.33-.16.45-.06.26.74,1.04,2.28,2.45,2.28,1.09,0,1.72-.66,1.72-1.54,0-.82-.39-1.49-1.47-2.09l-.62-.34c-1.08-.61-2.04-1.49-2.04-2.78,0-1.43,1.07-2.64,3.17-2.64.75,0,1.3.17,1.98.3.16.32.3,1.27.3,1.95-.07.13-.33.14-.46.04-.22-.75-.72-1.72-1.95-1.72-1.15,0-1.63.75-1.63,1.51,0,.61.42,1.25,1.37,1.76l.89.47c.94.49,1.98,1.38,1.98,2.84,0,1.64-1.26,2.81-3.35,2.81-1.32,0-2.07-.43-2.36-.61Z"/>
          <path class="cls-2" d="M145.34,46.97c0,1.53.12,1.57.8,1.66l.31.04c.1.1.09.36-.02.42-.64-.03-1.28-.04-1.92-.04s-1.31.01-1.94.04c-.11-.06-.13-.32-.03-.42l.32-.04c.67-.09.81-.13.81-1.66v-5.36c0-1.53-.13-1.57-.81-1.66l-.32-.04c-.1-.1-.08-.36.03-.42.63.03,1.28.04,1.94.04s1.29-.01,1.92-.04c.11.06.13.32.02.42l-.31.04c-.68.09-.8.13-.8,1.66v5.36Z"/>
          <path class="cls-2" d="M151.17,40.74c0-.6-.01-.63-.39-.63h-.81c-1.33,0-1.71.16-2.25,1.33-.1.09-.4.04-.47-.1.25-.78.47-1.67.56-2.18.03-.04.09-.06.16-.06.06,0,.12.01.15.06.07.36.27.38,1.25.38h5.88c.71,0,.92-.04,1.1-.38.05-.03.11-.06.17-.06.08,0,.16.03.19.07-.15.59-.26,1.83-.21,2.29-.08.12-.32.15-.45.04-.19-1.12-.46-1.4-2.01-1.4h-.82c-.37,0-.39.03-.39.63v6.23c0,1.53.13,1.57.8,1.64l.52.05c.1.1.09.36-.03.42-.83-.03-1.48-.04-2.12-.04s-1.31.01-2.23.04c-.12-.06-.13-.34-.03-.42l.6-.07c.68-.09.81-.1.81-1.63v-6.23Z"/>
          <path class="cls-2" d="M160.54,46.12c0-.81-.07-1.03-.46-1.79l-1.73-3.41c-.32-.62-.43-.78-1.08-.92l-.37-.09c-.09-.1-.06-.37.06-.42.62.03,1.23.04,1.82.04.63,0,1.52-.01,1.85-.04.12.06.14.32.03.42l-.43.07c-.23.05-.3.07-.3.19s.04.28.26.75c.57,1.24,1.1,2.41,1.67,3.46.59-1.1,1.12-2.11,1.68-3.19.24-.49.39-.81.39-.97,0-.14-.13-.19-.33-.22l-.43-.1c-.1-.1-.1-.34.04-.42.63.03,1.08.04,1.51.04s.91-.01,1.37-.04c.13.07.13.3.03.42l-.42.09c-.65.13-.82.39-1.57,1.66-.49.82-.92,1.61-1.37,2.42-.43.75-.53,1.05-.53,2.03v.87c0,1.53.13,1.57.84,1.64l.55.05c.1.1.08.36-.03.42-.89-.03-1.54-.04-2.18-.04s-1.31.01-2.09.04c-.12-.06-.13-.32-.03-.42l.46-.05c.68-.09.81-.12.81-1.64v-.85Z"/>
        </g>
        <g>
          <path class="cls-2" d="M83.81,71.79c1.59-1.24,3.62-1.86,5.9-1.86,1.17,0,2.83.24,3.86.52.26.07.41.11.61.09.02.5.13,1.88.3,3.21-.11.16-.44.18-.58.05-.33-1.48-1.31-3.19-4.48-3.19-3.34,0-6.18,2.12-6.18,6.63s2.9,7.12,6.48,7.12c2.81,0,4.06-1.84,4.56-3.12.15-.11.48-.07.57.09-.15,1.13-.72,2.58-1.05,2.99-.26.04-.52.13-.76.22-.48.17-2.05.5-3.45.5-1.96,0-3.84-.39-5.43-1.46-1.75-1.2-3.1-3.19-3.1-6,0-2.42,1.09-4.5,2.75-5.78Z"/>
          <path class="cls-2" d="M100.96,77.64c-1.05,0-1.09.04-1.09.7v3.08c0,2.29.11,2.59,1.33,2.73l.63.07c.13.08.09.48-.04.55-1.18-.05-1.92-.07-2.78-.07-.93,0-1.68.04-2.53.07-.13-.07-.17-.42-.04-.55l.37-.07c1.22-.21,1.27-.44,1.27-2.73v-7.86c0-2.29-.15-2.67-1.29-2.75l-.57-.04c-.13-.09-.08-.48.04-.55,1.07.02,1.81.06,2.75.06.85,0,1.6-.02,2.54-.06.13.06.17.46.05.55l-.42.04c-1.27.13-1.31.46-1.31,2.75v2.51c0,.67.04.7,1.09.7h6.25c1.05,0,1.09-.02,1.09-.7v-2.51c0-2.29-.04-2.62-1.33-2.75l-.42-.04c-.13-.09-.09-.48.04-.55,1,.04,1.75.06,2.64.06s1.59-.02,2.58-.06c.13.06.17.46.04.55l-.46.04c-1.27.13-1.31.46-1.31,2.75v7.86c0,2.29.04,2.57,1.31,2.73l.52.07c.13.08.09.48-.04.55-1.05-.05-1.79-.07-2.64-.07-.9,0-1.68.02-2.64.07-.13-.07-.17-.42-.04-.55l.42-.07c1.33-.21,1.33-.44,1.33-2.73v-3.08c0-.65-.04-.7-1.09-.7h-6.25Z"/>
          <path class="cls-2" d="M115.68,73.58c0-2.07-.07-2.44-.96-2.55l-.7-.09c-.15-.11-.15-.46.02-.55,1.22-.11,2.73-.17,4.87-.17,1.35,0,2.64.11,3.65.65,1.04.55,1.81,1.53,1.81,3.06,0,2.08-1.63,3.21-2.73,3.64-.11.13,0,.35.11.53,1.75,2.81,2.9,4.56,4.39,5.81.37.33.92.57,1.5.61.11.04.13.22.02.3-.2.07-.55.11-.96.11-1.85,0-2.97-.54-4.52-2.75-.57-.81-1.46-2.31-2.14-3.3-.33-.48-.68-.7-1.55-.7-.98,0-1.03.02-1.03.48v2.75c0,2.29.04,2.55,1.31,2.73l.46.07c.13.11.09.48-.04.55-.98-.05-1.73-.07-2.6-.07s-1.7.02-2.72.07c-.13-.07-.17-.39-.04-.55l.55-.07c1.27-.15,1.31-.44,1.31-2.73v-7.84ZM117.47,76.7c0,.39,0,.63.07.72.06.06.39.11,1.5.11.79,0,1.62-.09,2.25-.57.59-.46,1.09-1.22,1.09-2.7,0-1.73-1.07-3.36-3.49-3.36-1.35,0-1.42.09-1.42.7v5.11Z"/>
          <path class="cls-2" d="M129.76,73.61c0-2.31-.04-2.68-1.33-2.8l-.55-.04c-.13-.09-.09-.48.04-.55,1.09.04,1.83.06,2.75.06s1.62-.02,2.71-.06c.13.06.17.46.04.55l-.55.04c-1.29.11-1.33.48-1.33,2.8v7.77c0,2.32.04,2.62,1.33,2.77l.55.07c.13.08.09.48-.04.55-1.09-.05-1.83-.07-2.71-.07s-1.66.02-2.75.07c-.13-.07-.18-.42-.04-.55l.55-.07c1.29-.15,1.33-.45,1.33-2.77v-7.77Z"/>
          <path class="cls-2" d="M139.23,85.04c-1.83,0-2.99-.57-3.41-.81-.26-.48-.54-2.03-.59-3.06.11-.15.44-.2.52-.07.33,1.12,1.22,3.25,3.75,3.25,1.84,0,2.73-1.2,2.73-2.51,0-.96-.2-2.03-1.79-3.05l-2.07-1.35c-1.09-.72-2.36-1.96-2.36-3.76,0-2.07,1.62-3.75,4.46-3.75.67,0,1.46.13,2.03.28.29.09.59.13.77.13.19.52.39,1.75.39,2.66-.08.13-.43.2-.55.06-.28-1.04-.87-2.46-2.97-2.46s-2.6,1.42-2.6,2.42c0,1.27,1.05,2.18,1.86,2.68l1.74,1.09c1.38.85,2.73,2.12,2.73,4.19,0,2.4-1.81,4.04-4.65,4.04Z"/>
          <path class="cls-2" d="M153.05,81.42c0,2.29.05,2.62,1.31,2.73l.7.07c.13.08.08.48-.05.55-1.25-.05-1.98-.07-2.86-.07s-1.64.02-3.03.07c-.13-.07-.18-.44,0-.55l.78-.07c1.24-.11,1.35-.44,1.35-2.73v-9.76c0-.68,0-.7-.65-.7h-1.2c-.94,0-2.14.05-2.69.55-.52.48-.74.96-.98,1.51-.17.13-.48.02-.57-.15.35-.98.68-2.38.83-3.25.07-.04.35-.07.41,0,.13.7.85.67,1.86.67h8.84c1.18,0,1.37-.04,1.7-.61.11-.05.35-.02.4.07-.24.9-.4,2.66-.33,3.32-.09.18-.46.18-.57.04-.07-.55-.22-1.35-.55-1.59-.5-.37-1.33-.55-2.53-.55h-1.55c-.65,0-.63.02-.63.74v9.72Z"/>
          <path class="cls-2" d="M162.22,73.61c0-2.31-.05-2.68-1.33-2.8l-.55-.04c-.13-.09-.09-.48.04-.55,1.09.04,1.83.06,2.75.06s1.62-.02,2.71-.06c.13.06.17.46.05.55l-.55.04c-1.29.11-1.33.48-1.33,2.8v7.77c0,2.32.04,2.62,1.33,2.77l.55.07c.13.08.09.48-.05.55-1.09-.05-1.83-.07-2.71-.07-.92,0-1.66.02-2.75.07-.13-.07-.18-.42-.04-.55l.55-.07c1.29-.15,1.33-.45,1.33-2.77v-7.77Z"/>
        </g>
        <g>
          <path class="cls-2" d="M85.18,27.14c0-.66-.01-.69-.43-.69h-.88c-1.45,0-1.88.17-2.46,1.45-.11.09-.44.05-.51-.11.27-.85.51-1.83.62-2.38.03-.05.09-.06.17-.06.06,0,.12.02.16.06.08.39.3.41,1.37.41h6.44c.77,0,1.01-.05,1.2-.41.06-.03.13-.06.19-.06.09,0,.17.03.2.08-.16.65-.28,2.01-.24,2.51-.08.12-.35.16-.49.05-.21-1.23-.51-1.53-2.19-1.53h-.9c-.41,0-.43.03-.43.69v6.82c0,1.67.14,1.72.88,1.8l.57.06c.11.11.09.4-.03.46-.91-.03-1.62-.05-2.32-.05s-1.44.02-2.45.05c-.12-.06-.14-.38-.03-.46l.66-.08c.74-.09.88-.11.88-1.78v-6.82Z"/>
          <path class="cls-2" d="M93.32,28.09c0-1.67-.14-1.73-.88-1.83l-.25-.03c-.11-.11-.1-.39.03-.46.6.03,1.34.05,2.03.05h3.02c1.01,0,1.92-.02,2.13-.05.07.27.16,1.52.25,2.19-.06.12-.38.16-.51.06-.25-.92-.49-1.3-.99-1.44-.36-.09-.83-.14-1.26-.14h-1.06c-.68,0-.68.03-.68.93v2.67c0,.41.01.43.38.43h.76c1.37,0,1.61-.02,1.75-.69l.11-.54c.13-.11.43-.11.51.01-.02.43-.05,1-.05,1.58s.03,1.15.05,1.66c-.08.11-.38.11-.51.02l-.11-.63c-.11-.66-.38-.69-1.75-.69h-.76c-.36,0-.38.03-.38.43v2c0,.8.03,1.37.27,1.64.19.22.46.33,1.78.35,2,.02,2.35-.43,2.9-1.71.14-.11.41-.06.5.1-.1.66-.44,1.86-.66,2.29-.69-.03-2.05-.05-3.9-.05h-1.8c-.69,0-1.65.02-2.36.05-.13-.06-.14-.35-.03-.46l.59-.06c.74-.08.88-.13.88-1.8v-5.87Z"/>
          <path class="cls-2" d="M100.55,26.22c-.13-.13-.09-.39.05-.46.71.03,1.32.05,2.05.05.84,0,1.53-.02,1.97-.05.14.07.14.35.03.46l-.3.03c-.31.03-.52.1-.52.21,0,.12.08.3.39.79.39.6,1.45,2.21,1.8,2.65.38-.44,1.72-2.45,2.08-2.98.13-.19.19-.31.21-.41-.03-.11-.23-.14-.48-.21l-.34-.08c-.14-.11-.14-.36.03-.46.62.03,1.12.05,1.65.05s.96-.02,1.53-.05c.14.08.16.32.05.46l-.46.09c-.63.13-.88.36-1.58,1.22-.61.76-1.34,1.69-1.93,2.57-.17.25-.24.4-.24.46,0,.08.05.22.25.54.94,1.37,1.92,2.82,2.65,3.77.44.6.79.78,1.41.88l.39.06c.11.09.11.38-.03.46-.76-.03-1.44-.05-2.23-.05s-1.45.02-2.24.05c-.13-.06-.17-.36-.03-.46l.57-.11c.21-.05.33-.1.33-.21s-.11-.35-.46-.87l-.27-.39c-.39-.57-.87-1.33-1.53-2.26-.64.85-1.54,2.16-2.14,3.12-.14.22-.21.35-.21.46s.19.16.41.19l.41.06c.13.11.11.41-.03.46-.53-.03-1.18-.05-1.83-.05-.54,0-1.06.02-1.56.05-.14-.11-.14-.33-.06-.46l.43-.08c.68-.13,1.04-.33,1.65-1.11.35-.46,1.36-1.81,2.18-2.87.14-.19.24-.38.24-.46s-.03-.19-.17-.39c-.74-1.06-1.75-2.65-2.35-3.5-.47-.68-.79-.96-1.28-1.08l-.51-.11Z"/>
          <path class="cls-2" d="M114.12,32.36c-.41,0-.4,0-.54.43l-.65,1.89c-.31.93-.25.96.33,1.06l.45.08c.11.11.1.4-.03.46-.51-.03-1.02-.03-1.68-.05-.52,0-1.01.02-1.56.05-.11-.08-.13-.31-.02-.46l.48-.08c.46-.08.63-.2.87-.73.19-.41.44-1.07.77-1.92l2.16-5.62c.19-.5.35-.88.3-1.15.55-.11,1.08-.76,1.11-.76.13,0,.2.05.27.13.25.71.46,1.45.71,2.16l2.27,6.61c.37,1.05.44,1.15,1.25,1.31l.24.05c.12.11.12.38.02.46-.65-.03-1.23-.05-2.05-.05-.68,0-1.37.03-1.92.05-.13-.08-.14-.36-.05-.46l.35-.05c.57-.08.65-.17.41-.84l-.74-2.15c-.14-.43-.2-.43-.65-.43h-2.1ZM116.02,31.65c.44,0,.5-.03.37-.41l-.66-1.89c-.28-.83-.36-1.14-.44-1.25h-.03c-.06.11-.2.51-.47,1.25l-.67,1.85c-.16.46-.13.46.25.46h1.64Z"/>
          <path class="cls-2" d="M121.8,35.82c-.28-.33-.49-1.42-.47-2.4.09-.16.36-.17.49-.06.28.8,1.13,2.49,2.68,2.49,1.2,0,1.88-.73,1.88-1.69,0-.9-.43-1.63-1.61-2.29l-.68-.38c-1.18-.66-2.22-1.62-2.22-3.04,0-1.56,1.17-2.89,3.47-2.89.82,0,1.42.19,2.16.33.18.35.33,1.39.33,2.13-.08.14-.36.16-.51.05-.23-.82-.79-1.88-2.13-1.88-1.26,0-1.78.82-1.78,1.66,0,.67.46,1.37,1.5,1.93l.98.52c1.03.54,2.16,1.52,2.16,3.11,0,1.8-1.38,3.08-3.66,3.08-1.45,0-2.27-.47-2.59-.66Z"/>
          <path class="cls-2" d="M135.86,32.36c-.41,0-.39,0-.54.43l-.65,1.89c-.31.93-.25.96.33,1.06l.46.08c.11.11.1.4-.03.46-.51-.03-1.02-.03-1.67-.05-.52,0-1.01.02-1.56.05-.11-.08-.13-.31-.02-.46l.48-.08c.46-.08.63-.2.87-.73.19-.41.44-1.07.77-1.92l2.16-5.62c.19-.5.35-.88.3-1.15.55-.11,1.07-.76,1.11-.76.13,0,.21.05.27.13.25.71.46,1.45.71,2.16l2.27,6.61c.36,1.05.44,1.15,1.25,1.31l.24.05c.13.11.13.38.02.46-.64-.03-1.23-.05-2.05-.05-.68,0-1.37.03-1.92.05-.13-.08-.14-.36-.04-.46l.34-.05c.57-.08.65-.17.41-.84l-.74-2.15c-.14-.43-.2-.43-.64-.43h-2.1ZM137.75,31.65c.44,0,.51-.03.38-.41l-.66-1.89c-.29-.83-.36-1.14-.44-1.25h-.03c-.06.11-.2.51-.47,1.25l-.66,1.85c-.16.46-.13.46.25.46h1.64Z"/>
          <path class="cls-2" d="M148.05,30.75c0,.77-.58,1.09-1.15,1.34.54.3,1.28.95,1.73,1.53.14-.19.31-.46.44-.7.33-.63.51-1.07.51-1.23,0-.12-.11-.21-.38-.27l-.21-.04c-.14-.1-.11-.41.04-.46h1.01c.66,0,1.42-.02,1.75-.05.14.08.16.36.02.46l-.3.05c-.51.08-.71.19-.92.42-.28.31-.92,1.34-1.5,2.13-.15.2-.16.27-.04.43.44.58.82,1.23,1.77,1.23.47,0,.87-.24,1.05-.36.16.03.27.14.21.32-.28.31-.91.9-2.16.9-.82,0-1.39-.25-1.52-.46-.11-.16-.34-.57-.44-.63-.49.46-1.24,1.09-2.35,1.09-1.43,0-2.48-.8-2.48-2.01,0-1.44,1.31-1.96,1.77-2.19-.36-.25-.71-.73-.71-1.26,0-1.18,1.04-1.83,2.01-1.83,1.2,0,1.83.82,1.83,1.59ZM145.8,32.95c-.16-.1-.32-.22-.38-.22-.09,0-.73.41-.73,1.28,0,.81.63,1.53,1.61,1.53.47,0,1.02-.24,1.29-.51.13-.14.13-.19.02-.35-.63-.91-1.45-1.53-1.81-1.73ZM146.35,31.73c.13,0,.52-.41.52-1.06,0-.6-.29-.98-.73-.98-.39,0-.68.39-.68.85,0,.71.79,1.18.88,1.18Z"/>
          <path class="cls-2" d="M166.04,35.82c.16.06.14.4-.03.46-.68-.03-1.29-.05-1.92-.05-.74,0-1.42.02-2.12.05-.12-.06-.19-.36-.03-.46l.43-.08c.64-.11.68-.22.68-1.3v-6.46h-.03c-.43.87-.65,1.34-.94,1.97l-1.36,2.78c-.54,1.1-1.33,2.86-1.61,3.6-.06.06-.3.06-.41,0-.27-.85-.95-2.4-1.31-3.19l-1.41-3.03c-.3-.66-.73-1.66-.92-2.13h-.03c-.03.78-.06,2.01-.1,2.67-.03.96-.06,2.37-.06,3.66,0,1.04.02,1.28.69,1.41l.52.09c.11.09.11.4-.02.46-.58-.03-1.07-.05-1.66-.05-.51,0-1.07.02-1.69.05-.14-.08-.14-.38-.05-.46l.27-.03c.76-.09.87-.33.98-1.29.11-.99.16-2.02.24-3.66.06-1.07.16-2.38.16-3.35,0-.74-.24-1.06-.85-1.17l-.54-.09c-.1-.11-.08-.41.06-.46.47.03.9.05,1.48.05s1.1,0,1.69-.05c.06.95.46,1.77.87,2.62l1.74,3.65c.12.27.53,1.06.74,1.42.25-.46.45-.9.82-1.64l1.48-3.03c.5-1.04,1.01-1.97,1.28-3.01.43.03.95.05,1.29.05.67,0,1.22-.02,1.66-.05.18.07.21.36.05.46l-.52.08c-.7.11-.85.36-.85,1.2,0,2.33.03,4.67.14,7.01.05,1.06.22,1.15.73,1.23l.46.08Z"/>
        </g>
        <g>
          <path class="cls-2" d="M83.79,53.84c1.62-1.27,3.69-1.89,6-1.89,1.2,0,2.89.24,3.94.53.26.07.42.11.62.09.02.51.13,1.91.31,3.27-.12.15-.45.18-.6.04-.33-1.51-1.33-3.25-4.56-3.25-3.4,0-6.29,2.16-6.29,6.76s2.96,7.25,6.6,7.25c2.86,0,4.13-1.87,4.64-3.18.16-.11.49-.06.58.09-.15,1.16-.73,2.63-1.06,3.04-.27.05-.53.14-.78.22-.49.18-2.09.51-3.52.51-2,0-3.91-.4-5.54-1.49-1.78-1.22-3.16-3.25-3.16-6.12,0-2.47,1.11-4.58,2.8-5.89Z"/>
          <path class="cls-2" d="M96.51,59.8c0-4.45,3.33-7.85,7.91-7.85,5.14,0,7.72,3.71,7.72,7.62,0,4.49-3.43,7.76-7.72,7.76-4.94,0-7.91-3.54-7.91-7.54ZM109.92,60.27c0-3.67-1.62-7.62-5.87-7.62-2.31,0-5.31,1.58-5.31,6.45,0,3.29,1.6,7.56,5.98,7.56,2.67,0,5.21-2,5.21-6.38Z"/>
          <path class="cls-2" d="M116.01,55.66c0-2.11-.07-2.49-.98-2.6l-.72-.09c-.15-.11-.15-.47.03-.55,1.24-.11,2.78-.18,4.95-.18,1.38,0,2.69.11,3.72.67,1.07.56,1.84,1.56,1.84,3.12,0,2.11-1.66,3.27-2.78,3.71-.11.13,0,.36.11.53,1.78,2.87,2.96,4.65,4.47,5.92.38.33.93.58,1.53.62.11.04.13.22.02.31-.2.07-.56.11-.98.11-1.89,0-3.02-.56-4.6-2.8-.58-.82-1.49-2.36-2.18-3.36-.33-.49-.69-.71-1.58-.71-1,0-1.04.02-1.04.49v2.8c0,2.33.04,2.6,1.33,2.78l.47.07c.13.11.09.49-.05.55-1-.04-1.75-.07-2.64-.07-.94,0-1.74.02-2.78.07-.13-.07-.18-.4-.04-.55l.55-.07c1.29-.15,1.34-.44,1.34-2.78v-7.99ZM117.84,58.84c0,.4,0,.64.07.73.07.07.4.11,1.53.11.8,0,1.64-.09,2.29-.58.6-.47,1.11-1.25,1.11-2.76,0-1.76-1.09-3.43-3.56-3.43-1.38,0-1.44.09-1.44.71v5.21Z"/>
          <path class="cls-2" d="M132.18,63.65c0,2.33.04,2.62,1.47,2.78l.6.07c.14.11.09.49-.05.55-1.26-.04-2-.07-2.89-.07-.93,0-1.73.02-2.71.07-.14-.07-.18-.42-.04-.55l.46-.07c1.29-.18,1.33-.44,1.33-2.78v-8.21c0-1.89-.04-2.27-1.05-2.38l-.8-.09c-.15-.13-.13-.47.05-.55,1.17-.16,2.55-.18,4.4-.18s3.23.24,4.27.89c1.02.65,1.78,1.8,1.78,3.33,0,2.05-1.27,3.07-2.23,3.54-.98.47-2.16.67-3.07.67-.16-.07-.16-.4-.02-.45,2.4-.44,3.27-1.8,3.27-3.73,0-2.16-1.27-3.56-3.58-3.56-1.18,0-1.21.09-1.21.8v9.92Z"/>
          <path class="cls-2" d="M153.17,57.89c0-1.38-.04-3.93-.42-4.6-.16-.27-.56-.42-1.11-.47l-.55-.04c-.14-.16-.09-.45.04-.54.85.04,1.67.07,2.54.07.93,0,1.54-.02,2.33-.07.18.11.16.4.04.54l-.53.04c-.56.05-.98.24-1.12.54-.31.73-.31,3.29-.31,4.54v2.51c0,1.94-.31,3.98-1.56,5.32-.96,1.04-2.6,1.62-4.25,1.62-1.54,0-3.07-.29-4.16-1.22-1.18-.98-1.73-2.6-1.73-5.25v-5.25c0-2.31-.04-2.69-1.34-2.8l-.55-.04c-.13-.09-.09-.47.04-.54,1.11.04,1.87.07,2.75.07s1.65-.02,2.74-.07c.14.07.18.45.05.54l-.53.04c-1.29.11-1.34.49-1.34,2.8v4.8c0,3.58,1.12,5.94,4.52,5.94,3.22,0,4.45-2.53,4.45-5.91v-2.56Z"/>
          <path class="cls-2" d="M161.29,67.34c-1.86,0-3.04-.58-3.47-.82-.26-.49-.55-2.07-.6-3.11.11-.16.44-.2.53-.07.34,1.13,1.25,3.31,3.83,3.31,1.87,0,2.78-1.22,2.78-2.56,0-.98-.2-2.07-1.83-3.11l-2.11-1.38c-1.11-.73-2.4-2-2.4-3.83,0-2.11,1.64-3.82,4.54-3.82.69,0,1.49.13,2.07.29.29.09.6.13.78.13.2.53.4,1.78.4,2.71-.09.13-.45.2-.56.07-.29-1.07-.89-2.51-3.02-2.51s-2.65,1.45-2.65,2.47c0,1.29,1.07,2.23,1.89,2.74l1.78,1.11c1.4.87,2.78,2.16,2.78,4.27,0,2.45-1.85,4.12-4.74,4.12Z"/>
        </g>
      </g>
      <g class="cls-1">
        <path class="cls-2" d="M59.18,66.96l-3.02-13.24c.98-1.5,1.88-2.48,2.69-3.12l.32,16.36M55.74,51.84l-3.46-15.2c2.2-1.58,4.34-2.32,6.26-2.57l.3,15.18c-.92.38-1.97,1.15-3.1,2.6ZM51.91,35.02l-2.94-12.91,9.12-10.78.43,21.88c-2.02,0-4.29.48-6.61,1.82ZM60.36,74.26l-7.17-14.17c.33-1.11.75-2.21,1.28-3.29.26-.53.52-1.03.76-1.49l5.13,18.95ZM52.27,58.28l-6.88-13.59.07-.12c1.66-2.84,3.39-4.96,5.1-6.53l4.14,15.29c-.38.59-.76,1.27-1.14,2.02-.5.97-.93,1.95-1.28,2.93ZM44.47,42.85l-4.88-9.65,6.24-12.66,4.25,15.72c-1.89,1.48-3.8,3.61-5.61,6.59ZM63.27,81.9l-10.97-12.7c-.16-2.15-.09-4.33.28-6.49l10.69,19.19ZM50.84,67.52l-9.25-10.7c.27-3.15,1.03-6.32,2.44-9.44l7.49,13.45c-.54,2.25-.74,4.49-.68,6.7ZM40.02,54.99l-6.84-7.91,2.99-13.8,6.82,12.24c-1.58,3.19-2.53,6.36-2.98,9.47ZM68.34,88.91l-13.79-9.71c-.8-2.24-1.47-4.6-1.89-7.02l15.68,16.73ZM52.97,78.08l-9.48-6.68c-1.14-3.54-1.9-7.31-2-11.15l9.58,10.23c.34,2.64,1.02,5.2,1.9,7.6ZM41.28,69.85l-10.55-7.43-.44-14.11,9.42,10.06c-.15,4,.48,7.87,1.56,11.49ZM74.96,94.49l-16.17-6.26c-1.05-1.84-2.14-3.93-3.12-6.2l19.29,12.46ZM57.86,87.87l-8.04-3.11c-1.76-2.83-3.55-6.13-5.02-9.75l9.38,6.06c1.12,2.51,2.41,4.81,3.68,6.81ZM48.32,84.18l-16.27-6.3-3.83-13.59,14.37,9.28c1.59,3.97,3.66,7.56,5.74,10.61ZM72.24,7.52l-6.33,27.72c-.87-.52-2.87-1.54-5.48-1.9l.36-17.56,11.46-8.25ZM65.9,35.27l-3.33,14.55c-.19-.19-1.1-.95-2.46-.88l.31-14.99c2.6.04,4.61.87,5.49,1.32ZM60.09,49.86c1.37-.59,2.29-.15,2.49-.03l-2.73,11.95.24-11.91ZM95.68,98.16c-3.81,4.97-11.26,4.29-13.54,4.16-9.3-.52-18.9-4.42-29.69-4.85-17.87-.71-42.59,5.58-42.59,5.58,0,0,14.24-5.44,28.87-7.45l-8.66-15.3,20.44,6.89c3.58,4.67,6.68,7.46,6.68,7.46,0,0-2.51-2.68-5.52-7.07l7.74,2.61c2.46,3.52,4.5,5.65,4.5,5.65,0,0-1.7-2.06-3.8-5.42l22.38,7.55s5.17,1.88,13.19.19Z"/>
      </g>
      <rect class="cls-2" x="173.65" y="24.44" width="2.25" height="61.38"/>
    </g>
    <g>
      <g>
        <path class="cls-2" d="M195.2,45.37c-2.74,0-2.86.12-2.86,1.83v8.05c0,6,.29,6.8,3.49,7.14l1.65.17c.34.23.23,1.26-.11,1.43-3.09-.11-5.03-.17-7.26-.17-2.45,0-4.4.11-6.63.17-.34-.17-.45-1.09-.11-1.43l.97-.17c3.2-.57,3.32-1.14,3.32-7.14v-20.56c0-6-.4-6.97-3.37-7.2l-1.49-.11c-.34-.23-.23-1.26.11-1.43,2.8.06,4.74.17,7.2.17,2.23,0,4.17-.05,6.63-.17.34.17.46,1.2.11,1.43l-1.08.11c-3.31.34-3.43,1.2-3.43,7.2v6.57c0,1.77.11,1.83,2.86,1.83h16.34c2.74,0,2.86-.05,2.86-1.83v-6.57c0-6-.12-6.86-3.49-7.2l-1.08-.11c-.34-.23-.23-1.26.12-1.43,2.62.12,4.57.17,6.91.17s4.17-.05,6.74-.17c.34.17.46,1.2.12,1.43l-1.2.11c-3.31.34-3.43,1.2-3.43,7.2v20.56c0,6,.12,6.74,3.43,7.14l1.37.17c.35.23.23,1.26-.11,1.43-2.74-.11-4.69-.17-6.91-.17-2.34,0-4.4.05-6.91.17-.34-.17-.46-1.09-.12-1.43l1.08-.17c3.49-.57,3.49-1.14,3.49-7.14v-8.05c0-1.71-.12-1.83-2.86-1.83h-16.34Z"/>
        <path class="cls-2" d="M258.22,50.57c-.4-1.26-.63-1.43-2.34-1.43h-8.62c-1.43,0-1.77.17-2.17,1.37l-2,6c-.86,2.57-1.26,4.11-1.26,4.74,0,.68.29,1.03,1.66,1.14l1.88.17c.4.29.4,1.2-.11,1.43-1.49-.11-3.26-.11-5.94-.17-1.89,0-3.94.11-5.48.17-.34-.23-.45-1.14-.12-1.43l1.89-.17c1.37-.11,2.63-.74,3.43-2.8,1.03-2.63,2.63-6.34,5.03-12.74l5.82-15.42c.8-2.06,1.15-3.14.97-4.06,1.37-.4,2.34-1.43,2.97-2.17.34,0,.74.11.86.51.74,2.51,1.66,5.14,2.51,7.66l7.83,22.96c1.66,4.92,2.4,5.77,4.86,6.06l1.54.17c.4.29.29,1.2,0,1.43-2.34-.11-4.34-.17-6.91-.17-2.74,0-4.91.11-6.57.17-.45-.23-.51-1.14-.11-1.43l1.66-.17c1.2-.11,2-.46,2-1.03,0-.63-.28-1.66-.74-3.03l-2.51-7.77ZM246.91,45.49c-.45,1.31-.4,1.37,1.2,1.37h7.03c1.66,0,1.77-.23,1.26-1.77l-3.09-9.31c-.46-1.37-.97-2.91-1.31-3.6h-.12c-.17.29-.74,1.66-1.37,3.37l-3.6,9.94Z"/>
        <path class="cls-2" d="M286.45,34.75c0-5.43-.17-6.4-2.51-6.69l-1.83-.23c-.4-.29-.4-1.2.06-1.43,3.2-.29,7.14-.46,12.73-.46,3.54,0,6.91.29,9.54,1.72,2.74,1.43,4.74,4,4.74,8,0,5.43-4.28,8.4-7.14,9.54-.28.34,0,.92.29,1.37,4.57,7.37,7.6,11.94,11.48,15.19.98.86,2.4,1.49,3.95,1.6.28.11.34.57.06.8-.51.17-1.43.29-2.51.29-4.86,0-7.77-1.43-11.83-7.2-1.48-2.12-3.83-6.06-5.6-8.63-.86-1.26-1.77-1.83-4.06-1.83-2.57,0-2.69.06-2.69,1.26v7.2c0,6,.12,6.69,3.43,7.14l1.2.17c.34.29.23,1.26-.11,1.43-2.57-.11-4.52-.17-6.8-.17-2.4,0-4.46.05-7.14.17-.34-.17-.46-1.03-.12-1.43l1.43-.17c3.31-.4,3.43-1.14,3.43-7.14v-20.51ZM291.13,42.92c0,1.03,0,1.66.17,1.89.17.17,1.03.28,3.94.28,2.06,0,4.23-.23,5.89-1.49,1.54-1.2,2.85-3.2,2.85-7.08,0-4.51-2.8-8.8-9.14-8.8-3.54,0-3.71.23-3.71,1.83v13.37Z"/>
        <path class="cls-2" d="M343.01,55.25c0,6,.11,6.86,3.42,7.14l1.83.17c.34.23.23,1.26-.11,1.43-3.26-.11-5.2-.17-7.49-.17s-4.29.05-7.94.17c-.34-.17-.46-1.14,0-1.43l2.06-.17c3.26-.29,3.54-1.14,3.54-7.14v-25.54c0-1.77,0-1.83-1.71-1.83h-3.14c-2.46,0-5.6.12-7.03,1.43-1.37,1.25-1.94,2.51-2.57,3.94-.45.34-1.25.06-1.48-.4.91-2.57,1.77-6.23,2.17-8.51.17-.11.92-.17,1.09,0,.34,1.83,2.22,1.77,4.85,1.77h23.13c3.09,0,3.6-.11,4.45-1.6.29-.12.92-.06,1.03.17-.63,2.34-1.03,6.97-.86,8.68-.23.46-1.2.46-1.48.11-.17-1.43-.57-3.54-1.43-4.17-1.31-.97-3.48-1.43-6.62-1.43h-4.06c-1.71,0-1.66.06-1.66,1.94v25.42Z"/>
        <path class="cls-2" d="M375.58,34.69c0-5.94-.11-6.8-3.48-7.2l-.91-.11c-.34-.23-.23-1.26.11-1.43,2.45.12,4.4.17,6.74.17h10.74c3.65,0,7.03,0,7.71-.17.35.97.69,5.09.92,7.6-.23.34-1.14.46-1.43.12-.86-2.69-1.37-4.69-4.34-5.43-1.2-.29-3.03-.35-5.54-.35h-4.11c-1.71,0-1.71.12-1.71,2.29v11.42c0,1.6.17,1.6,1.89,1.6h3.31c2.4,0,4.17-.12,4.85-.34.69-.23,1.09-.57,1.37-2l.46-2.34c.28-.34,1.25-.34,1.49.06,0,1.37-.23,3.6-.23,5.77,0,2.06.23,4.23.23,5.48-.23.4-1.2.4-1.49.06l-.52-2.23c-.23-1.03-.63-1.88-1.77-2.17-.8-.23-2.17-.29-4.4-.29h-3.31c-1.71,0-1.89.06-1.89,1.54v8.05c0,3.03.17,4.97,1.08,5.94.69.68,1.89,1.31,6.91,1.31,4.4,0,6.06-.23,7.31-.86,1.03-.57,2.57-2.57,4.06-5.54.4-.29,1.2-.11,1.43.4-.4,2-1.83,6.4-2.57,7.94-5.14-.11-10.23-.17-15.31-.17h-5.14c-2.46,0-4.4.05-7.77.17-.34-.17-.46-1.09-.11-1.43l1.88-.17c3.26-.29,3.54-1.14,3.54-7.14v-20.56Z"/>
      </g>
      <g>
        <path class="cls-2" d="M184.78,75.2c0-1.89-.03-2.38-.69-2.46l-.81-.12c-.23-.03-.29-.64,0-.72,1.59-.12,3.22-.17,4.81-.17,2.7,0,5.63.43,5.63,3.48,0,1.86-1.45,2.7-2.58,3.11-.12.12-.09.29,0,.44,1.45,2.43,2.73,3.86,3.69,4.64.52.44,1.07.58,1.53.61.12.11.12.38,0,.46-.26.09-.67.15-1.22.15-1.74,0-2.78-.55-4.06-2.18-.73-.93-1.51-2.2-2.12-3.13-.23-.35-.7-.46-1.16-.46-.76,0-.81.06-.81.46v2.06c0,2,.11,2.15,1.36,2.32l.67.09c.2.15.17.64-.06.73-1.22-.06-2.18-.09-3.08-.09s-1.83.03-2.84.09c-.29-.09-.32-.61-.06-.73l.44-.09c1.25-.26,1.36-.32,1.36-2.32v-6.15ZM186.99,77.32c0,.72.03.72,1.45.72,1.88,0,2.87-.75,2.87-2.76,0-1.45-1.01-2.72-3.04-2.72-1.07,0-1.27.05-1.27.81v3.94Z"/>
        <path class="cls-2" d="M197.87,74.86c0-2-.11-2.09-1.22-2.32l-.41-.09c-.2-.12-.17-.61.06-.73.84.06,1.74.09,2.7.09h4.12c1.27,0,2.43-.03,2.7-.09.03.35.17,1.71.32,2.96-.12.23-.58.26-.76.06-.17-.75-.34-1.13-.52-1.39-.47-.7-1.77-.7-2.47-.7h-1.28c-1.02,0-1.04.03-1.04.93v3.22c0,.52,0,.58.55.58h1.36c1.54,0,1.68-.23,1.92-1.1l.14-.55c.15-.2.58-.17.73.06-.06.84-.06,1.36-.06,2.03,0,.73,0,1.25.06,2.09-.15.23-.58.26-.73.05l-.14-.55c-.23-.87-.38-1.1-1.92-1.1h-1.36c-.55,0-.55.08-.55.67v2.09c0,.87.06,1.77.32,2.09.26.29.78.41,2.44.41,1.86,0,2.93-.09,3.77-2.41.2-.2.67-.14.75.12-.14,1.22-.55,2.67-.87,3.22-1.83-.06-3.36-.09-4.93-.09h-2.55c-.93,0-1.83.03-3.22.09-.23-.09-.26-.58-.05-.73l.78-.09c1.25-.14,1.36-.32,1.36-2.32v-6.5Z"/>
        <path class="cls-2" d="M211.48,78.48c-1.39-.72-2.58-1.86-2.58-3.48,0-2.11,1.63-3.6,4.55-3.6,1.02,0,1.71.26,2.7.43.23.49.43,1.6.41,2.84-.09.23-.61.26-.75.06-.23-1.01-.99-2.5-2.7-2.5s-2.35.99-2.35,1.97c0,1.04.79,1.68,1.95,2.29l1.79.93c1.05.52,2.35,1.74,2.35,3.69,0,2.26-1.86,3.68-4.73,3.68-1.77,0-2.93-.61-3.34-.9-.26-.41-.61-1.45-.61-2.99.12-.29.55-.32.76-.06.23,1.04,1.51,3.1,3.45,3.1,1.48,0,2.44-.75,2.44-2.09,0-.93-.38-1.89-2.03-2.73l-1.3-.67Z"/>
        <path class="cls-2" d="M220.27,74.86c0-2-.12-2.09-1.22-2.32l-.4-.09c-.2-.12-.18-.61.06-.73.84.06,1.74.09,2.7.09h4.12c1.28,0,2.44-.03,2.7-.09.03.35.17,1.71.32,2.96-.11.23-.58.26-.75.06-.17-.75-.35-1.13-.52-1.39-.46-.7-1.77-.7-2.47-.7h-1.28c-1.01,0-1.04.03-1.04.93v3.22c0,.52,0,.58.55.58h1.36c1.54,0,1.68-.23,1.92-1.1l.14-.55c.15-.2.58-.17.73.06-.06.84-.06,1.36-.06,2.03,0,.73,0,1.25.06,2.09-.15.23-.58.26-.73.05l-.14-.55c-.23-.87-.38-1.1-1.92-1.1h-1.36c-.55,0-.55.08-.55.67v2.09c0,.87.06,1.77.32,2.09.26.29.78.41,2.43.41,1.86,0,2.93-.09,3.77-2.41.2-.2.67-.14.76.12-.15,1.22-.55,2.67-.88,3.22-1.82-.06-3.36-.09-4.93-.09h-2.55c-.93,0-1.83.03-3.22.09-.23-.09-.26-.58-.06-.73l.78-.09c1.25-.14,1.36-.32,1.36-2.32v-6.5Z"/>
        <path class="cls-2" d="M234.23,79.91c-.67,0-.75.02-.99.69l-.67,1.86c-.32.93-.23,1.04.32,1.16l.78.14c.23.15.2.67-.09.73-.73-.06-1.48-.09-2.29-.09s-1.51.06-2.03.09c-.26-.11-.26-.58-.06-.73l.67-.14c.9-.2,1.22-.52,1.8-1.92l2.79-6.67c.49-1.19.69-1.89.75-2.44.52-.2,1.07-.75,1.22-1.1.23-.09.41-.03.46.14.12.29.58,1.8,1.25,3.57l2.61,6.94c.35.96.61,1.33,1.65,1.53l.46.09c.26.15.21.67-.08.73-.76-.06-1.42-.09-2.41-.09-1.04,0-1.88.03-2.61.09-.29-.09-.31-.61-.05-.73l.58-.09c.75-.12.73-.29.38-1.19l-.7-1.89c-.23-.67-.32-.69-.99-.69h-2.75ZM236.52,78.98c.75,0,.84-.06.52-.9l-.9-2.47c-.24-.67-.35-.9-.44-1.04h-.06c-.08.12-.2.38-.46.98l-1.04,2.58c-.32.78-.26.84.38.84h2Z"/>
        <path class="cls-2" d="M245.08,75.2c0-1.89-.03-2.38-.7-2.46l-.81-.12c-.23-.03-.29-.64,0-.72,1.59-.12,3.22-.17,4.81-.17,2.7,0,5.63.43,5.63,3.48,0,1.86-1.45,2.7-2.58,3.11-.12.12-.09.29,0,.44,1.45,2.43,2.72,3.86,3.69,4.64.52.44,1.07.58,1.53.61.12.11.12.38,0,.46-.26.09-.67.15-1.22.15-1.74,0-2.78-.55-4.06-2.18-.73-.93-1.51-2.2-2.12-3.13-.23-.35-.69-.46-1.15-.46-.76,0-.81.06-.81.46v2.06c0,2,.11,2.15,1.36,2.32l.67.09c.2.15.17.64-.06.73-1.22-.06-2.17-.09-3.07-.09s-1.83.03-2.84.09c-.29-.09-.32-.61-.06-.73l.43-.09c1.25-.26,1.37-.32,1.37-2.32v-6.15ZM247.28,77.32c0,.72.03.72,1.45.72,1.88,0,2.87-.75,2.87-2.76,0-1.45-1.01-2.72-3.04-2.72-1.07,0-1.27.05-1.27.81v3.94Z"/>
        <path class="cls-2" d="M268.23,71.96c0,.61.09,2.03.26,3.19-.12.23-.55.29-.76.05-.43-1.59-1.42-2.96-4.03-2.96s-4.96,1.68-4.96,5.63,2.49,6.09,5.22,6.09,3.86-2.18,4.18-2.93c.14-.26.61-.26.75.03-.14,1.28-.61,2.61-.96,3.13-.84.15-1.91.61-3.92.61-1.83,0-3.63-.32-5.1-1.33-1.57-1.08-2.75-2.85-2.75-5.16s.98-4.09,2.44-5.22c1.42-1.1,3.42-1.68,5.65-1.68,1.89,0,3.74.55,3.98.55Z"/>
        <path class="cls-2" d="M280.27,77.38c.92,0,1.04,0,1.04-.75v-1.77c0-2-.12-2.12-1.36-2.32l-.55-.09c-.2-.15-.17-.64.06-.73,1.13.06,2.03.09,2.96.09s1.82-.03,2.96-.09c.23.09.26.58.06.73l-.55.09c-1.25.2-1.36.32-1.36,2.32v6.5c0,2,.11,2.15,1.36,2.32l.67.09c.2.15.17.64-.06.73-1.22-.06-2.17-.09-3.07-.09s-1.83.03-2.96.09c-.23-.09-.26-.58-.06-.73l.55-.09c1.24-.2,1.36-.32,1.36-2.32v-2.29c0-.73-.06-.75-1.04-.75h-5.11c-.99,0-1.04.03-1.04.75v2.29c0,2,.12,2.18,1.36,2.32l.78.09c.2.15.17.64-.06.73-1.33-.06-2.29-.09-3.19-.09s-1.83.03-2.73.09c-.24-.09-.26-.58-.06-.73l.32-.09c1.22-.32,1.36-.32,1.36-2.32v-6.5c0-2-.11-2.15-1.36-2.32l-.67-.09c-.2-.15-.17-.64.06-.73,1.25.06,2.15.09,3.08.09s1.83-.03,2.84-.09c.23.09.26.58.06.73l-.44.09c-1.22.23-1.36.32-1.36,2.32v1.77c0,.75.12.75,1.04.75h5.11Z"/>
        <path class="cls-2" d="M295.42,74.86c0-2-.12-2.12-1.36-2.32l-.55-.09c-.2-.15-.18-.64.06-.73,1.13.06,2.03.09,2.96.09s1.83-.03,2.96-.09c.23.09.26.58.06.73l-.55.09c-1.25.2-1.36.32-1.36,2.32v6.5c0,2,.11,2.12,1.36,2.32l.55.09c.2.15.17.64-.06.73-1.1-.06-2.06-.09-2.96-.09s-1.83.03-2.96.09c-.24-.09-.26-.58-.06-.73l.55-.09c1.24-.2,1.36-.32,1.36-2.32v-6.5Z"/>
        <path class="cls-2" d="M312.97,76.28c0-2.9-.17-3.66-1.25-3.74l-.93-.09c-.2-.17-.17-.58.06-.73,1.08.06,1.74.09,2.58.09s1.48-.03,2.41-.09c.23.14.23.58.03.73l-.87.09c-.75.09-.99.87-.99,3.74v4.87c0,.58,0,2.93.09,3.37-.09.17-.35.32-.61.26-.32-.41-.9-1.02-2.7-2.96l-4.41-4.7c-1.1-1.16-1.85-1.92-2.23-2.24-.12,0-.12.32-.12,1.22v3.83c0,2.9.17,3.66,1.25,3.74l.93.09c.23.17.17.58-.06.73-1.07-.06-1.74-.09-2.58-.09s-1.39.03-2.41.09c-.23-.11-.23-.58-.03-.73l.87-.09c.75-.09.99-.87.99-3.74v-5.19c0-.96-.03-1.36-.61-1.8-.23-.17-.78-.35-1.07-.41l-.44-.09c-.2-.17-.2-.61.06-.73,1.1.09,1.89.09,2.49.09.4,0,.81-.03,1.16-.09.58,1.1,1.65,2.35,2.84,3.57l2.73,2.82c.64.64,2.32,2.46,2.64,2.69.17-.05.17-.46.17-1.16v-3.36Z"/>
        <path class="cls-2" d="M320.41,78.48c-1.39-.72-2.58-1.86-2.58-3.48,0-2.11,1.62-3.6,4.55-3.6,1.01,0,1.71.26,2.69.43.24.49.44,1.6.41,2.84-.09.23-.61.26-.76.06-.23-1.01-.98-2.5-2.69-2.5s-2.35.99-2.35,1.97c0,1.04.78,1.68,1.94,2.29l1.8.93c1.04.52,2.35,1.74,2.35,3.69,0,2.26-1.85,3.68-4.73,3.68-1.77,0-2.93-.61-3.34-.9-.26-.41-.61-1.45-.61-2.99.12-.29.55-.32.75-.06.23,1.04,1.51,3.1,3.45,3.1,1.48,0,2.44-.75,2.44-2.09,0-.93-.38-1.89-2.04-2.73l-1.3-.67Z"/>
        <path class="cls-2" d="M331.89,73.41c0-.76-.03-.76-.61-.76h-.9c-1.77,0-2.52.17-3.22,2.18-.29.17-.61.09-.73-.14.32-1.25.64-2.7.78-3.42.12-.12.41-.12.52,0,.03.58.44.55,1.6.55h8.06c1.07,0,1.28-.03,1.51-.55.2-.12.43-.06.52.09-.23.75-.35,2.29-.29,3.4-.12.23-.61.26-.72.03-.2-1.88-.96-2.12-2.7-2.12h-.99c-.55,0-.64,0-.64.76v7.95c0,2,.12,2.18,1.36,2.32l.78.09c.2.15.17.64-.06.73-1.19-.06-2.29-.09-3.19-.09s-1.97.03-3.19.09c-.23-.09-.26-.58-.06-.73l.78-.09c1.25-.14,1.36-.32,1.36-2.32v-7.95Z"/>
        <path class="cls-2" d="M342.05,74.86c0-2-.11-2.12-1.36-2.32l-.55-.09c-.2-.15-.18-.64.06-.73,1.13.06,2.03.09,2.96.09s1.83-.03,2.96-.09c.23.09.26.58.06.73l-.55.09c-1.25.2-1.36.32-1.36,2.32v6.5c0,2,.12,2.12,1.36,2.32l.55.09c.2.15.17.64-.06.73-1.1-.06-2.06-.09-2.96-.09s-1.83.03-2.96.09c-.23-.09-.26-.58-.06-.73l.55-.09c1.25-.2,1.36-.32,1.36-2.32v-6.5Z"/>
        <path class="cls-2" d="M352.32,73.41c0-.76-.03-.76-.61-.76h-.9c-1.77,0-2.52.17-3.21,2.18-.29.17-.61.09-.73-.14.32-1.25.64-2.7.78-3.42.12-.12.41-.12.52,0,.03.58.43.55,1.59.55h8.06c1.07,0,1.28-.03,1.51-.55.2-.12.43-.06.52.09-.23.75-.35,2.29-.29,3.4-.11.23-.61.26-.72.03-.2-1.88-.96-2.12-2.7-2.12h-.99c-.55,0-.64,0-.64.76v7.95c0,2,.12,2.18,1.37,2.32l.78.09c.2.15.17.64-.06.73-1.19-.06-2.29-.09-3.19-.09s-1.97.03-3.19.09c-.23-.09-.26-.58-.06-.73l.78-.09c1.25-.14,1.36-.32,1.36-2.32v-7.95Z"/>
        <path class="cls-2" d="M362.22,74.86c0-2-.14-2.06-1.36-2.32l-.41-.09c-.2-.15-.18-.64.06-.73.99.06,1.88.09,2.81.09s1.83-.03,2.96-.09c.23.09.26.58.06.73l-.56.09c-1.25.2-1.36.32-1.36,2.32v4.09c0,2.9.95,4.87,3.77,4.87,2.61,0,3.74-1.97,3.74-4.84v-2.7c0-2.9-.17-3.57-1.42-3.74l-.61-.09c-.2-.17-.17-.58.06-.73.92.06,1.59.09,2.43.09s1.48-.03,2.41-.09c.23.14.23.58.03.73l-.87.09c-.75.09-.99.87-.99,3.74v2.87c0,3.71-1.71,5.65-5.4,5.65-1.86,0-3.25-.37-4.12-1.22-.87-.87-1.25-2.2-1.25-4.09v-4.64Z"/>
        <path class="cls-2" d="M380.41,73.41c0-.76-.03-.76-.61-.76h-.9c-1.77,0-2.52.17-3.22,2.18-.29.17-.61.09-.73-.14.32-1.25.64-2.7.78-3.42.12-.12.41-.12.52,0,.03.58.44.55,1.6.55h8.06c1.07,0,1.28-.03,1.51-.55.2-.12.43-.06.52.09-.23.75-.35,2.29-.29,3.4-.12.23-.61.26-.73.03-.21-1.88-.96-2.12-2.7-2.12h-.99c-.55,0-.64,0-.64.76v7.95c0,2,.12,2.18,1.37,2.32l.78.09c.21.15.17.64-.05.73-1.19-.06-2.29-.09-3.19-.09s-1.98.03-3.19.09c-.23-.09-.26-.58-.06-.73l.78-.09c1.25-.14,1.36-.32,1.36-2.32v-7.95Z"/>
        <path class="cls-2" d="M390.57,74.86c0-2-.12-2.09-1.22-2.32l-.41-.09c-.2-.12-.17-.61.06-.73.84.06,1.74.09,2.7.09h4.11c1.28,0,2.44-.03,2.7-.09.03.35.17,1.71.32,2.96-.11.23-.58.26-.75.06-.17-.75-.35-1.13-.53-1.39-.46-.7-1.76-.7-2.46-.7h-1.28c-1.01,0-1.04.03-1.04.93v3.22c0,.52,0,.58.55.58h1.37c1.54,0,1.68-.23,1.92-1.1l.14-.55c.14-.2.58-.17.73.06-.06.84-.06,1.36-.06,2.03,0,.73,0,1.25.06,2.09-.15.23-.58.26-.73.05l-.14-.55c-.23-.87-.38-1.1-1.92-1.1h-1.37c-.55,0-.55.08-.55.67v2.09c0,.87.06,1.77.32,2.09.26.29.78.41,2.44.41,1.86,0,2.93-.09,3.77-2.41.2-.2.67-.14.76.12-.15,1.22-.55,2.67-.87,3.22-1.83-.06-3.37-.09-4.93-.09h-2.55c-.93,0-1.83.03-3.22.09-.24-.09-.27-.58-.06-.73l.78-.09c1.25-.14,1.36-.32,1.36-2.32v-6.5Z"/>
      </g>
    </g>
  </g>
  <g>
    <g>
      <g>
        <g>
          <path d="M82,41.61c0-1.53-.13-1.56-.81-1.67l-.25-.04c-.1-.1-.09-.35.03-.4.58.03,1.23.04,1.86.04s1.3-.01,1.93-.04c.12.06.13.3.03.4l-.32.04c-.68.09-.81.14-.81,1.67v3.3c0,1.99.61,3.66,2.61,3.66,1.89,0,2.67-1.43,2.67-3.62v-1.8c0-1.08-.02-2.42-.27-2.84-.14-.21-.36-.32-.72-.37l-.29-.04c-.13-.1-.11-.36.03-.4.49.03,1.04.04,1.6.04.61,0,1-.01,1.53-.04.11.07.14.3.03.4l-.32.07c-.28.06-.53.12-.64.34-.2.43-.2,1.7-.2,2.84v1.72c0,1.31-.21,2.52-.96,3.33-.75.81-1.82,1.08-2.82,1.08-1.35,0-2.3-.29-2.97-.92-.65-.62-.95-1.63-.95-3.08v-3.66Z"/>
          <path d="M100.75,46.59c0,.44,0,2.21.04,2.54-.11.16-.32.21-.49.2-.23-.3-.65-.79-1.69-1.98l-3.37-3.85c-.92-1.07-1.4-1.6-1.65-1.82-.04,0-.04.16-.04.92v2.81c0,1.08.01,2.41.26,2.84.13.22.37.32.73.36l.32.04c.13.1.11.38-.03.42-.53-.03-1.09-.04-1.64-.04-.61,0-.99.01-1.5.04-.12-.07-.15-.32-.03-.42l.32-.07c.27-.06.53-.1.63-.33.19-.44.19-1.7.19-2.84v-3.42c0-1.12.02-1.35-.48-1.77-.16-.13-.56-.25-.76-.29l-.22-.04c-.1-.09-.09-.37.06-.42.55.06,1.34.04,1.7.04.3,0,.65-.01,1-.04.24.62,1.82,2.44,2.32,2.98l1.44,1.55c.61.67,1.95,2.19,2.09,2.28.04-.04.04-.11.04-.34v-2.81c0-1.08-.01-2.41-.27-2.84-.13-.21-.36-.32-.72-.36l-.33-.04c-.13-.1-.11-.37.02-.42.57.03,1.1.04,1.66.04.62,0,1-.01,1.52-.04.11.07.14.32.03.42l-.33.07c-.28.06-.52.1-.62.33-.2.45-.2,1.7-.2,2.84v3.44Z"/>
          <path d="M105.75,46.97c0,1.53.13,1.57.81,1.66l.31.04c.1.1.09.36-.03.42-.64-.03-1.28-.04-1.92-.04s-1.31.01-1.94.04c-.12-.06-.13-.32-.03-.42l.32-.04c.68-.09.81-.13.81-1.66v-5.36c0-1.53-.13-1.57-.81-1.66l-.32-.04c-.1-.1-.09-.36.03-.42.63.03,1.28.04,1.94.04s1.28-.01,1.92-.04c.11.06.13.32.03.42l-.31.04c-.68.09-.81.13-.81,1.66v5.36Z"/>
          <path d="M113.94,45.47c-.59,1.31-1.26,3-1.5,3.73-.03.04-.14.07-.24.07s-.2-.03-.27-.07c-.17-.57-.4-1.28-.66-1.88l-2.52-6.07c-.4-.96-.54-1.17-1.11-1.28l-.35-.07c-.1-.1-.1-.36.04-.4.56.03,1.19.04,1.74.04.65,0,1.14-.01,1.9-.04.13.09.14.32.02.42l-.36.09c-.32.07-.43.14-.43.26,0,.13.11.45.71,1.92l1.04,2.56c.26.65.65,1.5.79,1.83.78-1.82,1.64-3.8,2.41-5.77.23-.57.19-.69-.25-.79l-.42-.1c-.1-.12-.08-.34.03-.42.59.03,1.08.04,1.54.04.52,0,.99-.01,1.4-.04.12.07.1.3.03.42l-.36.07c-.33.07-.65.17-.9.59-.4.69-.81,1.66-1.47,3.12l-.81,1.79Z"/>
          <path d="M118.56,41.61c0-1.53-.13-1.58-.81-1.67l-.23-.03c-.1-.1-.08-.36.03-.42.55.03,1.23.04,1.86.04h2.76c.92,0,1.76-.01,1.94-.04.06.25.15,1.38.23,2-.06.12-.34.15-.46.06-.23-.84-.45-1.18-.91-1.31-.33-.09-.77-.13-1.15-.13h-.96c-.62,0-.62.03-.62.85v2.44c0,.37.01.39.35.39h.69c1.26,0,1.47-.01,1.6-.63l.1-.49c.12-.1.39-.1.46.01-.01.39-.04.91-.04,1.44s.03,1.05.04,1.52c-.07.1-.35.1-.46.01l-.1-.58c-.1-.6-.34-.63-1.6-.63h-.69c-.33,0-.35.03-.35.39v1.83c0,.74.03,1.25.25,1.5.17.2.42.3,1.63.32,1.83.02,2.15-.39,2.65-1.56.13-.1.37-.06.46.08-.09.61-.4,1.7-.61,2.09-.64-.03-1.87-.04-3.56-.04h-1.65c-.63,0-1.51.01-2.16.04-.12-.06-.13-.32-.03-.42l.53-.05c.68-.07.81-.12.81-1.64v-5.36Z"/>
          <path d="M126.93,41.69c0-1.38-.01-1.56-.69-1.63l-.38-.04c-.1-.1-.1-.33.01-.41.91-.09,2.14-.13,3.32-.13s2.1.14,2.74.49c.74.39,1.27,1.07,1.27,2.1,0,1.33-1.03,1.99-1.73,2.28-.08.04-.06.16,0,.25,1.15,1.94,1.88,3.17,2.55,3.73.4.35.82.43.99.45.07.05.07.22.03.29-.18.04-.45.09-.96.09-1.38,0-2.13-.56-3.01-1.9-.39-.61-.79-1.4-1.14-1.96-.26-.43-.42-.49-.9-.49-.43,0-.44.02-.44.32v1.85c0,1.53.13,1.57.81,1.66l.32.04c.1.1.08.36-.03.42-.64-.03-1.29-.04-1.92-.04s-1.28.01-1.94.04c-.12-.06-.16-.32-.03-.42l.31-.04c.68-.09.81-.13.81-1.66v-5.28ZM128.6,43.77c0,.46,0,.49.69.49,1.41,0,2.06-.69,2.06-2.06,0-1.14-.73-2.13-1.99-2.13-.75,0-.76.04-.76.71v3Z"/>
          <path d="M135.64,48.67c-.26-.3-.45-1.29-.43-2.19.09-.14.33-.16.45-.06.26.74,1.04,2.28,2.45,2.28,1.09,0,1.72-.66,1.72-1.54,0-.82-.39-1.49-1.47-2.09l-.62-.34c-1.08-.61-2.04-1.49-2.04-2.78,0-1.43,1.07-2.64,3.17-2.64.75,0,1.3.17,1.98.3.16.32.3,1.27.3,1.95-.07.13-.33.14-.46.04-.22-.75-.72-1.72-1.95-1.72-1.15,0-1.63.75-1.63,1.51,0,.61.42,1.25,1.37,1.76l.89.47c.94.49,1.98,1.38,1.98,2.84,0,1.64-1.26,2.81-3.35,2.81-1.32,0-2.07-.43-2.36-.61Z"/>
          <path d="M145.34,46.97c0,1.53.12,1.57.8,1.66l.31.04c.1.1.09.36-.02.42-.64-.03-1.28-.04-1.92-.04s-1.31.01-1.94.04c-.11-.06-.13-.32-.03-.42l.32-.04c.67-.09.81-.13.81-1.66v-5.36c0-1.53-.13-1.57-.81-1.66l-.32-.04c-.1-.1-.08-.36.03-.42.63.03,1.28.04,1.94.04s1.29-.01,1.92-.04c.11.06.13.32.02.42l-.31.04c-.68.09-.8.13-.8,1.66v5.36Z"/>
          <path d="M151.17,40.74c0-.6-.01-.63-.39-.63h-.81c-1.33,0-1.71.16-2.25,1.33-.1.09-.4.04-.47-.1.25-.78.47-1.67.56-2.18.03-.04.09-.06.16-.06.06,0,.12.01.15.06.07.36.27.38,1.25.38h5.88c.71,0,.92-.04,1.1-.38.05-.03.11-.06.17-.06.08,0,.16.03.19.07-.15.59-.26,1.83-.21,2.29-.08.12-.32.15-.45.04-.19-1.12-.46-1.4-2.01-1.4h-.82c-.37,0-.39.03-.39.63v6.23c0,1.53.13,1.57.8,1.64l.52.05c.1.1.09.36-.03.42-.83-.03-1.48-.04-2.12-.04s-1.31.01-2.23.04c-.12-.06-.13-.34-.03-.42l.6-.07c.68-.09.81-.1.81-1.63v-6.23Z"/>
          <path d="M160.54,46.12c0-.81-.07-1.03-.46-1.79l-1.73-3.41c-.32-.62-.43-.78-1.08-.92l-.37-.09c-.09-.1-.06-.37.06-.42.62.03,1.23.04,1.82.04.63,0,1.52-.01,1.85-.04.12.06.14.32.03.42l-.43.07c-.23.05-.3.07-.3.19s.04.28.26.75c.57,1.24,1.1,2.41,1.67,3.46.59-1.1,1.12-2.11,1.68-3.19.24-.49.39-.81.39-.97,0-.14-.13-.19-.33-.22l-.43-.1c-.1-.1-.1-.34.04-.42.63.03,1.08.04,1.51.04s.91-.01,1.37-.04c.13.07.13.3.03.42l-.42.09c-.65.13-.82.39-1.57,1.66-.49.82-.92,1.61-1.37,2.42-.43.75-.53,1.05-.53,2.03v.87c0,1.53.13,1.57.84,1.64l.55.05c.1.1.08.36-.03.42-.89-.03-1.54-.04-2.18-.04s-1.31.01-2.09.04c-.12-.06-.13-.32-.03-.42l.46-.05c.68-.09.81-.12.81-1.64v-.85Z"/>
        </g>
        <g>
          <path d="M83.81,71.79c1.59-1.24,3.62-1.86,5.9-1.86,1.17,0,2.83.24,3.86.52.26.07.41.11.61.09.02.5.13,1.88.3,3.21-.11.16-.44.18-.58.05-.33-1.48-1.31-3.19-4.48-3.19-3.34,0-6.18,2.12-6.18,6.63s2.9,7.12,6.48,7.12c2.81,0,4.06-1.84,4.56-3.12.15-.11.48-.07.57.09-.15,1.13-.72,2.58-1.05,2.99-.26.04-.52.13-.76.22-.48.17-2.05.5-3.45.5-1.96,0-3.84-.39-5.43-1.46-1.75-1.2-3.1-3.19-3.1-6,0-2.42,1.09-4.5,2.75-5.78Z"/>
          <path d="M100.96,77.64c-1.05,0-1.09.04-1.09.7v3.08c0,2.29.11,2.59,1.33,2.73l.63.07c.13.08.09.48-.04.55-1.18-.05-1.92-.07-2.78-.07-.93,0-1.68.04-2.53.07-.13-.07-.17-.42-.04-.55l.37-.07c1.22-.21,1.27-.44,1.27-2.73v-7.86c0-2.29-.15-2.67-1.29-2.75l-.57-.04c-.13-.09-.08-.48.04-.55,1.07.02,1.81.06,2.75.06.85,0,1.6-.02,2.54-.06.13.06.17.46.05.55l-.42.04c-1.27.13-1.31.46-1.31,2.75v2.51c0,.67.04.7,1.09.7h6.25c1.05,0,1.09-.02,1.09-.7v-2.51c0-2.29-.04-2.62-1.33-2.75l-.42-.04c-.13-.09-.09-.48.04-.55,1,.04,1.75.06,2.64.06s1.59-.02,2.58-.06c.13.06.17.46.04.55l-.46.04c-1.27.13-1.31.46-1.31,2.75v7.86c0,2.29.04,2.57,1.31,2.73l.52.07c.13.08.09.48-.04.55-1.05-.05-1.79-.07-2.64-.07-.9,0-1.68.02-2.64.07-.13-.07-.17-.42-.04-.55l.42-.07c1.33-.21,1.33-.44,1.33-2.73v-3.08c0-.65-.04-.7-1.09-.7h-6.25Z"/>
          <path d="M115.68,73.58c0-2.07-.07-2.44-.96-2.55l-.7-.09c-.15-.11-.15-.46.02-.55,1.22-.11,2.73-.17,4.87-.17,1.35,0,2.64.11,3.65.65,1.04.55,1.81,1.53,1.81,3.06,0,2.08-1.63,3.21-2.73,3.64-.11.13,0,.35.11.53,1.75,2.81,2.9,4.56,4.39,5.81.37.33.92.57,1.5.61.11.04.13.22.02.3-.2.07-.55.11-.96.11-1.85,0-2.97-.54-4.52-2.75-.57-.81-1.46-2.31-2.14-3.3-.33-.48-.68-.7-1.55-.7-.98,0-1.03.02-1.03.48v2.75c0,2.29.04,2.55,1.31,2.73l.46.07c.13.11.09.48-.04.55-.98-.05-1.73-.07-2.6-.07s-1.7.02-2.72.07c-.13-.07-.17-.39-.04-.55l.55-.07c1.27-.15,1.31-.44,1.31-2.73v-7.84ZM117.47,76.7c0,.39,0,.63.07.72.06.06.39.11,1.5.11.79,0,1.62-.09,2.25-.57.59-.46,1.09-1.22,1.09-2.7,0-1.73-1.07-3.36-3.49-3.36-1.35,0-1.42.09-1.42.7v5.11Z"/>
          <path d="M129.76,73.61c0-2.31-.04-2.68-1.33-2.8l-.55-.04c-.13-.09-.09-.48.04-.55,1.09.04,1.83.06,2.75.06s1.62-.02,2.71-.06c.13.06.17.46.04.55l-.55.04c-1.29.11-1.33.48-1.33,2.8v7.77c0,2.32.04,2.62,1.33,2.77l.55.07c.13.08.09.48-.04.55-1.09-.05-1.83-.07-2.71-.07s-1.66.02-2.75.07c-.13-.07-.18-.42-.04-.55l.55-.07c1.29-.15,1.33-.46,1.33-2.77v-7.77Z"/>
          <path d="M139.23,85.04c-1.83,0-2.99-.57-3.41-.81-.26-.48-.54-2.03-.59-3.06.11-.15.44-.2.52-.07.33,1.12,1.22,3.25,3.75,3.25,1.84,0,2.73-1.2,2.73-2.51,0-.96-.2-2.03-1.79-3.05l-2.07-1.35c-1.09-.72-2.36-1.96-2.36-3.76,0-2.07,1.62-3.75,4.46-3.75.67,0,1.46.13,2.03.28.29.09.59.13.77.13.19.52.39,1.75.39,2.66-.08.13-.43.2-.55.06-.28-1.04-.87-2.46-2.97-2.46s-2.6,1.42-2.6,2.42c0,1.27,1.05,2.18,1.86,2.68l1.74,1.09c1.38.85,2.73,2.12,2.73,4.19,0,2.4-1.81,4.04-4.65,4.04Z"/>
          <path d="M153.05,81.42c0,2.29.05,2.62,1.31,2.73l.7.07c.13.08.08.48-.05.55-1.25-.05-1.98-.07-2.86-.07s-1.64.02-3.03.07c-.13-.07-.18-.44,0-.55l.78-.07c1.24-.11,1.35-.44,1.35-2.73v-9.76c0-.68,0-.7-.65-.7h-1.2c-.94,0-2.14.05-2.69.55-.52.48-.74.96-.98,1.51-.17.13-.48.02-.57-.15.35-.98.68-2.38.83-3.25.07-.04.35-.07.41,0,.13.7.85.67,1.86.67h8.84c1.18,0,1.37-.04,1.7-.61.11-.05.35-.02.4.07-.24.9-.4,2.66-.33,3.32-.09.18-.46.18-.57.04-.07-.55-.22-1.35-.55-1.59-.5-.37-1.33-.55-2.53-.55h-1.55c-.65,0-.63.02-.63.74v9.72Z"/>
          <path d="M162.22,73.61c0-2.31-.05-2.68-1.33-2.8l-.55-.04c-.13-.09-.09-.48.04-.55,1.09.04,1.83.06,2.75.06s1.62-.02,2.71-.06c.13.06.17.46.05.55l-.55.04c-1.29.11-1.33.48-1.33,2.8v7.77c0,2.32.04,2.62,1.33,2.77l.55.07c.13.08.09.48-.05.55-1.09-.05-1.83-.07-2.71-.07-.92,0-1.66.02-2.75.07-.13-.07-.18-.42-.04-.55l.55-.07c1.29-.15,1.33-.46,1.33-2.77v-7.77Z"/>
        </g>
        <g>
          <path d="M85.18,27.14c0-.66-.01-.69-.43-.69h-.88c-1.45,0-1.88.17-2.46,1.45-.11.09-.44.05-.51-.11.27-.85.51-1.83.62-2.38.03-.05.09-.06.17-.06.06,0,.12.02.16.06.08.39.3.41,1.37.41h6.44c.77,0,1.01-.05,1.2-.41.06-.03.13-.06.19-.06.09,0,.17.03.2.08-.16.65-.28,2.01-.24,2.51-.08.12-.35.16-.49.05-.21-1.23-.51-1.53-2.19-1.53h-.9c-.41,0-.43.03-.43.69v6.82c0,1.67.14,1.72.88,1.8l.57.06c.11.11.09.4-.03.46-.91-.03-1.62-.05-2.32-.05s-1.44.02-2.45.05c-.12-.06-.14-.38-.03-.46l.66-.08c.74-.09.88-.11.88-1.78v-6.82Z"/>
          <path d="M93.32,28.09c0-1.67-.14-1.73-.88-1.83l-.25-.03c-.11-.11-.1-.39.03-.46.6.03,1.34.05,2.03.05h3.02c1.01,0,1.92-.02,2.13-.05.07.27.16,1.52.25,2.19-.06.12-.38.16-.51.06-.25-.92-.49-1.3-.99-1.44-.36-.09-.83-.14-1.26-.14h-1.06c-.68,0-.68.03-.68.93v2.67c0,.41.01.43.38.43h.76c1.37,0,1.61-.02,1.75-.69l.11-.54c.13-.11.43-.11.51.01-.02.43-.05,1-.05,1.58s.03,1.15.05,1.66c-.08.11-.38.11-.51.02l-.11-.63c-.11-.66-.38-.69-1.75-.69h-.76c-.36,0-.38.03-.38.43v2c0,.8.03,1.37.27,1.64.19.22.46.33,1.78.35,2,.02,2.35-.43,2.9-1.71.14-.11.41-.06.5.1-.1.66-.44,1.86-.66,2.29-.69-.03-2.05-.05-3.9-.05h-1.8c-.69,0-1.65.02-2.36.05-.13-.06-.14-.35-.03-.46l.59-.06c.74-.08.88-.13.88-1.8v-5.87Z"/>
          <path d="M100.55,26.22c-.13-.13-.09-.39.05-.46.71.03,1.32.05,2.05.05.84,0,1.53-.02,1.97-.05.14.07.14.35.03.46l-.3.03c-.31.03-.52.1-.52.21,0,.12.08.3.39.79.39.6,1.45,2.21,1.8,2.65.38-.44,1.72-2.45,2.08-2.98.13-.19.19-.31.21-.41-.03-.11-.23-.14-.48-.21l-.34-.08c-.14-.11-.14-.36.03-.46.62.03,1.12.05,1.65.05s.96-.02,1.53-.05c.14.08.16.32.05.46l-.46.09c-.63.13-.88.36-1.58,1.22-.61.76-1.34,1.69-1.93,2.57-.17.25-.24.4-.24.46,0,.08.05.22.25.54.94,1.37,1.92,2.82,2.65,3.77.44.6.79.78,1.41.88l.39.06c.11.09.11.38-.03.46-.76-.03-1.44-.05-2.23-.05s-1.45.02-2.24.05c-.13-.06-.17-.36-.03-.46l.57-.11c.21-.05.33-.1.33-.21s-.11-.35-.46-.87l-.27-.39c-.39-.57-.87-1.33-1.53-2.26-.64.85-1.54,2.16-2.14,3.12-.14.22-.21.35-.21.46s.19.16.41.19l.41.06c.13.11.11.41-.03.46-.53-.03-1.18-.05-1.83-.05-.54,0-1.06.02-1.56.05-.14-.11-.14-.33-.06-.46l.43-.08c.68-.13,1.04-.33,1.65-1.11.35-.46,1.36-1.81,2.18-2.87.14-.19.24-.38.24-.46s-.03-.19-.17-.39c-.74-1.06-1.75-2.65-2.35-3.5-.47-.68-.79-.96-1.28-1.08l-.51-.11Z"/>
          <path d="M114.12,32.36c-.41,0-.4,0-.54.43l-.65,1.89c-.31.93-.25.96.33,1.06l.45.08c.11.11.1.4-.03.46-.51-.03-1.02-.03-1.68-.05-.52,0-1.01.02-1.56.05-.11-.08-.13-.32-.02-.46l.48-.08c.46-.08.63-.2.87-.73.19-.41.44-1.07.77-1.92l2.16-5.62c.19-.5.35-.88.3-1.15.55-.11,1.08-.76,1.11-.76.13,0,.2.05.27.13.25.71.46,1.45.71,2.16l2.27,6.61c.37,1.05.44,1.15,1.25,1.31l.24.05c.12.11.12.38.02.46-.65-.03-1.23-.05-2.05-.05-.68,0-1.37.03-1.92.05-.13-.08-.14-.36-.05-.46l.35-.05c.57-.08.65-.17.41-.84l-.74-2.15c-.14-.43-.2-.43-.65-.43h-2.1ZM116.02,31.65c.44,0,.5-.03.37-.41l-.66-1.89c-.28-.83-.36-1.14-.44-1.25h-.03c-.06.11-.2.51-.47,1.25l-.67,1.85c-.16.46-.13.46.25.46h1.64Z"/>
          <path d="M121.8,35.82c-.28-.33-.49-1.42-.47-2.4.09-.16.36-.17.49-.06.28.8,1.13,2.49,2.68,2.49,1.2,0,1.88-.73,1.88-1.69,0-.9-.43-1.63-1.61-2.29l-.68-.38c-1.18-.66-2.22-1.62-2.22-3.04,0-1.56,1.17-2.89,3.47-2.89.82,0,1.42.19,2.16.33.18.35.33,1.39.33,2.13-.08.14-.36.16-.51.05-.23-.82-.79-1.88-2.13-1.88-1.26,0-1.78.82-1.78,1.66,0,.67.46,1.37,1.5,1.93l.98.52c1.03.54,2.16,1.52,2.16,3.11,0,1.8-1.38,3.08-3.66,3.08-1.45,0-2.27-.47-2.59-.66Z"/>
          <path d="M135.86,32.36c-.41,0-.39,0-.54.43l-.65,1.89c-.31.93-.25.96.33,1.06l.46.08c.11.11.1.4-.03.46-.51-.03-1.02-.03-1.67-.05-.52,0-1.01.02-1.56.05-.11-.08-.13-.32-.02-.46l.48-.08c.46-.08.63-.2.87-.73.19-.41.44-1.07.77-1.92l2.16-5.62c.19-.5.35-.88.3-1.15.55-.11,1.07-.76,1.11-.76.13,0,.21.05.27.13.25.71.46,1.45.71,2.16l2.27,6.61c.36,1.05.44,1.15,1.25,1.31l.24.05c.13.11.13.38.02.46-.64-.03-1.23-.05-2.05-.05-.68,0-1.37.03-1.92.05-.13-.08-.14-.36-.04-.46l.34-.05c.57-.08.65-.17.41-.84l-.74-2.15c-.14-.43-.2-.43-.64-.43h-2.1ZM137.75,31.65c.44,0,.51-.03.38-.41l-.66-1.89c-.29-.83-.36-1.14-.44-1.25h-.03c-.06.11-.2.51-.47,1.25l-.66,1.85c-.16.46-.13.46.25.46h1.64Z"/>
          <path d="M148.05,30.75c0,.77-.58,1.09-1.15,1.34.54.3,1.28.95,1.73,1.53.14-.19.31-.46.44-.7.33-.63.51-1.07.51-1.23,0-.12-.11-.21-.38-.27l-.21-.04c-.14-.1-.11-.41.04-.46h1.01c.66,0,1.42-.02,1.75-.05.14.08.16.36.02.46l-.3.05c-.51.08-.71.19-.92.42-.28.31-.92,1.34-1.5,2.13-.15.2-.16.27-.04.43.44.58.82,1.23,1.77,1.23.47,0,.87-.24,1.05-.36.16.03.27.14.21.32-.28.31-.91.9-2.16.9-.82,0-1.39-.25-1.52-.46-.11-.16-.34-.57-.44-.63-.49.46-1.24,1.09-2.35,1.09-1.43,0-2.48-.8-2.48-2.01,0-1.44,1.31-1.96,1.77-2.19-.36-.25-.71-.73-.71-1.26,0-1.18,1.04-1.83,2.01-1.83,1.2,0,1.83.82,1.83,1.59ZM145.8,32.95c-.16-.1-.32-.22-.38-.22-.09,0-.73.41-.73,1.28,0,.81.63,1.53,1.61,1.53.47,0,1.02-.24,1.29-.51.13-.14.13-.19.02-.35-.63-.91-1.45-1.53-1.81-1.73ZM146.35,31.73c.13,0,.52-.41.52-1.06,0-.6-.29-.98-.73-.98-.39,0-.68.4-.68.85,0,.71.79,1.18.88,1.18Z"/>
          <path d="M166.04,35.82c.16.06.14.4-.03.46-.68-.03-1.29-.05-1.92-.05-.74,0-1.42.02-2.12.05-.12-.06-.19-.36-.03-.46l.43-.08c.64-.11.68-.22.68-1.3v-6.46h-.03c-.43.87-.65,1.34-.94,1.97l-1.36,2.78c-.54,1.1-1.33,2.85-1.61,3.6-.06.06-.3.06-.41,0-.27-.85-.95-2.4-1.31-3.19l-1.41-3.03c-.3-.66-.73-1.66-.92-2.13h-.03c-.03.78-.06,2.01-.1,2.67-.03.96-.06,2.37-.06,3.66,0,1.04.02,1.28.69,1.41l.52.09c.11.09.11.4-.02.46-.58-.03-1.07-.05-1.66-.05-.51,0-1.07.02-1.69.05-.14-.08-.14-.38-.05-.46l.27-.03c.76-.09.87-.33.98-1.29.11-.99.16-2.02.24-3.66.06-1.07.16-2.38.16-3.35,0-.74-.24-1.06-.85-1.17l-.54-.09c-.1-.11-.08-.41.06-.46.47.03.9.05,1.48.05s1.1,0,1.69-.05c.06.95.46,1.77.87,2.62l1.74,3.65c.12.27.53,1.06.74,1.42.25-.46.45-.9.82-1.64l1.48-3.03c.5-1.04,1.01-1.97,1.28-3.01.43.03.95.05,1.29.05.67,0,1.22-.02,1.66-.05.18.07.21.36.05.46l-.52.08c-.7.11-.85.36-.85,1.2,0,2.33.03,4.67.14,7.01.05,1.06.22,1.15.73,1.23l.46.08Z"/>
        </g>
        <g>
          <path d="M83.79,53.84c1.62-1.27,3.69-1.89,6-1.89,1.2,0,2.89.24,3.94.53.26.07.42.11.62.09.02.51.13,1.91.31,3.27-.12.15-.45.18-.6.04-.33-1.51-1.33-3.25-4.56-3.25-3.4,0-6.29,2.16-6.29,6.76s2.96,7.25,6.6,7.25c2.86,0,4.13-1.87,4.64-3.18.16-.11.49-.06.58.09-.15,1.16-.73,2.63-1.06,3.04-.27.05-.53.14-.78.22-.49.18-2.09.51-3.52.51-2,0-3.91-.4-5.54-1.49-1.78-1.22-3.16-3.25-3.16-6.12,0-2.47,1.11-4.58,2.8-5.89Z"/>
          <path d="M96.51,59.8c0-4.45,3.33-7.85,7.91-7.85,5.14,0,7.72,3.71,7.72,7.62,0,4.49-3.43,7.76-7.72,7.76-4.94,0-7.91-3.54-7.91-7.54ZM109.92,60.27c0-3.67-1.62-7.62-5.87-7.62-2.31,0-5.31,1.58-5.31,6.45,0,3.29,1.6,7.56,5.98,7.56,2.67,0,5.21-2,5.21-6.38Z"/>
          <path d="M116.01,55.66c0-2.11-.07-2.49-.98-2.6l-.72-.09c-.15-.11-.15-.47.03-.55,1.24-.11,2.78-.18,4.95-.18,1.38,0,2.69.11,3.72.67,1.07.56,1.84,1.56,1.84,3.12,0,2.11-1.66,3.27-2.78,3.71-.11.13,0,.36.11.53,1.78,2.87,2.96,4.65,4.47,5.92.38.33.93.58,1.53.62.11.04.13.22.02.31-.2.07-.56.11-.98.11-1.89,0-3.02-.56-4.6-2.8-.58-.82-1.49-2.36-2.18-3.36-.33-.49-.69-.71-1.58-.71-1,0-1.04.02-1.04.49v2.8c0,2.33.04,2.6,1.33,2.78l.47.07c.13.11.09.49-.05.55-1-.04-1.75-.07-2.64-.07-.94,0-1.74.02-2.78.07-.13-.07-.18-.4-.04-.55l.55-.07c1.29-.15,1.34-.44,1.34-2.78v-7.99ZM117.84,58.84c0,.4,0,.64.07.73.07.07.4.11,1.53.11.8,0,1.64-.09,2.29-.58.6-.47,1.11-1.25,1.11-2.76,0-1.76-1.09-3.43-3.56-3.43-1.38,0-1.44.09-1.44.71v5.21Z"/>
          <path d="M132.18,63.65c0,2.33.04,2.62,1.47,2.78l.6.07c.14.11.09.49-.05.55-1.26-.04-2-.07-2.89-.07-.93,0-1.73.02-2.71.07-.14-.07-.18-.42-.04-.55l.46-.07c1.29-.18,1.33-.44,1.33-2.78v-8.21c0-1.89-.04-2.27-1.05-2.38l-.8-.09c-.15-.13-.13-.47.05-.55,1.17-.16,2.55-.18,4.4-.18s3.23.24,4.27.89c1.02.65,1.78,1.8,1.78,3.33,0,2.05-1.27,3.07-2.23,3.54-.98.47-2.16.67-3.07.67-.16-.07-.16-.4-.02-.45,2.4-.44,3.27-1.8,3.27-3.73,0-2.16-1.27-3.56-3.58-3.56-1.18,0-1.21.09-1.21.8v9.92Z"/>
          <path d="M153.17,57.89c0-1.38-.04-3.93-.42-4.6-.16-.27-.56-.42-1.11-.47l-.55-.04c-.14-.16-.09-.45.04-.54.85.04,1.67.07,2.54.07.93,0,1.54-.02,2.33-.07.18.11.16.4.04.54l-.53.04c-.56.05-.98.24-1.12.54-.31.73-.31,3.29-.31,4.54v2.51c0,1.94-.31,3.98-1.56,5.32-.96,1.04-2.6,1.62-4.25,1.62-1.54,0-3.07-.29-4.16-1.22-1.18-.98-1.73-2.6-1.73-5.25v-5.25c0-2.31-.04-2.69-1.34-2.8l-.55-.04c-.13-.09-.09-.47.04-.54,1.11.04,1.87.07,2.75.07s1.65-.02,2.74-.07c.14.07.18.45.05.54l-.53.04c-1.29.11-1.34.49-1.34,2.8v4.8c0,3.58,1.12,5.94,4.52,5.94,3.22,0,4.45-2.53,4.45-5.91v-2.56Z"/>
          <path d="M161.29,67.34c-1.86,0-3.04-.58-3.47-.82-.26-.49-.55-2.07-.6-3.11.11-.16.44-.2.53-.07.34,1.13,1.25,3.31,3.83,3.31,1.87,0,2.78-1.22,2.78-2.56,0-.98-.2-2.07-1.83-3.11l-2.11-1.38c-1.11-.73-2.4-2-2.4-3.83,0-2.11,1.64-3.82,4.54-3.82.69,0,1.49.13,2.07.29.29.09.6.13.78.13.2.53.4,1.78.4,2.71-.09.13-.45.2-.56.07-.29-1.07-.89-2.51-3.02-2.51s-2.65,1.45-2.65,2.47c0,1.29,1.07,2.23,1.89,2.74l1.78,1.11c1.4.87,2.78,2.16,2.78,4.27,0,2.45-1.85,4.12-4.74,4.12Z"/>
        </g>
      </g>
      <g class="cls-4">
        <path class="cls-3" d="M59.18,66.96l-3.02-13.24c.98-1.5,1.88-2.48,2.69-3.12l.32,16.36M55.74,51.84l-3.46-15.2c2.2-1.58,4.34-2.32,6.26-2.57l.3,15.18c-.92.38-1.97,1.15-3.1,2.6ZM51.91,35.02l-2.94-12.91,9.12-10.78.43,21.88c-2.02,0-4.29.48-6.61,1.82ZM60.36,74.26l-7.17-14.17c.33-1.11.75-2.21,1.28-3.29.26-.53.52-1.03.76-1.49l5.13,18.95ZM52.27,58.28l-6.88-13.59.07-.12c1.66-2.84,3.39-4.96,5.1-6.53l4.14,15.29c-.38.59-.76,1.27-1.14,2.02-.5.97-.93,1.95-1.28,2.93ZM44.47,42.85l-4.88-9.65,6.24-12.66,4.25,15.72c-1.89,1.48-3.8,3.61-5.61,6.59ZM63.27,81.9l-10.97-12.7c-.16-2.15-.09-4.33.28-6.49l10.69,19.19ZM50.84,67.52l-9.25-10.7c.27-3.15,1.03-6.32,2.44-9.44l7.49,13.45c-.54,2.25-.74,4.49-.68,6.7ZM40.02,54.99l-6.84-7.91,2.99-13.8,6.82,12.24c-1.58,3.19-2.53,6.36-2.98,9.47ZM68.34,88.91l-13.79-9.71c-.8-2.24-1.47-4.6-1.89-7.02l15.68,16.73ZM52.97,78.08l-9.48-6.68c-1.14-3.54-1.9-7.31-2-11.15l9.58,10.23c.34,2.64,1.02,5.2,1.9,7.6ZM41.28,69.85l-10.55-7.43-.44-14.11,9.42,10.06c-.15,4,.48,7.87,1.56,11.49ZM74.96,94.49l-16.17-6.26c-1.05-1.84-2.14-3.93-3.12-6.2l19.29,12.46ZM57.86,87.87l-8.04-3.11c-1.76-2.83-3.55-6.13-5.02-9.75l9.38,6.06c1.12,2.51,2.41,4.81,3.68,6.81ZM48.32,84.18l-16.27-6.3-3.83-13.59,14.37,9.28c1.59,3.97,3.66,7.56,5.74,10.61ZM72.24,7.52l-6.33,27.72c-.87-.52-2.87-1.54-5.48-1.9l.36-17.56,11.46-8.25ZM65.9,35.27l-3.33,14.55c-.19-.19-1.1-.95-2.46-.88l.31-14.99c2.6.04,4.61.87,5.49,1.32ZM60.09,49.86c1.37-.59,2.29-.15,2.49-.03l-2.73,11.95.24-11.91ZM95.68,98.16c-3.81,4.97-11.26,4.29-13.54,4.16-9.3-.52-18.9-4.42-29.69-4.85-17.87-.71-42.59,5.58-42.59,5.58,0,0,14.24-5.44,28.87-7.45l-8.66-15.3,20.44,6.89c3.58,4.67,6.68,7.46,6.68,7.46,0,0-2.51-2.68-5.52-7.07l7.74,2.61c2.46,3.52,4.5,5.65,4.5,5.65,0,0-1.7-2.06-3.8-5.42l22.38,7.55s5.17,1.88,13.19.19Z"/>
      </g>
      <rect class="cls-3" x="173.65" y="24.44" width="2.25" height="61.38"/>
    </g>
    <g>
      <g>
        <path d="M195.2,45.37c-2.74,0-2.86.12-2.86,1.83v8.05c0,6,.29,6.8,3.49,7.14l1.65.17c.34.23.23,1.26-.11,1.43-3.09-.11-5.03-.17-7.26-.17-2.45,0-4.4.11-6.63.17-.34-.17-.45-1.09-.11-1.43l.97-.17c3.2-.57,3.32-1.14,3.32-7.14v-20.56c0-6-.4-6.97-3.37-7.2l-1.49-.11c-.34-.23-.23-1.26.11-1.43,2.8.06,4.74.17,7.2.17,2.23,0,4.17-.05,6.63-.17.34.17.46,1.2.11,1.43l-1.08.11c-3.31.34-3.43,1.2-3.43,7.2v6.57c0,1.77.11,1.83,2.86,1.83h16.34c2.74,0,2.86-.05,2.86-1.83v-6.57c0-6-.12-6.86-3.49-7.2l-1.08-.11c-.34-.23-.23-1.26.12-1.43,2.62.12,4.57.17,6.91.17s4.17-.05,6.74-.17c.34.17.46,1.2.12,1.43l-1.2.11c-3.31.34-3.43,1.2-3.43,7.2v20.56c0,6,.12,6.74,3.43,7.14l1.37.17c.35.23.23,1.26-.11,1.43-2.74-.11-4.69-.17-6.91-.17-2.34,0-4.4.05-6.91.17-.34-.17-.46-1.09-.12-1.43l1.08-.17c3.49-.57,3.49-1.14,3.49-7.14v-8.05c0-1.71-.12-1.83-2.86-1.83h-16.34Z"/>
        <path d="M258.22,50.57c-.4-1.26-.63-1.43-2.34-1.43h-8.62c-1.43,0-1.77.17-2.17,1.37l-2,6c-.86,2.57-1.26,4.11-1.26,4.74,0,.68.29,1.03,1.66,1.14l1.88.17c.4.29.4,1.2-.11,1.43-1.49-.11-3.26-.11-5.94-.17-1.89,0-3.94.11-5.48.17-.34-.23-.45-1.14-.12-1.43l1.89-.17c1.37-.11,2.63-.74,3.43-2.8,1.03-2.63,2.63-6.34,5.03-12.74l5.82-15.42c.8-2.06,1.15-3.14.97-4.06,1.37-.4,2.34-1.43,2.97-2.17.34,0,.74.11.86.51.74,2.51,1.66,5.14,2.51,7.66l7.83,22.96c1.66,4.92,2.4,5.77,4.86,6.06l1.54.17c.4.29.29,1.2,0,1.43-2.34-.11-4.34-.17-6.91-.17-2.74,0-4.91.11-6.57.17-.45-.23-.51-1.14-.11-1.43l1.66-.17c1.2-.11,2-.46,2-1.03,0-.63-.28-1.66-.74-3.03l-2.51-7.77ZM246.91,45.49c-.45,1.31-.4,1.37,1.2,1.37h7.03c1.66,0,1.77-.23,1.26-1.77l-3.09-9.31c-.46-1.37-.97-2.91-1.31-3.6h-.12c-.17.29-.74,1.66-1.37,3.37l-3.6,9.94Z"/>
        <path d="M286.45,34.75c0-5.43-.17-6.4-2.51-6.69l-1.83-.23c-.4-.29-.4-1.2.06-1.43,3.2-.29,7.14-.46,12.73-.46,3.54,0,6.91.29,9.54,1.72,2.74,1.43,4.74,4,4.74,8,0,5.43-4.28,8.4-7.14,9.54-.28.34,0,.92.29,1.37,4.57,7.37,7.6,11.94,11.48,15.19.98.86,2.4,1.49,3.95,1.6.28.11.34.57.06.8-.51.17-1.43.29-2.51.29-4.86,0-7.77-1.43-11.83-7.2-1.48-2.12-3.83-6.06-5.6-8.63-.86-1.26-1.77-1.83-4.06-1.83-2.57,0-2.69.06-2.69,1.26v7.2c0,6,.12,6.69,3.43,7.14l1.2.17c.34.29.23,1.26-.11,1.43-2.57-.11-4.52-.17-6.8-.17-2.4,0-4.46.05-7.14.17-.34-.17-.46-1.03-.12-1.43l1.43-.17c3.31-.4,3.43-1.14,3.43-7.14v-20.51ZM291.13,42.92c0,1.03,0,1.66.17,1.89.17.17,1.03.28,3.94.28,2.06,0,4.23-.23,5.89-1.49,1.54-1.2,2.85-3.2,2.85-7.08,0-4.51-2.8-8.8-9.14-8.8-3.54,0-3.71.23-3.71,1.83v13.37Z"/>
        <path d="M343.01,55.25c0,6,.11,6.86,3.42,7.14l1.83.17c.34.23.23,1.26-.11,1.43-3.26-.11-5.2-.17-7.49-.17s-4.29.05-7.94.17c-.34-.17-.46-1.14,0-1.43l2.06-.17c3.26-.29,3.54-1.14,3.54-7.14v-25.54c0-1.77,0-1.83-1.71-1.83h-3.14c-2.46,0-5.6.12-7.03,1.43-1.37,1.25-1.94,2.51-2.57,3.94-.45.34-1.25.06-1.48-.4.91-2.57,1.77-6.23,2.17-8.51.17-.11.92-.17,1.09,0,.34,1.83,2.22,1.77,4.85,1.77h23.13c3.09,0,3.6-.11,4.45-1.6.29-.12.92-.06,1.03.17-.63,2.34-1.03,6.97-.86,8.68-.23.46-1.2.46-1.48.11-.17-1.43-.57-3.54-1.43-4.17-1.31-.97-3.48-1.43-6.62-1.43h-4.06c-1.71,0-1.66.06-1.66,1.94v25.42Z"/>
        <path d="M375.58,34.69c0-5.94-.11-6.8-3.48-7.2l-.91-.11c-.34-.23-.23-1.26.11-1.43,2.45.12,4.4.17,6.74.17h10.74c3.65,0,7.03,0,7.71-.17.35.97.69,5.09.92,7.6-.23.34-1.14.46-1.43.12-.86-2.69-1.37-4.69-4.34-5.43-1.2-.29-3.03-.35-5.54-.35h-4.11c-1.71,0-1.71.12-1.71,2.29v11.42c0,1.6.17,1.6,1.89,1.6h3.31c2.4,0,4.17-.12,4.85-.34.69-.23,1.09-.57,1.37-2l.46-2.34c.28-.34,1.25-.34,1.49.06,0,1.37-.23,3.6-.23,5.77,0,2.06.23,4.23.23,5.48-.23.4-1.2.4-1.49.06l-.52-2.23c-.23-1.03-.63-1.88-1.77-2.17-.8-.23-2.17-.29-4.4-.29h-3.31c-1.71,0-1.89.06-1.89,1.54v8.05c0,3.03.17,4.97,1.08,5.94.69.68,1.89,1.31,6.91,1.31,4.4,0,6.06-.23,7.31-.86,1.03-.57,2.57-2.57,4.06-5.54.4-.29,1.2-.11,1.43.4-.4,2-1.83,6.4-2.57,7.94-5.14-.11-10.23-.17-15.31-.17h-5.14c-2.46,0-4.4.05-7.77.17-.34-.17-.46-1.09-.11-1.43l1.88-.17c3.26-.29,3.54-1.14,3.54-7.14v-20.56Z"/>
      </g>
      <g>
        <path d="M184.78,75.2c0-1.89-.03-2.38-.69-2.46l-.81-.12c-.23-.03-.29-.64,0-.72,1.59-.12,3.22-.17,4.81-.17,2.7,0,5.63.43,5.63,3.48,0,1.86-1.45,2.7-2.58,3.11-.12.12-.09.29,0,.44,1.45,2.43,2.73,3.86,3.69,4.64.52.44,1.07.58,1.53.61.12.11.12.38,0,.46-.26.09-.67.15-1.22.15-1.74,0-2.78-.55-4.06-2.18-.73-.93-1.51-2.2-2.12-3.13-.23-.35-.7-.46-1.16-.46-.76,0-.81.06-.81.46v2.06c0,2,.11,2.15,1.36,2.32l.67.09c.2.15.17.64-.06.73-1.22-.06-2.18-.09-3.08-.09s-1.83.03-2.84.09c-.29-.09-.32-.61-.06-.73l.44-.09c1.25-.26,1.36-.32,1.36-2.32v-6.15ZM186.99,77.32c0,.72.03.72,1.45.72,1.88,0,2.87-.75,2.87-2.76,0-1.45-1.01-2.72-3.04-2.72-1.07,0-1.27.05-1.27.81v3.94Z"/>
        <path d="M197.87,74.86c0-2-.11-2.09-1.22-2.32l-.41-.09c-.2-.12-.17-.61.06-.73.84.06,1.74.09,2.7.09h4.12c1.27,0,2.43-.03,2.7-.09.03.35.17,1.71.32,2.96-.12.23-.58.26-.76.06-.17-.75-.34-1.13-.52-1.39-.47-.7-1.77-.7-2.47-.7h-1.28c-1.02,0-1.04.03-1.04.93v3.22c0,.52,0,.58.55.58h1.36c1.54,0,1.68-.23,1.92-1.1l.14-.55c.15-.2.58-.17.73.06-.06.84-.06,1.36-.06,2.03,0,.73,0,1.25.06,2.09-.15.23-.58.26-.73.05l-.14-.55c-.23-.87-.38-1.1-1.92-1.1h-1.36c-.55,0-.55.08-.55.67v2.09c0,.87.06,1.77.32,2.09.26.29.78.41,2.44.41,1.86,0,2.93-.09,3.77-2.41.2-.2.67-.14.75.12-.14,1.22-.55,2.67-.87,3.22-1.83-.06-3.36-.09-4.93-.09h-2.55c-.93,0-1.83.03-3.22.09-.23-.09-.26-.58-.05-.73l.78-.09c1.25-.14,1.36-.32,1.36-2.32v-6.5Z"/>
        <path d="M211.48,78.48c-1.39-.72-2.58-1.86-2.58-3.48,0-2.11,1.63-3.6,4.55-3.6,1.02,0,1.71.26,2.7.43.23.49.43,1.6.41,2.84-.09.23-.61.26-.75.06-.23-1.01-.99-2.5-2.7-2.5s-2.35.99-2.35,1.97c0,1.04.79,1.68,1.95,2.29l1.79.93c1.05.52,2.35,1.74,2.35,3.69,0,2.26-1.86,3.68-4.73,3.68-1.77,0-2.93-.61-3.34-.9-.26-.41-.61-1.45-.61-2.99.12-.29.55-.32.76-.06.23,1.04,1.51,3.1,3.45,3.1,1.48,0,2.44-.75,2.44-2.09,0-.93-.38-1.89-2.03-2.73l-1.3-.67Z"/>
        <path d="M220.27,74.86c0-2-.12-2.09-1.22-2.32l-.4-.09c-.2-.12-.18-.61.06-.73.84.06,1.74.09,2.7.09h4.12c1.28,0,2.44-.03,2.7-.09.03.35.17,1.71.32,2.96-.11.23-.58.26-.75.06-.17-.75-.35-1.13-.52-1.39-.46-.7-1.77-.7-2.47-.7h-1.28c-1.01,0-1.04.03-1.04.93v3.22c0,.52,0,.58.55.58h1.36c1.54,0,1.68-.23,1.92-1.1l.14-.55c.15-.2.58-.17.73.06-.06.84-.06,1.36-.06,2.03,0,.73,0,1.25.06,2.09-.15.23-.58.26-.73.05l-.14-.55c-.23-.87-.38-1.1-1.92-1.1h-1.36c-.55,0-.55.08-.55.67v2.09c0,.87.06,1.77.32,2.09.26.29.78.41,2.43.41,1.86,0,2.93-.09,3.77-2.41.2-.2.67-.14.76.12-.15,1.22-.55,2.67-.88,3.22-1.82-.06-3.36-.09-4.93-.09h-2.55c-.93,0-1.83.03-3.22.09-.23-.09-.26-.58-.06-.73l.78-.09c1.25-.14,1.36-.32,1.36-2.32v-6.5Z"/>
        <path d="M234.23,79.91c-.67,0-.75.02-.99.69l-.67,1.86c-.32.93-.23,1.04.32,1.16l.78.14c.23.15.2.67-.09.73-.73-.06-1.48-.09-2.29-.09s-1.51.06-2.03.09c-.26-.11-.26-.58-.06-.73l.67-.14c.9-.2,1.22-.52,1.8-1.92l2.79-6.67c.49-1.19.69-1.89.75-2.44.52-.2,1.07-.75,1.22-1.1.23-.09.41-.03.46.14.12.29.58,1.8,1.25,3.57l2.61,6.94c.35.96.61,1.33,1.65,1.53l.46.09c.26.15.21.67-.08.73-.76-.06-1.42-.09-2.41-.09-1.04,0-1.88.03-2.61.09-.29-.09-.31-.61-.05-.73l.58-.09c.75-.12.73-.29.38-1.19l-.7-1.89c-.23-.67-.32-.69-.99-.69h-2.75ZM236.52,78.98c.75,0,.84-.06.52-.9l-.9-2.47c-.24-.67-.35-.9-.44-1.04h-.06c-.08.12-.2.38-.46.98l-1.04,2.58c-.32.78-.26.84.38.84h2Z"/>
        <path d="M245.08,75.2c0-1.89-.03-2.38-.7-2.46l-.81-.12c-.23-.03-.29-.64,0-.72,1.59-.12,3.22-.17,4.81-.17,2.7,0,5.63.43,5.63,3.48,0,1.86-1.45,2.7-2.58,3.11-.12.12-.09.29,0,.44,1.45,2.43,2.72,3.86,3.69,4.64.52.44,1.07.58,1.53.61.12.11.12.38,0,.46-.26.09-.67.15-1.22.15-1.74,0-2.78-.55-4.06-2.18-.73-.93-1.51-2.2-2.12-3.13-.23-.35-.69-.46-1.15-.46-.76,0-.81.06-.81.46v2.06c0,2,.11,2.15,1.36,2.32l.67.09c.2.15.17.64-.06.73-1.22-.06-2.17-.09-3.07-.09s-1.83.03-2.84.09c-.29-.09-.32-.61-.06-.73l.43-.09c1.25-.26,1.37-.32,1.37-2.32v-6.15ZM247.28,77.32c0,.72.03.72,1.45.72,1.88,0,2.87-.75,2.87-2.76,0-1.45-1.01-2.72-3.04-2.72-1.07,0-1.27.05-1.27.81v3.94Z"/>
        <path d="M268.23,71.96c0,.61.09,2.03.26,3.19-.12.23-.55.29-.76.05-.43-1.59-1.42-2.96-4.03-2.96s-4.96,1.68-4.96,5.63,2.49,6.09,5.22,6.09,3.86-2.18,4.18-2.93c.14-.26.61-.26.75.03-.14,1.28-.61,2.61-.96,3.13-.84.15-1.91.61-3.92.61-1.83,0-3.63-.32-5.1-1.33-1.57-1.08-2.75-2.85-2.75-5.16s.98-4.09,2.44-5.22c1.42-1.1,3.42-1.68,5.65-1.68,1.89,0,3.74.55,3.98.55Z"/>
        <path d="M280.27,77.38c.92,0,1.04,0,1.04-.75v-1.77c0-2-.12-2.12-1.36-2.32l-.55-.09c-.2-.15-.17-.64.06-.73,1.13.06,2.03.09,2.96.09s1.82-.03,2.96-.09c.23.09.26.58.06.73l-.55.09c-1.25.2-1.36.32-1.36,2.32v6.5c0,2,.11,2.15,1.36,2.32l.67.09c.2.15.17.64-.06.73-1.22-.06-2.17-.09-3.07-.09s-1.83.03-2.96.09c-.23-.09-.26-.58-.06-.73l.55-.09c1.24-.2,1.36-.32,1.36-2.32v-2.29c0-.73-.06-.75-1.04-.75h-5.11c-.99,0-1.04.03-1.04.75v2.29c0,2,.12,2.18,1.36,2.32l.78.09c.2.15.17.64-.06.73-1.33-.06-2.29-.09-3.19-.09s-1.83.03-2.73.09c-.24-.09-.26-.58-.06-.73l.32-.09c1.22-.32,1.36-.32,1.36-2.32v-6.5c0-2-.11-2.15-1.36-2.32l-.67-.09c-.2-.15-.17-.64.06-.73,1.25.06,2.15.09,3.08.09s1.83-.03,2.84-.09c.23.09.26.58.06.73l-.44.09c-1.22.23-1.36.32-1.36,2.32v1.77c0,.75.12.75,1.04.75h5.11Z"/>
        <path d="M295.42,74.86c0-2-.12-2.12-1.36-2.32l-.55-.09c-.2-.15-.18-.64.06-.73,1.13.06,2.03.09,2.96.09s1.83-.03,2.96-.09c.23.09.26.58.06.73l-.55.09c-1.25.2-1.36.32-1.36,2.32v6.5c0,2,.11,2.12,1.36,2.32l.55.09c.2.15.17.64-.06.73-1.1-.06-2.06-.09-2.96-.09s-1.83.03-2.96.09c-.24-.09-.26-.58-.06-.73l.55-.09c1.24-.2,1.36-.32,1.36-2.32v-6.5Z"/>
        <path d="M312.97,76.28c0-2.9-.17-3.66-1.25-3.74l-.93-.09c-.2-.17-.17-.58.06-.73,1.08.06,1.74.09,2.58.09s1.48-.03,2.41-.09c.23.14.23.58.03.73l-.87.09c-.75.09-.99.87-.99,3.74v4.87c0,.58,0,2.93.09,3.37-.09.17-.35.32-.61.26-.32-.41-.9-1.02-2.7-2.96l-4.41-4.7c-1.1-1.16-1.85-1.92-2.23-2.24-.12,0-.12.32-.12,1.22v3.83c0,2.9.17,3.66,1.25,3.74l.93.09c.23.17.17.58-.06.73-1.07-.06-1.74-.09-2.58-.09s-1.39.03-2.41.09c-.23-.11-.23-.58-.03-.73l.87-.09c.75-.09.99-.87.99-3.74v-5.19c0-.96-.03-1.36-.61-1.8-.23-.17-.78-.35-1.07-.41l-.44-.09c-.2-.17-.2-.61.06-.73,1.1.09,1.89.09,2.49.09.4,0,.81-.03,1.16-.09.58,1.1,1.65,2.35,2.84,3.57l2.73,2.82c.64.64,2.32,2.46,2.64,2.69.17-.05.17-.46.17-1.16v-3.36Z"/>
        <path d="M320.41,78.48c-1.39-.72-2.58-1.86-2.58-3.48,0-2.11,1.62-3.6,4.55-3.6,1.01,0,1.71.26,2.69.43.24.49.44,1.6.41,2.84-.09.23-.61.26-.76.06-.23-1.01-.98-2.5-2.69-2.5s-2.35.99-2.35,1.97c0,1.04.78,1.68,1.94,2.29l1.8.93c1.04.52,2.35,1.74,2.35,3.69,0,2.26-1.85,3.68-4.73,3.68-1.77,0-2.93-.61-3.34-.9-.26-.41-.61-1.45-.61-2.99.12-.29.55-.32.75-.06.23,1.04,1.51,3.1,3.45,3.1,1.48,0,2.44-.75,2.44-2.09,0-.93-.38-1.89-2.04-2.73l-1.3-.67Z"/>
        <path d="M331.89,73.41c0-.76-.03-.76-.61-.76h-.9c-1.77,0-2.52.17-3.22,2.18-.29.17-.61.09-.73-.14.32-1.25.64-2.7.78-3.42.12-.12.41-.12.52,0,.03.58.44.55,1.6.55h8.06c1.07,0,1.28-.03,1.51-.55.2-.12.43-.06.52.09-.23.75-.35,2.29-.29,3.4-.12.23-.61.26-.72.03-.2-1.88-.96-2.12-2.7-2.12h-.99c-.55,0-.64,0-.64.76v7.95c0,2,.12,2.18,1.36,2.32l.78.09c.2.15.17.64-.06.73-1.19-.06-2.29-.09-3.19-.09s-1.97.03-3.19.09c-.23-.09-.26-.58-.06-.73l.78-.09c1.25-.14,1.36-.32,1.36-2.32v-7.95Z"/>
        <path d="M342.05,74.86c0-2-.11-2.12-1.36-2.32l-.55-.09c-.2-.15-.18-.64.06-.73,1.13.06,2.03.09,2.96.09s1.83-.03,2.96-.09c.23.09.26.58.06.73l-.55.09c-1.25.2-1.36.32-1.36,2.32v6.5c0,2,.12,2.12,1.36,2.32l.55.09c.2.15.17.64-.06.73-1.1-.06-2.06-.09-2.96-.09s-1.83.03-2.96.09c-.23-.09-.26-.58-.06-.73l.55-.09c1.25-.2,1.36-.32,1.36-2.32v-6.5Z"/>
        <path d="M352.32,73.41c0-.76-.03-.76-.61-.76h-.9c-1.77,0-2.52.17-3.21,2.18-.29.17-.61.09-.73-.14.32-1.25.64-2.7.78-3.42.12-.12.41-.12.52,0,.03.58.43.55,1.59.55h8.06c1.07,0,1.28-.03,1.51-.55.2-.12.43-.06.52.09-.23.75-.35,2.29-.29,3.4-.11.23-.61.26-.72.03-.2-1.88-.96-2.12-2.7-2.12h-.99c-.55,0-.64,0-.64.76v7.95c0,2,.12,2.18,1.37,2.32l.78.09c.2.15.17.64-.06.73-1.19-.06-2.29-.09-3.19-.09s-1.97.03-3.19.09c-.23-.09-.26-.58-.06-.73l.78-.09c1.25-.14,1.36-.32,1.36-2.32v-7.95Z"/>
        <path d="M362.22,74.86c0-2-.14-2.06-1.36-2.32l-.41-.09c-.2-.15-.18-.64.06-.73.99.06,1.88.09,2.81.09s1.83-.03,2.96-.09c.23.09.26.58.06.73l-.56.09c-1.25.2-1.36.32-1.36,2.32v4.09c0,2.9.95,4.87,3.77,4.87,2.61,0,3.74-1.97,3.74-4.84v-2.7c0-2.9-.17-3.57-1.42-3.74l-.61-.09c-.2-.17-.17-.58.06-.73.92.06,1.59.09,2.43.09s1.48-.03,2.41-.09c.23.14.23.58.03.73l-.87.09c-.75.09-.99.87-.99,3.74v2.87c0,3.71-1.71,5.65-5.4,5.65-1.86,0-3.25-.37-4.12-1.22-.87-.87-1.25-2.2-1.25-4.09v-4.64Z"/>
        <path d="M380.41,73.41c0-.76-.03-.76-.61-.76h-.9c-1.77,0-2.52.17-3.22,2.18-.29.17-.61.09-.73-.14.32-1.25.64-2.7.78-3.42.12-.12.41-.12.52,0,.03.58.44.55,1.6.55h8.06c1.07,0,1.28-.03,1.51-.55.2-.12.43-.06.52.09-.23.75-.35,2.29-.29,3.4-.12.23-.61.26-.73.03-.21-1.88-.96-2.12-2.7-2.12h-.99c-.55,0-.64,0-.64.76v7.95c0,2,.12,2.18,1.37,2.32l.78.09c.21.15.17.64-.05.73-1.19-.06-2.29-.09-3.19-.09s-1.98.03-3.19.09c-.23-.09-.26-.58-.06-.73l.78-.09c1.25-.14,1.36-.32,1.36-2.32v-7.95Z"/>
        <path d="M390.57,74.86c0-2-.12-2.09-1.22-2.32l-.41-.09c-.2-.12-.17-.61.06-.73.84.06,1.74.09,2.7.09h4.11c1.28,0,2.44-.03,2.7-.09.03.35.17,1.71.32,2.96-.11.23-.58.26-.75.06-.17-.75-.35-1.13-.53-1.39-.46-.7-1.76-.7-2.46-.7h-1.28c-1.01,0-1.04.03-1.04.93v3.22c0,.52,0,.58.55.58h1.37c1.54,0,1.68-.23,1.92-1.1l.14-.55c.14-.2.58-.17.73.06-.06.84-.06,1.36-.06,2.03,0,.73,0,1.25.06,2.09-.15.23-.58.26-.73.05l-.14-.55c-.23-.87-.38-1.1-1.92-1.1h-1.37c-.55,0-.55.08-.55.67v2.09c0,.87.06,1.77.32,2.09.26.29.78.41,2.44.41,1.86,0,2.93-.09,3.77-2.41.2-.2.67-.14.76.12-.15,1.22-.55,2.67-.87,3.22-1.83-.06-3.37-.09-4.93-.09h-2.55c-.93,0-1.83.03-3.22.09-.24-.09-.27-.58-.06-.73l.78-.09c1.25-.14,1.36-.32,1.36-2.32v-6.5Z"/>
      </g>
    </g>
  </g>
</svg>